<mxfile host="app.diagrams.net" agent="Mozilla/5.0 (Windows NT 10.0; Win64; x64) AppleWebKit/537.36 (KHTML, like Gecko) Chrome/134.0.0.0 Safari/537.36" version="26.1.0">
  <diagram name="Page-1" id="uf9sXPAZeghW4BayL8s0">
    <mxGraphModel dx="1050" dy="522" grid="1" gridSize="10" guides="1" tooltips="1" connect="1" arrows="1" fold="1" page="1" pageScale="1" pageWidth="850" pageHeight="1100" math="0" shadow="0">
      <root>
        <mxCell id="0" />
        <mxCell id="1" parent="0" />
        <mxCell id="VVVXWn_tdc937dLlu_xc-1" value="" style="shape=image;verticalLabelPosition=bottom;labelBackgroundColor=default;verticalAlign=top;aspect=fixed;imageAspect=0;image=data:image/png,iVBORw0KGgoAAAANSUhEUgAAAUsAAAFUCAIAAAAiVYmHAAAgAElEQVR4AeydCXQU15X3iTdWSa2W1Np3CYQWNoHYkRAg0IYWJIFAIIlF7IvYzC5hDF4njpckXiaZTDZnMpNksk0yk5xMJmOQbOzJF9sJSBgkdpyTxDbaWXI+q/7U5epVdanVXd3qbvp/dEr33fequrq6fu/e96q6ekinR54j4DkC7nsEhrjvW/O8M88R8ByBTg/hnpPAcwTc+Qh4CHfnT9fz3jxHwEO45xzwHAF3PgJDujzyHAHPEXDfI+Ah3H0/W8878xyBri4P4Z6zwHME3PkIeAh350/X8948R8BDuOcc8BwBdz4CHsLd+dP1vDfPEfAQ7jkHPEfAnY+Ah3B3/nQ9781zBDyEe84BzxFw5yPgIdydP13Pe/McAQ/hnnPAcwTc+Qg4BeGdnZ1dXV24OVj7YKOluTbatbSWJS9EjZUGv4mZaskJj/IlqIFg8Pa0/2SYqxU2wovCKryKbDra8AhFDSftGG2KG3hpbI12g5zmDNqC5avQppT7Y8VGaGtuaQwy4Z2dnR0dHfyc6O7u7unp+dSMPvnkEzM1ve5PZGm0Eao0Nihv7P5//hL3vXpYfxug/ipLud5f//pXpZN7sKrSI2/yr3+RRMUBGX/7298G1F5ojJe2YvnJJ5/0SMK51NHRQR0H9QJuCXC/b8opCO/s7Lx58+aVK1caGhp++MMfvvHGGy+99NKLL774JaYXXnjhi5L+gen5vnpO0rOSnmF6+umnn2I6ceLEcUlPSjom6wmmo5LqmepkHZF1+PDhQ0wHDx48IGt/X+3bt+9xWXv6arekXbJ2SqqVtKOvtjNt27Zt69atWxTavHnzJlkb+2o9U42sdbLWSlojq7q6uqqvKisrV/XVSlkVTCtklctaxrRUVhlTqawSSUuYiouLi4qKCiUVqGmxpPz8/IKCghUrVtTV1f3gBz84f/58e3s7ggeFkK4HVYNP+M2bN0+fPv3GG2/U19evXbs2PT09MTExPDw8NDQ0zGKF9lWIJGHtvk16S2hGfhRpSX5uUG1ISEhwcDAvKm1zK6IldgAb4S1px5QbhCdYlrkGvBm1kVe695/aKBsEBQWZ1BQYGGgymQIlqdWr+AICAlS8mi4rVsH2QkJCwsPDY2NjJ0yYsGHDht/85jc3b97seuA1OIR3dna2t7d/9tlnH3zwwZe//OXdu3cvWrQoOjo6MDBw/PjxOTk51dXVu3fv3r9/vxwULf3PA+lBpgMHDmBrzHfPpE0rq6zwHDp0SLkWi/Ra5uH+pLoyrXTEMlF7pXHo0KHDhw8vW7YsLCwsMDAwqK/AtvZSE97eyoD+5K8pPz8/f39/P1lGJl9fX4PB4OPjYzKZoqKiUlJSNmzY0NDQ8Nlnn3VKejBhHxzCu7q6/vKXv/z85z8/evRoUVFRSEhIRETEwoULt2/fXl9ff1zSsWPHkEVjCWe/yxOS0Aw2LYV1ya9tILs/ceIES/PNmk9LUq1GFV8+o6ann34a7mct1nNm9Pzzz//DP/zD80zPPfccK4kmNvP8888XFBSEhoYi1nPGzbEdFBTEq7Qh7w/wAH9/f9U2SvBBO/wy8n5Go9FXkslkiomJmTlz5muvvfbnP//5gYV8cAj/61//+u1vf3vPnj0TJ0708/PLzMysra2tr69/QtIxNWnTTr3Ak08+KZBsrqgNtrKWuNWoQhsM+znMA7WfeuoprCJ0AsQ/9wtdwXPPPQePAL6qk9o8//zzsJ955pmMjIzQ0NCgoKDg4GDQSwxrAE9gc9phWxK6QTVwJcKVVJvzEOF+fr2QE+ehoaHjxo2rq6u7cePGgznlZvenOPHUCP3oX/7yl69//et79+6NiYkJCgpatWrVkSNHwDaWR48efeKJJ9Qwv+8j4OF68sknhZiPBseOHaNNkYfWNQc/NbCwvxCYf+qpp7gH2HOPhRkB9SkEPPUURLjAPDAe6BKdAiA/evRoamoqZhnAszJdJ86VMCs9hDd1AdxQBZsIDwjoDenaEvJ2jjry9qCgoJSUlLq6uo8//rhLvijLacdp6a5Lh8ZwDL+///3vHzlyJCYmxmQyrVu3rr6+/ujRo1gelUXAg3YqcmJhUxWM+31A3ySf+6lTEEhGNyH0FNQL8MbcpgbHjx/nGPMibGrJm1loU3ZAkMNQ7QWIf1XDHP/PPPPMs88+u3///oSEBArgBLPSUMIseDjJqrZAMi9y8vsl3Gg0crDJRiTHyDw5Ofn1119vb2/vktTd3Q3D7ZeOJvydd9558sknU1NTvb29KyoqAHZdXV19X8mk9/4HumRwpKkZdwqoK2O4knZQTX5C3RztxCpHXSPgowqNaV1VAy1Vsecwk42WKHKbh31uCzGfuoBnn30W9pYtW6Kionh+bgXbmHU3aYoYVoJNVdps05SbOcKRsSOSBwcHz5gx4/e//31HR8eDg3dXV9eQbkepq6vr2rVrr776aklJyfDhwxcuXHj48OEjR44Q3nWy+sLeWyKSyXjiiSfIVoWfmFcN9bwXoC6AVuEGYc8NAhtO6hE4ydxJ7bnBCSekuVOwqQ1dz+cGryX+NQwhF3j66aefffbZEydOVFRUYBBOI3BbCAerStIFhpWQ98u2JXjTmNxgMBiNxsjIyJqams8++6xLkqNO/EF+HUcQ3tnZ2dPT09bW9tZbb+3duzcoKCg2Nnbfvn11dXWccAIbpKPIbWrA2RZsZXdAfYGyCl2D0EEAWg65YCu7DAF+KmJFKlKmwDmHDZiVfuoyBNqppeDnQwPOvKqN+QLeCxw7diwnJydQlpJtmnKTm4j/TRZIyTP3ENt8qpycZFAqbs7onW2T5CvJYDAEBQUlJib+7ne/6+rqGmTsHPjyjiAc0xuffPLJa6+9lpub6+3tvW7dusOSQPgRSYBZWNYzWVLFmt8zMcivr6/H6soGRD71BUKvoVqktYQOgncHnG2hX0AVpQ9CS3NFAhvkc7ypijsttCkXqKurmzVrlslkUg3ggeZlskyYOeM8cxvXycAwuCWeyTDHM/llrtX/R0REbNy4sbu7u7Oz04GUDeZLOYJwDHuam5uPHDkyevTo+Pj4g5KQpQPvw4cPCwALRfQFgpMXld2EADNvTEMD3oZI5k7Y6CbQAOvCploUOd6CLRBOtYS60FOQX+gFQLJygkA5KADeRD4ZhD08KALyQ4cOJScn4562QIvveDExad+RpiSc0CWDWFWN4bxW1SayEbpRpDAeEhISExNz7do1D+E69Dpdsjol/eY3v6mpqTGZTHl5eUeOHDkkC8GcL8EqLYUqFKkWhqqzTiEAqXD3OgSq0UZwKoucc6EWVUQ+FSlTIMipypxBLZWxHfw/+eST6CB4A+oLuBM20U6QHzt27Pjx47t27QoPD+cBHJwHasokSYNtCtSEMfcEBAT4+flh9WDpCjxdAKP2MDCuVgUbTsJbMEC4r6+vv79/VFTUj370oy5JOpzlTr8JO8ZwHESk6D09PW+++WZRUZHRaNywYcPBgwdlwMX/nGfYuJUSS6GWOCf/kSNHYFOVtoG5AD5Y4O3rFFLFWHAq+wvewBzGNJrg+b9qYwKeDDSjIg/73Em2wDzF/+rqajBGYIN2DcBNFgg8q96sRgwHBgaOTUpMTE5KTE6Kj4/nV8I1kOZVuDYmsE0xnO6BCQ8PP378eKf0hWWnx1OHHXQE4V1dXR0dHV/96lfnzp0bGhpaW1t74MCBg5LIQFEgH0660xudAbUhqpWGandAzXgt55kaYPiAIm8AmzoFPnDgzRTdQh1viVrOPGwifO/evTU1NevWratR03oz2rp1a11dnYA6z/wFqlEE87CPHj2anZ0dJIkIN8lfNVGFnOg2F8ApVpszKDjHx8cnJSfNmzcvPSNjwoQJERERlKVzjJW2UZKvry8MjSUieWho6JYtW3BhXAeAnH4TdiSc3jsIf+aZZ1JTU8eMGbNz5879ml8pOWheRDtxLuYA8hc/VP1KJ6da1UZ3wAFGmsA9tCJ39msrOwL0HYWFhTNmzJgpadasWbNlzZkzJz09HcsMWXPnzs3MzJwnafPmzbzjAO0ccorhZFCPgP4lLS2N2FZFmpzEtqphjmfuJ7aN0v0qCWPHjhufMnfmzPyFi6ZPnx4fHw8/XfFSsk1VGlRTFSXqwcHB5eXln376KZ2f7m04gnB8R/f48ePJyclJSUkgHJDvZzogicPPSadoj2ZY8gYH2dez0Zh45t0BX0W1AZyHpe9+Hzx4EPTysI8q8gtVRDufR6SxA3eiJTqCOlmHDx+uqKgAv3MlZUqaJ2u+rAULFmRJWigpNzd39+7d9ZKUwwSiHQaaCcOBAwcOjB07NtACmTQFjAGwambOM3A08/X1jY2LTUwaOy1tyuw5s2bNnoUYDqpBqUA4nJYsfZkMBkNgYGBpaenf/vY39wab3p3jCH/yySeJ8H379jG0e00QCyds1SW1RC3hKviFWmoGg4N94MABygvITx7Ucj+3ecfB/Rxysjnk5OTAE+p8U7CpPe9NhA1iIGDJcIDw5kZdXV1tbW1oaGi/gGvS3VupTTiRD4O4NZlM8WNGj5swfuLk1Li4OH9/f6KX2pCBKl9J1EzVQBta4qq4h3DiXx8DWfqxY8dAeG1trZJwsL2PSegC9u/fj0qln/cL2rVCnD+g0EFJ5EZ7OAl7MohwNKCiElFtDwEMQ9mYN+CjBvjRNQB4sgl1bihraU6hrq5uzZo1/v7+/DEPStq18eZJuDmbEw5icXdab7SXBv3oI4xS6m6URGCTAT+4ha26RAPctQrbE8P1QVrYSpf0hR4ifMeOHY9LYjj3mnAqq7j/8ccfF9ZSdhbgEz2COeD7rUVSIKQGvHjQjGg0oVqvWsuRprW4U7A58Ko2SFbyL3g48PX19VlZWQEBAUqq4QHbNs6ocby5Tej2ez2Mj719zc+uEdtKA1n6J598Ipyl7lp0RJYOwp944okkSUQ4obtXEhWVhsA/NVDSTsBjFTQgzoX25KcEgRqgirZGLdF9YClkBKpteHuyCWOaLyAPJQJKj8A5ipgUQGCnBoS94Fc2oJZ1dXWJiYmqM+facRsh11zEFjJ2TjW3OeHmbKMsDbDRxNe8kKWXlZV5CNezRyPCEyVt37599+7de/bsAdh79+7doyaq1eB/7969iOrE/OOPP67d3lwtsS1QTX2EuQbUFwgrcr+y6oD0VCmeFIB2LDnesKl3EBoIRXQQtDpHmmwygDd6gd27d0dERCgJp9BtLnpzwjXm1cAtp5rbqEVmrko40DXKz2/xHUj0NhgMhLzBYAgODi4rK/PMtNlKeE9PD20ChNfX1yclJSUmJm7bto2I5hhzJ2zUwiZ0+SoAG5xzP7cJfu6ETVXc4CSDTJ4OCLXmioQ3BXZqSR5ucIABreDhRSXzqCWwBYOQhkFx+/Dhw9QjrF+/Pjg4WBiE9xu9Od7mwjgnWWmr8qzq1KAa/PuaFyDHMiQkZOnSpR7CCU8dDCIcMXzr1q27JRHSlhiqoR6g8tWRHZBHSbXg4akEegpOO2xaBcUBDRkIbGUY54Rzm8I7dyLaYwmeUcsbw48l9QIC7cIogBqXlJQgAgNyHro1ore5oE20K5HmHlWSBSenF7bq0ldTHsJ1wFh1E13S1/RAOEZ6iYmJW7du3SUJnKsud+3apeoXnCBZcBLkZBDw/RoEMzewFnkE7AW/soMA5KpzhJz/fm3V2UFOOO8RgC7vEeAxlyDMmDEDVBPhGmATwBoGJ1nVBsnAVaCaV1Fmrgo21WoC3vsMVoP0GFZfX9+QkJBly5Z5xuGqwFrj7JLU2dl55MiRxMTEsWPHbtmyZackcE5LOHfu3EkeVUNosHv37n67g34boI8g/tE1CE6qVRoEORINXuS2atdATmXXoPSo9gIEtrIroSrBQEs4YcfExFCKDtQ1lhpg090soFSVbXp4gyrYAt7mwIZfG2yqNcgiwh+gLB0E2m+Jr452dnYePnwYhG/evLlWEiGtYQBy1QbEP2eex3NqwJ1ko9ZcB6G9rjnIuR9sw6O0lX0BeEZ7YdLBQtR5M2VfwHkWajdv3hwSEgLCOb0EOXcStNxJtkAvNYZBSBO35CGDqswNvIlbX+kB6cjAuZNsmev7/319fUNDQ8vLy//2t7/Z75x3qi077mrZ4cOHx0ratGnTjh07ADktVRneuXNnbW0tB3jXrl3UkncTBCTVwiA/DO1aaky9ADcoESCD1yptsMpHCmjDewHiX5gOID9PAQSb88x7BMFvrgjI9+7du2/fvtLS0uDgYJPJhHE1gS0YFJ8FbnmRQIUhAM+vZhPJfBVywiBWuSFk5sCXNyD7PtmyRYR7snRrEnKNdRDDx0rauHHjjr4izpXG448/fkDSwb4SnDRd3LdVb4nfgmaullbnBp9zFu5FRxXdMSK0pFry0x2mZAj3q9bJolvQZIf6/3om9RaKb7yzNURzyZIlCQkJo6WHc4w2o3hJcXFxMJTLOMsUq6kYSdHR0TDMLaMlRUVFBQYGmiNchrrP/weR8B77Cw/NOXTo0NixYxMSEjZu3Lhd1g6m7du3o1RbW7tjx47t27fX1tZ+73vfa2xsbGhoaNTU27J4K9nXz/931ETrqFXq4zvNRFtkPgeZ77zzzs9//vM3mb6nEKvUMr/rWH3zm9/Mzc0VsnQA7SOpD9xSAYQvX76cfqvU/qf/IL/CEAe8fnd3d0dHx8GDB0H4hg0btkna3p9qa2t/9atfXbly5fr169c0dV0WbyX7XOD/jcHTtWvXzp0719TU1GxeTZqi9TRbDaCSNqhhNDU1ffDBB1VVVX5+fiCZhuXm8EZfEBoaumLFCg/heoIPwg8cOJAgacOGDVslSZiLC1Rt3bp127ZtO3bs+PWvfw3C7YEp7w6uXbvGX+LGjRvoVsh5w56iVyEDO3D9+vUbN258LIt24eOPP4Yt11j5/8aNG1evXm22TU2SbNtGn7WxQXNLavrhhx9WVlYajUYeq318fHhRsBHDPYTriTdubuvs7MTXjxMSEtavX08YqxpbtmyBf/v27b/+9a+vXr0q4EcY6Gtw4JVbvsGkrOUe1nBwzI8t1o0bNy5duqQdwIkoZzM+/PDDqqoqTLyBZG28fXx8fH19w8LCQHh3d7fOJ7pTbs5BWfrnj0zHz+UkJCTU1NQA4G3ben/mXikifNu2bY4knFNKNmFPHm44mGC8NL0oQKYiGRYD3psItLa2ujrhQqBWLVLqHhYWVlFRgevhTomkzjs1CISvW7dui6a2bt2KemcgnPNM9uBiT7sBpKlIBqHODVXsr1+/fv78eZcmnIbfqmBTbPfx8fH29jYYDOHh4StXrsTVMp1hcsrNOYJw3LW6b9++hISEMWPG1NTUbFaII0+Eb9269Ve/+hWydG2o6OQeLIN2jw8oOGDOaWMQ7rqEV1ZWahOOvN1blq+vr4dw/TsiEP7444+PkbRu3bpNfaXg/Z5jy5Yt//Vf/3VVFqfInD1YhKu+Lu2kaq05p536AtWXu3Lliovi3dzcjJk2DcIRt729vZGiYxweHh5eUVHhmUvXk3NcD9+7dy8IX7t2bV/AN3HCeZVAuEz6vf/EDzdUz2NXdNqJc5qixzHBINxFIdcgnJAWDF9f34iICGTpep7iTrwtu2fpuNGts7Nzz549oyWtWbNmw4YNGxXatGmT4Nu8efN//ud/AmiOMdkC80I+T83IcAbUaWe4QVfmKMm3H+G0ZRqEuyvhyM055CB81apVnhiuZ6eE6+G7d+8eM2bM6NGjV69evYFJoBo1Gzdu3LBhw6ZNm7QJ55CQrdEjUBsCyRmYV+6Dud0jOHUx6F4XdyKc86y0ifBPP/1Uz1Pcibdl9xiO6+EdHR27d+9GDK+url5vmTZu3GgF4RxjVVuI/NRGSdpgecwRbuGu9ss/bqS5evUq2HYPwpU8Cx5vb28QXllZ6SFcz04JMXzXrl1EeI0kJeYU2lFlBeFEL8EwIMNV4r/qm6L+SJtw4H39+vWLFy82yWp2QQnjcPCszMy539fXNzIy0kO4nnj39PTgeek7d+5Ell5dXa1KOJw1NTXr16+HvWHDhl/+8pcWUqd60uvoJH5Ub5LntYNlq75Z7AxNsAF+OD/66CMX5Pr+LhPhQqw2V8T18MjIyKqqKs84XE/IzRFOSCuNddLv8q1fv37QCe939k7J1WARrvq6wu5Rm2vXrt1nxTUtKwhHDPcQrifeGIe3t7fX1tbiG8hVVVXrmDje5CbnL37xCyeJ4QIqNBxQ7h5R5IQG3sX169cvX77sosNv6o5AuMFg4Fe8VQO4fMNL7zg8MjKyurraE8P1hLyrq6u9vX3Hjh0gvLKycq0FQhj/xS9+cUWSANi1a9c0GOONeRBWTbB5Y/vZdD1s0LHHe3Td29GVhKtSzZ0ewvXkWbktIjxe0qpVq1avXr2mP61du3bdunVEODjnS44uAW8/RG3csvOEerwR170dfUCEe3t7e3l5eQhXUqmnp7u7u729ffv27SB85cqV1dXVq/uKPAT+6tWr165d+x//8R+gWojYgvPKlStCAyraSKa+q9NeCQa9igMiPHrDc+fOESoualCWzsM1bELaSxIVjUZjVFRUdXW152qZHQmvqKggnoF5tay+1N8nnPMgsC1U8SJsgmdw47yQcfC9oh3TbmPuIvlAO4Vr165dunSpubnZbcbhqoSDbR7Avb29jUZjdHT0g0X4LTuL7njZtm0bntUHwmWo7/1fvXq14Kmurl6zZg1iuJJbvTxEl4Cc8xeVYFvYBVy7dq2lpaVJkotGb+y2uRiOiC2wDScIX7NmzWeffWbnE99ZNj/E3jtCc+lbt24F4StWrKiSVF1dDUMoAvWqqioiXCMJHxDqfBivmgs4Odiqb5b2+bokFGGrLq9du/bRRx+5JeGUjZszPITbhXeMwznhlZKqZAFpAI8qLKurq3/+85+roqh6rlviRGfBt6nEnntom9ecVbSHZKjuKdF+5coVPHrRzbJ0c1Rzv4dwuxDe09PT2dm5efNmxPDly5cD4MrKSpnx3v/khFFVVWUPwgkD2w0BJNqg4HeeIsb5GIS7dH6uzNI5xho2Ef7pp5/a5Vx3vo3aPUu/detWT09PR0cHEV5eXr5KFmDGUvatIicIv3z5sl5ZOkFohcEDO08BNDblDGzT7tGMQ0tLC6bZ3CCGr1q1Cne8aFBNVV5eXr6+vjExMWvXrvWMw/Xsi0D4pk2bYmNj4+Lili1btnLlSuJ51apVKyXBw6uqqqp+9rOfOQnhhAoMJfCEPYHNVyHnIBrYH/cYhOMZL6tWraIHuRDJqgam1o1Go4dwPdnGtkD4xo0bifAKMwLqtKysrPzZz3526dIlQE4IcXKc2aZeoN/LYI7B/urVq5cvX3aDK+GUpfdLOF0z8xCuP9i0RRC+YcMGgfAVfaWkftWqVT/96U8Fwi/LIn64wYF3htye9od2kjyWGPqSf/XqVbcZhFsYwwXCkaWvW7fOk6UTnjoYSsKXL1++YsUKJdIc+YqKipUrV/70pz/lAZw4sdywBCTnaUNIY5eoqItx9epVXAl3g2k2SwgX8Pby8jIajbGxsR7CdaCabwKEr1+/HjF86dKlnGSyCXjyqBJ+9epVJd5yXO+dkyM55wBeuzehnadmurCNjVy5csXVvxPO+6YPP/xQI0tX4u0hnFOppw3Ca2pq8MOypaWlyyWBZCXYAuGXLl2i8946g/iHQRtBZ0FdBkHlbAbfYdo3QEtF7aE+mrnTINxcDAfYoyQpIff19Y2Nja2pqfFk6XYhPCYmJjY2trS0tFwSODe3RBqPcTid4jYaAuFCUXXjHCEXsoXIjz1vbW3lMdDVbWUMVyIteJClewjXE2+6Hr5u3ToQXlJSsmzZMkCuukQtxuo/+clPbByHq3LLnUKEF17OhahW3VUe6t3gG6O8VxIIF2BWLRqNxri4OA/hdiF87dq1MZKWLFlSXl4OjJepiWqXL19OhFsSbzm3etlK/i9fvgyWhLl65SuqIjdYTrpZlUPi0jYRTjCPGjWKbFUDhG/YsMGTpesJOcbha9asUcbwpWoqKyuDu7y8HIQPFt5KaOER4ryA+mAxrP267nSdDB2TknBVqsk5atQoD+F6gk3b6unpaW9vX7NmTXR0dExMzJIlS9S4XkrhnGo54eZgG0S/wDlFe9Vd0sbPAbUXLlxw9dtUhYyDCNcO3agdJclDOFGpp4Hvlq1evTpaUnFxcZmaCGwyysvLf/zjH+OOF+KHDA6SqpM3GBTbir2yE+rul6JjLn3lypV4ThMFasEgvEdKMhqN8fHxnixdT7zp++EgPCYmhhNeqqaysrLS0tKysrJly5b95Cc/uSSJaFE1BgVg615Uuf88yadt6oU6Nn758mUhALpB8cMPP9QmfNSoUSNHjkT0hg3CN27c6BmH6wY5EV5dXY0svaioiLjmsZycZCxduvTHP/7xxYsXAbnboy6k/brQjo24wZNVlV2SBuGg2svLi/CG4SFcN7D5hnp6etra2qqqqqKiomJiYjjhBHOJQqWlpUuXLv33f//3ixcvKuMePJx8l+OfvymCmZzk4RHeusB+5cqV8+fPu8GD2QTI+yUcmTmH3EM4B1M3GzNtFMMLCwtLS0uJaG6XlJTwYllZ2Y9+9CNz43CCYaAGh8dpbdU3pbq32thfuXLFzW5lI85VCQfPSrYpho8ePdqTpevGNjaEq2WVlZVRUVHR0dEFBQVLJJWUlMDgS5APT2lpqT0IV4XHXIasCpUzOPEuVPeEM3/lyhU3u5WtWZZAOI/V5myj0fjAEX7bzgLkHR0dq1atAuGLFy8uNq8lS5ZQZUlJif0IpwzfHPCCX5Ulp3LSDgt75X7XycC4KuF8ak3JOQjftGnTzZs37XziO8vmhzhgR27dusUJz8/PB8NFRUVkFMkqLi6GWVxcvGTJkh/96EeYaaPT196GMJ7XHiMILKaaRhMAACAASURBVDlh8fLly/RQlyZJcgh0+f+4Hu7t7a0kWdUzcuRID+F24R2Er1y5EjE8Pz9fxln8X1hYWFBQUCipqKhoUAgXehABeKFWteg8nF++fJl+/AB4u9NNL9YRPmbMGE8M15lzEF5RUREZGRkdHZ2XlweGiWSAzp2FhYWI8D/84Q815tJVAdPXqRrDzWX4zsM2JtguX76M5y66fLxWewPI0pWXxJQBHBNviOEJCQmbN2/2ZOl6Qs4Jj4qKys3NpUAtUM2LIBxZur7Q2mNr5pjXeC17dwd4aXyfzJ1CN8HuIdwSSh03Dl+xYkVkZCQIB8kFZoRaHsOJHytyZg3G7F01oN3WHXhK0d3vSjgg//DDDysqKjRiOIVuMoxGoyeGW9IvDKwNrocvX748IiKCYjjoXqwmVCFR/8EPfnBREtEiFF2IeXoLSoP6Gr04x8U/t7yVjcdwD+H9ouiIGK5BOI/iStgLCwv/7d/+rbW1FVTzpQAJEeJChvZb4KjTm+JOS2xcJ3PLFJ2+eeKJ4dqQO4JwjMPLy8sRw7Ozs/P7Ssn24sWL8/PzCwsLf/CDH4BwgQfrioSKixpENd9/cnIDDSjcuaVB43DhGjhy8hEjRlByTgay9C1btnhm2rT7hYHVIoaD8MjIyEWLFuX1VV/e75Xy8vIKCgpA+IB45qFeNaXH1jgkTm7T21fdTw42bDS7ePGiW4JNb0qVcIJZ1fAQPjB0LWwNwpctWxYREaFBOKjPlQS7oKAAWTqd4tYZSuaF76ths6r8uK7TXW9l0yBclWru9BBuIbMDa4YsfenSpSB84cKFwDg3N5fHcnKSkZ+fb0UMt64XMLcWJ1y4Ni4UecvBsuld4Nsm7joCB+Q8hgNj1cycCB8xYoTRaBw7duzWrVs9WfrAGNZufevWrfb29rKyMiXhgDmnrzjhusRwOu+1jYtqIlZV16Va5zGwn5hFd3vCMZc+cuRIbbaJfw/h2qhaWQvCS0tLMdOWlZXFic7Nzc3JycnOzlY68/LyHEk4Z1gN9l4fb8NtZyPczR6cTJk5N+h6uCV4oxfwEG4lw9qrYRwOwiMjI7OysrKZFi1axEp9TMcTTmBzelVttORVTgU5fr3oQYjho0aN8hCuAaAjrpaB8JKSkvDwcCJ8kaQ+QLMCsM/NzR2sGM7RtdrmMV/JPzar9NvuwSy6e+ON6+EVFRV4ABsNts0ZIyQhhm/bts0zDtfoFAZcBcKXLFkCwufPn094w6AiGKeonpub+6//+q+tra1WMzboKypDPe2S7SSrbuHSpUt0o4t7Q44sXZtwgD1ixIjhw4fTTJuH8AEzrL0CntO2ZMmSsLCwiIiIefPmLZTE8Saqs7OzyZ+Tk+PShPMYTmCTwUcEqqxa4cTG8YVwPmR1S9tCwodLAuRGozExMdFDuDawA65FDC8uLg4PD4+IiJg/f/7ChQuBMVBXFuHPzs7+/ve/z+9aJTxgKBFSeoRVnK1oLshzvGmfuVPVvnTpUmtr67lz59wSaeFN9Us4BXAy/Pz8EhMTt2/f7snSB4yxxgpEuBDDKZIT54IBwltaWi5evMg5p+hnziAkXM6gd9TvnisJx/V5N/5CuIWEE89Kw0O4BqfWV4HwoqIiEJ6ZmblgwYKsrKyFCxdmKcQh54TTqS8YrZIEp8tF8n55xhsUmgFywYlZdAEGtyyqxnBQTZm5ALmHcOsx1liTCA8NDY2IiMjMzJwvaQHT/PnzWemeuWjRon/5l39BDFcyrOoB8MKSWnIYyOnq3QF/I25/LzrvqohwXC0TYFYt+vn5JSUlPVhZOp6Far/l7du3QXhBQQHF8CxZCxYsAO3CEohnZWUNlHDhdEeRgFetFZy8F3At++LFiy0tLe49f26OcFWelU5OuP3Oeafast2vh9+5cwf3tBUUFISGhoaHh8+dO1eVZ4rh8+fPnzdv3vz58/UiXGDYHPY01L906RKt4kKQX7x48QGZRQfnPIYrYVb1cMI1sk53qrI74bdv3wbhixcvVhI+TxYxD7YB+YIFC3SJ4YSrhsHjvGsRzt+Uuz6wiYdusjnhuNytSjV3Go3GBy5Lv2N/ccIjIiIyMjJkru/953jDlZmZOW/ePEcSzjkxZ6MXUB2381UGJew/aCk67mlbsWLFyJEjLcQbd7wkJSXt2LHj5s2b9j/xneIVhjhgL0B4fn4+Ynh6enpmXxHw3O2EhHOMLbEdgzp6nActRR8Q4cNlIUv3EK4z9bdv325vb8/LywsJCQkPD58zZ85chTIzMwUfpty/973vtbS08LTZErQc1oZye27QqzuG8MuXL+N+gSZJlMS6vfHhhx9aGMNlwIcjS/cQrjPhiOEC4QjXnGoK4OScN28eCKc5MILHmQ1OO9mW7LB1PQK27PZPdFF2WEQ4H2kLNtgeJstDuM5sY3MgPDc318IYTqjPmzfvzTffbGlpcS3CVWEm1MlQbUZOy2nHKg/ULDpo75dwwptiOLL02tpazzhcN9Rx4aG9vT0nJ4cIz+grBO2MjAyK3jCIcGShYIMYcFGDCFc1hDdlCec4OA/ULHq/hBPSguHn55ecnOwhXDe8saHbt293dHRkZ2cHBwdjHJ6eng7G05mIevgyMjIyMzPffPPNCxcuEAwAwD1QF2AWisJbRq0SeEyzXbhwASf9A7VUjeEUt4cNGybgPXz4cH9//6SkJA/h+hPe3t4OwsPCwmbPnk0ME9VkpKenz5GUnp4+d+7c7373uyC8RVJraysZxADP4VWdAjyuW+Tvjr/rBzBF53PpNPbmSCsJHzZsmIdwndnG5jAOX7RoUXBwcFhY2MyZM+fMmcOC9z0zIyMDFgifM2dORkYGJ5yf3+CcllTluvRased41wjgD87NqpSnCDGcojfnnNsewu2CN+5abWtrA+GhoaEgnCAnnmHMnj2bPBqEE9KCQcxjfk6o5UUriHLOVdz410UJZlVDSfgwWRxssj2E24twXA9fuHBhcHCwknBKy2crxAnncA7U5tjDNrcF52TY3F7hXZw7d+4BDOA8SyeGtQ0Qnpyc7LkerjPqAuEzZsyYNWuWAufZs5hQm56e/p3vfIfPtJkj0zq/QLtq2DdH16D78ZYfkEeyacTwESNGIHJr4z18+HAQnpKS4plp05nwW7dutbW1ZWVlYRw+ffp0xvKsmbLIOXt2L+1I13UkXAmwMrYr26j2HU6Cd2trKz0X/QEM48jSQTjwVs6uceyHDRvm5+eXkpKyc+dOz/VwPSHHTNuCBQuCgoLCwsIQw4lnMmTS7/+fM2eOjoSrsmqdc9AJpxsEHsDL4BTPiXCOsaqNID906FBcD9+1a5eHcP0Jnz9/PgifPn36jBkz7nMsW7Nm9YnnM2bMmD17tlMRTjGf+oXBQh2XyihFp5P+gTIsJBx4Dxs2zEO4nlTzbSGGE+HTpk1TEj6DaebMmSg5G+EENhnEvLn03q5dAC6DP4D5OToySwgnvGF4YjgHUzcbhM+bNy8oKCg0NDQtLQ1hnEHdx5wua9asWYjh5vgh0lzI0Gae3oh2M36nqodw1cwcU2uqhHvG4bqxjQ2pEk6Qyzj3pu6CZs6c+Z3vfAdxkk59FzUo2tP+c4ZVnbyB0qYU3UO4knABbCr6+/snJyd7CNef8La2tnnz5gUGBoaGhk6dOhVUE88EOTeQybsN4cQwoc4NqiVDiTT3tLa20p2qHsI54QSzquEhXGe279y5g2ettrW1ZWZmKgkH0tPUNH36dMTwCxcuuFOWTgxzg9MOm9eSTZDjZw/wyAcP4UrChw4dqkE45tJv376t/+nufFt03FOc5s6dC8LT0tKmTZvGw7Ua4L2+mTNnfutb3zp//jx94UQggU597ien+xnU09Fl8OYHWDTThsvgqkgLTlwP37VrV1tbm4dwfbojetZqRkaGQDiBPVUSFcmYMWMGCEcYB8YXmDjYSttdCafvij4gv09mrhPjhAskmysS4fx3y/Q50Z11K0Pu2llI1Nvb2zMyMkwmU0hISFpa2tSpU6dNmyaAjeLUqVPRAMP1b37zm+fPn1fSK3gY9fdM3sBtUMebOn/+PE76B+3BbALqnPChksyBjVpcD09JSdklxXBC8q5byxFZOu5LT09PB+GTJ08GxmmyiG1iHg2mTZumjOEcXW2bsKdmA0WdsuKBrmin9ngjbvDLZHzu4OzZs8KdeTS/oGoQ53he+vDhwwlgc8NvaoDr4bt3725ra7sri1C3wrAl1affXcDr3r59++7du1bsg/Yqdo/hd+/eBeFz5swhwmW0e/8LtKNqypQpGK6DcELUkYadKLVls3j7dIq7tEFgn5WlyrOG84MPPli+fDnuSyeGtcO4v7//+PHjd0l3rcqA3/+vjYqNtcQzGdgg+giwDcjv75Ae1iAQnpqaSoRPkYQiRx2ET5061cIsvWXguiBLdVWa27MFSN3XbWlpcY85NnD7xz/+8d133/3v//7vX1ulX/7yl5WVlbGSYixQdHR0YmJienr6jh073nvvvQ+t1Qdq4htTq1f3vf/+++fOnfvrX//a1dWF8aweUPfZxuAQTmCD5LS0NHgmS4I9ZcoUuxKuCra2U3dirdigS38bHMl5U1PTn/70p1/96lcvvPDCunXr8vLyFi9eXFpaWjZw5efnL7RYWVlZixYtys7OXrx48TJJ5ZKWLVsGQ1iiDV+Wl5fzIlYsLS3Ny8ubrdAsWaiRS33+z549u7CwsLa29jvf+U5zczPP+e/qJMcRPnv2bJPJFBwcnJqaKpDM8Z48eTI1SEtLs18Mb7FMcqTv859WbWVSdbJ6HUxXf2AT8vH33nvvpZdeWrx4cUpKSllZ2e7duw8ePHiEqa6v6uvr6+rqsIRRr9BRWaiRS/f+k/MJhY4xPcl0/PhxVuo1j0t68sknsQZqjx8/Xl9fjyeFhzKFSAqWBDskJARFWgYFBQUHBwcFBQUGBsbHx69cufKHP/whJgju3LlzVyc5iPC2trZZs2ZhHD5p0iQQjmWqQlTrDIS3mNcFJvOtxBpbQKf72JpdU01NTY2NjfX19bGxsfPnzz969OiJEyeOHTt2vK9OyHqKSfadYL575tNMVMt898xn+urZZ5+F41lJz5nR8331D5Lge+6555599tmnnnoqIyMjJCSEAR5KVJNBYMMgvGEEBgYajcbJkye/+OKLn376qUsSPnPmTIHwKZImT548adIkBea9DicnXGTXsrIthLv0BfCmpqbTp08fPXo0Li6usrLy+PHjxDbFw76k95ZArAbehDQ3lHhzD8AmDwcftPOlAP7zzz9PHnD+1FNPpaWlAW/wHBp6j3AylJwHqcnX13fq1KmvvvrqzZs37+okB8Xwjo6OmTNnBgQEBAcHT5w40Vz0FjifMmXKoGfpLXaT5ajjoh3d6OJa8bupqens2bNNTU1//OMfX3/99WnTpq1YseIJScdkgfBjx47B4Ckx2cdl8e6AyNc2OPzcfvrpp7HVp5566umnn0YVyCfseZGTT/axY8fGjBljeQBH0KaQjiw9UFZAQEB2dvZvf/vb7u7uO7Lu2iAHEd7e3j5jxgwQPmHChElmlJqayuO5uxJ+QVKLpoh/tGptbXXRAN4k66233qqoqMjJyTly5AjGx+BcWIJzmf37/5+UBZdcuvf/uHnxPkLoCHbv3r18+fLq6upDhw6hivMv2BTzn376ac7/vn37IiMjNQgHzBSzOdtwynT3/jeZTGFhYXv37v3kk0/oCvldGzQ4hE9U06RJkyZOnIgl6lNTU//5n//5/PnzF6Qvn7S4ry70lfBGW1tbXTSAN0tCGP/GN74xc+bMbdu21UmqZwLw5pbKLoA89zsANQv089QAnuOSDh8+vGjRogULFmRmZi5duvSJJ56AX7kU+gVO/okTJzZs2BAREaGakAuzawQ54jYVA/vK398/MzPzvffe0+X6mYMI7+jooBg+fvx4NcDv+ybISk1N/cY3vgHC+yLQp9TivsL7bGlpcfU5trNnz+7evXvevHkHDhwA4UrOaZ4cBgFPXQF5lAYxr2ocO3aM+8H8nj170tPT58+fn5eXl5+ff+TIEfBvbknknzhxguynnnpq6dKlSrxDJAVL4mk5p5psIVE3mUxRUVFvvvnmHVl3bZCDCG9vb58+fTqy9HHjxgHhiRMnyiz3+U+sqxJ+numCQi3uJXp/zc3NuAms2dWEAP6HP/yhqqqqpKTk8OHDhw4dwqUxjnpdXR056cLYkSNHhDYaV86U2HNPfX09Lz7xxBNHjhwpLCycO3fuokWLqqurqQugYQJdGEN+8KSaTpw4kZOTExwcDKQ52LgSRngTz4GBgdzuG78DAwICTCZTYGDgF7/4xTuSbKC7d1XHET5t2jR/f/+goCAivA/WrGAh4RcslqtT7+q/anL27Nn33nuvuLh42bJlhw4dAuQwDjORB6ijBjZfcubRBSDIcz/ZqDp69CgRTp6jR4/u379/3bp1W7duxdQAID969OgTTzwhdAc8CwDwtJw9ezZitcaSI022ELoxCMfSZDLt27fv1q1btkPuUML9/PwCAwPHjRs3XhbjeoIypE+aNMmSLJ2TzgL8fdPVCcd9bE1NTc2uqaampvfee6+goKC8vPzgwYMHDhw4KOmQmg4ePMiov29y/u97Dx8m+FV7BEJdaQD1+vp6yhTIozQE4KkXqK+vT0lJMce2ADMVA83IJAlhfM+ePbdu3bL9TnXHET516lQQnpKSwsGGPX78+AkTJgB8qgXhH330EWfYfrYTdgQXLlw4f/48ZtFdnXDcK3pAIQn2+wvUo3zo0CFzxsGDB9X6h94EATkCjMNSFwCb+gJzhmovQE4l9hhZREZGqhKO/BxUa2fm4B14m0wmgfA7tt3f5lDCeZYOmGk5gYmcEydO/Kd/+ic7EU4hXrvLGFzsL1y4QHNsbkB4eXn5fgsEyPfv33/gwAE0hwE/pQCAX1hSLecfbWpqavgt6MuXL1/RVxUVFSslVVVV7dq168iRI9RNoKegrgFsHz58eM+ePUFBQSEhITTeBu0ENmdbmZZTLAfeAbJMJtOuXbt6enrom2d3rZUjCMezVtPS0vz9/YODg1NSUsDwOIWIbRh2JZzA1kZ9sAjHBcILFy7QZXCXJvzdd9/Nz89funTp4321TxJ8sPfv3w9j3759+2UR6rJD/E/wo1+gIozDhw/v2rUrKysLjx6ZLgmP+sTvcMyWNEf+0eu5c+dWVFQIaQKnHcDX1dVVVlbi2xZAmoI5wUyZOXlM0kQasU0Db5nu3pk2k8m0c+fOnp4eGwO4Q2faQHhQUFBKSsq4/oQ2EyZM+PrXv/7RRx/1e8GMcNXRIPJh0JY58+S00xV7epxLsysL4/Dc3NzS0tI9kvYy9UW+T2nfvn1UJuxhCJ0C9Qv7ZQkdxN69e6urqwslFUkqZloiqURSaWnp0qVLt2zZQukAUgCeFMA+cuTIokWLAiVxkgGz0iOR2ztPToKHL4nz2tpaxPC7tskRMRxPgCDCk5OTU5gI9vHjx5PtDIRzegdkt+ghvCIF8GZXVlNT07vvvssJlzDvZ7F3717eYq8sYv7xxx+H7/HHHyfsYVCRqtBZ7N27l69O3QQZtDo6CiEXIObhP3ToUGpqKl0VUyJNcZuQpogNqsEztwMCAvz9/QMCAnbs2OF6hPv5+QUFBSUnJ3OSU/oK/GM5fvz4QYzhYMzypRDqbYzqeN0mSa5Md+++g/CcnJySkpLdatolS6jkhAs22CanjL/Z/2BYIJx4VjWQFwB11eXevXvHjh3LZ9QoemP4zcGGDZgxnYYZNe7xlxUQELB9+3aXIRy/LkwxPCkpiaAm1MeNG0dO4I3huv1m2oCQXZeqeX6LLNWXlit7/2OOzXWH39QxgfDs7OwlS5bslFRbWwvD3FJGXvwvdAG7du0SPLzI+SebjL0KUS9AHQGawM+X6BG2b98eFRUVEhJCJAcxIVxTFRmENBmUmcNADN+2bRuuh9+1TY7I0vlMW1BQUFJSEoFNVKekpCQzwT9+/HiXJpwzLNBuycwC2HYPwk+fPg3CayUBbNi03LlzZ21t7Y4dO/rln/oFsQNQlDnwShu0w0/k79mzh7MPP/cQ/+vXrzcpps0oM+dVBLNgCGzzomsTzli+Z/LAnpSURFm62xDOaSdbmdhTFT1Q1W0IX7RoUXFx8fbt23fs2IHlDjVpVFFfQAahrmHs2rWLahU9QG8KIDipIwDbWCp7gccff7ykpMTf3181IQfJwqgbTo4xbARt8qO4detWF4vhU6dOxeFITEwUCE9iSk5OBuEYrmMcTue9SxuWxG3c4uIeU+jNTKdPn164cGFRUdG2bdu2b9++bdu2rVu3bpOEImzUbpfFewAl+cS50kAioPTDQ8DD4IQLHs4/kU8GHhBOQTtIUmBfgWphSTDTvJo8AO/97+fn5+/vv3nzZhcmPCkpKVEhhnlvDEdUdyfCLeyeENgxQdXsLjp9+nRWVlZhYeGWLVu2bt1Ky82bN2/ZsgXLLbK2ypIdvf9lXz//qafghtxj3P+ProT3IP3atUzoQRITEylKc2jJBrcgVmDYr6+EWn9//02bNrkM4bhaNm3atICAgKCgoLFjxwLmxMRETrXSmZKS8rWvfW2wrodbCKS+zYC3q9+IzvsljDJOnz69YMGCgoICsLp58+atW7fu3bv3a1/72rckffvb34bR75K3/LbF+o6k7373uzC0l8pm31XoW9/61u7duykBud95SBkK71/QJ5FH6KK2bNmyePHioKAgf39/o9FIMXzjxo2uRHhHRwe+PRoYGJiQkJCYmDhWkgA54jqqxo4dm5yc/KARjv4CAdwNRuCUiZw+fXr+/PkFBQUI15s2bdq8efPRo0ebmppu3Lhx/fr1GzdufKzQDYXQhNwff/wx2TB4A9oeVfFX4fafJX388ccw+JI2wo0///nP165dwz3FHymEbrrfJdZrbm7+6le/GhYWhqCuP+F/t7/u3LlDT4AwmUwJCQnEMDc43rA54TheNEy1cEyrb4B1zNboRvRmdxGewTh//vzFixdv2rRpo6RNmzbV19f/6U9/uibpKhM8fHn9+nVetJ993WJdunSJOmJb+uIzZ858+ctfJsKJ8w0bNty6devu3bs2AjrExvUtWZ0IN0kaM2YMgU2DcXgS+iopKYliOPWIjsFssF7lo48+co/72HjvBMLnzZuXl5e3fv36DbLq6uo44arcXr16VfATg9xPTlsMvkGysUFkAbS8fv36xYsXbQGbjo9AuFGSv7//+vXrXZhwgKxKNWc8KSnpH//xH8+dO0d5EHHerzFYiFr3uvR23C+AI9CdPn06MzMzNze3pqZmw4YN6yUdOXIEhF+/fp2FcBFpgs12Q4N/bFzZgPv5DrS0tOhC+NmzZymGA2+Mxmtqanp6elwmhre3t+N56YGBgWPGjCHCYYxRU0JCAsVwTLYRBpYb1vHm+LXoDbr0jxZRXBIMxPC5c+eC8JqamnWSDh8+DMKVgZqzpJetpNc6z7Vr165evapXX3zmzJlXXnklNDTUz8+PE75u3TrXIzxQeljs6NGjeaAmurkzISFhzJgxiYmJyizdcryVLR2ProWviGkFustFIMSli02S3nnnnYyMjNzcXLBNhP/xj3+8evXqlStXHAM57ywIb3KSR9u4du3alStX9BpMuQnhHR0ds2bNUiVcABtsI84nJiYiS1eyaqGH0nsYfC0L2XNMM+yY2xOenZ29Zs2atWvXYnnw4EFVwnnGTjZxaJ2B7aiuq82zsvbatWuYZtOl5yXCjUajr68vwrifn9+aNWsQw21M1B0009be3s4JH60QRXLK4TEhZyPhHGmrbQdAfv78ebf5nonyvG9qanr77bfT09PxVNPVktasWXPgwIEPP/yQYvgVWUQ1N1ThtMKpRJ1eRXVrnPBr165hVl+vabbm5mZzhK9evdrFsnT89qjJZIqPj1cAruKIj49PSEh44403MNNmNZ/WrUjBn68O1O1xoQ4PY9Nl5qbZ+QTC58yZA8KrqqpWr15dXV29f/9+HsOJNFUD+AtVqkxa7eQbp42oDh/0mmbTIPzz4+N6hCNLj4uLi5cErGErlxiuDxbhBDahTnm+Pa7J40Z0dyW8ubn57bffnj17dlZWVmVlZZWsffv28RjOAVPaGKuTX4739/6TnwxC1GoDm8Lq4ByeK1eu6JhwIYaHhITQNJvRaPTz86uqqnI9woOCgkwmU1xcHA/ZSrbhcRLCgTrhjXSapr6pI1A1LE/v9ZqYdb743fv4BxA+a9YsEF4pa0CEE10wLFlazTZl48IWaB8wzaZLj+w+hM+ZM4diuCWE8yxdlR+ncvJQr7FjnHnK9jHBpsvp4oSENzf3Qv7OO+/MnDlzwYIFK5n27t2LGH758mUhJgsR2xKeNdqoZvjK9gLPyiJW0XGajbJ0xHDMtBkMBj8/v8rKSheL4ZzweHkobi6Aw0/jcA1mnKeKQ85jvrCHBDkIR1LgnGTqtVcYh8+YMWPBggUV8hOLV65cuWfPHsrSlYSTR4niQD1EOBnmtqCkmnuQq7e2turYHVMM95VlMBiMRuOqVatcifCOjo709HTK0kG4ObwxUI+Li/v8Z5kxDhcgcZUiknkl+cQ//eABzhgdzxu94NRlOyB8+vTp8+fPX7FiRYWsPXv2fPDBB1euXLncV+CQfPrGc4Ft6kc4/LinBS2JcCrq+zuwnHCDweDr6wvCV65c2d3dbeOlsr///e+OuFp29+7d9vb2jIyMoKCggICA2NhYYjtOofj4eJqKGzNmjDNcLbNThwL+dRzR6UKjnTby9ttvT5s2LTMzczn7HYLdu3d/8MEHuFomkKYscuA5jQBP2d5O/cK1a9f0utcF9y+eOXPm5ZdfDg4OBttEeEVFhcsQfufOHYHwWDUR2MQ/CG9ubrYTY4O+WXzPpEmSndByks02NjaCvAZVEQAAIABJREFU8PLy8mXLlpVL2rlzp+WEE8OEujB6F4KzXkV6XRiXL1/W65AS4a+88kpwcLBBEhG+YsUK1yD87t27RHhwcHBAQEBMTIwa4Pd9FNdHjx79xhtvuDHhFMDdNT8HDE1NTY2NjVOnTp07d+4ySUsl1dbWvv/++xbGcCVp3APshYQfDfj2rcCev8qVK1d0HIRzwkNCQkC4wWDw8fHx9fVdvny5axD+97//HYTPnTs3JCQkICAgOjpagJyQvk+5ZMXHx7s34ZhndvsYzglfunRpWVkZCN+xY8f7778vINRvUQjdGu0Je2pjBeHCKhcuXNCrO1Yl3EeS6xHe0dFBhHO8Y2RxtmVfDAg/d+7coKfT9tgBugau1xmjV/Zoj+00NjampaVlZGSUSSotLS0rK9u+ffv777/Ps27BJjIdbKiGfeyDXoPw5uZmTjiydB8fH8rVy8vLXSmGc8Kjo6NVeY6NjQXbCPLR0dFxcXGvv/66WxJOI3CEcXtA5STbRP/V2Ng4ZcqUjIyM0tLSEkmlpaXbt2//wx/+cPny5UuSBLyFov0gpxeiJF94LYRx1OrYHZsjHFn6smXLXIzwzMzMkJAQf39/TjiFazhjYmKAN/zuSjiulhHbOp40TkI13w0ifPLkyenp6cC7uLi4pKRk27ZtRDhxDtotYZ7ItDxvF9BFkbbDCScnDLTEF070+rxUCUeWbjAYli5d6jKE42pZZmZmcHAwCKcoTYRzgyB3Y8J1TPY4Tk5rNzY2pqamzp49u1hSUVHRkiVLtm7dCsIFnCwvErG0Cnl0Ny5fvoxBuO6E42oZ8nMivKysrLu7+86dO3+3TY64Ho6Ztnnz5iGGR0VFEeHRsuBEiezY2NjXX3+9ubmZbhGxx3jYwdukAO60NOq7YxTDJ02aNGvWrEJZRUVFW7ZssYJw7SDPwdYX+8uXL9PUiS6HSIjhYJsILy0tdSXCOzo6NAiPkiTDHo1iVFRUbGzsa6+9RoSDDb50MJy6vBwfgetyojj5RkB4Q0PDxIkTQXhBQUFhYaHVhBO33CDsudNCm3cKGra+t6PzmbaXX345KCjI29ubIDcYDCUlJcjSbbytzUExvKOjY/78+bhaRiGaSKbQTR60USX8nCxV1LmTbF3ItH0j2B98FdzJsdR99xobGydMmECEA/JNmzbxGG4Lpdowq26ZYFauS1U0Mr98+fLFixdp6kSv49PU1IR72gIDA318fAhyg8GwZMkSF4vhRHhkZCRIjmTibJOtSjhxa4kBLIWWtrNq3RZoN/Q6P1xoOw0NDRMmTJg5c+ZiSfn5+QUFBRs3bvx//+//EX6XLl0CbEqPEkIdPfS6fJsEOTl1vBJOH5wbEu7v7x8REQG0iWQl8GgQExPz6quvamTpxIw5A/FeqLWOT9vXwm7oHgfodHFmo6GhYfz48TNnzszPz1+8eHFeXt7ixYs3btz4+9//nvN8URL3wOYz7YScjQa9CrZDRXpFYfv6DsLxYSkJ95bk4+NTXFzskjHc398/PDw8QhIL4b1mVFQUPFQLwpuamgREbS/SgxwsfJaD7XhjC/Y4S5wZbNo3ED59+vTc3Nw8Sfn5+Rs2bBAIFzC7dOnSxYsXEWOFKgE/7SKtq91MtRbrXrx4kS5/6DWXjr4eWXpQUBCydCK8qKjI9QgPDQ0F4SCZlkBauYyOjtaeabMFdXk4f/8/35qdugA6S+jUf0CMhoaGcePGTZs2LTc3NycnJ1fS+vXrf//731+URBD2a6A9yKfGPMjDqYqrdc5Lly61tLTY45PiMdzb29vLy4sILyws1Ifwu/YXftUoKyuLCI/oK6AeERERLgmV4eHhUVFRr732mj1iOIeZ7PusSxb5NYwBxfYHNoA3Nzc3NDSkpKRMmzYtR1J2dnZOTk5NTY0VhBPVhDoM8msYAyKcbwffCdcxeqO/AOEvvfSSyWTykqQk3EZAh9yxv/DrwgsWLAgLC+NZOg3ICWkQTml8VFTUq6++6jDCNUjmv6zEm1lOuFs+C93ysHbq1Knk5ORp06ZlS1q0aFFOTs66detsIZwTyG2BfB7tB0o4jRHOnz9vjy8IccLBNjj38fEpKCjo7u6+ffu2jYAOsbGHsGR13PGycOFCTjgwJqTDwsLIJgOE48oh58q1bCT8D2x+jtEmCE9LS1skKzs7e+3atRiHcwg5qw62Of/CS9vv4ztz5sxLL70UGBgIwpGrGwyGgoKCrq6uO3fuWIKYRptBIBwwU05OPIcpFBkZaeNcuiP7AorzPLDTDlge7tyy5alTp5KSktLS0hZKysrKWrhw4Zo1a/7v//4P02kagVeATa+i6isS5PxVWltb7fehgHCTyQTCEcMNBkNhYWFXV9ft27c16LWkyqGEh4eH+/v7h4WFEd4ENXEeHh6OLiAsLMy1CCeYyeAD+wfzIhmBcerUqcTExClTpmRlZS2QlJWVtXr1alXCW1tbgR/HzJE2h//SpUv2uBJOR8Yc4UVFRS5G+KJFi0B4aGgoga1tREREuFAMJ7AFw34JHp0lzm+cOnVq7NixkydPXrBgwXxZ1dXV5ghvlcRJU9qOYR7XyXSfY6OPjAhH9Pby8ho1ahSuh7tYlg7C/fz8QiUR2ygKS9R6CKfzwNWNU6dOJSQkpKamzpM1f/78qqoqVcKVMF+8eBHM86VqM3Lqxb89blblnyYIDwgI4IR7e3sXFxe7GOHZ2dnh4eF+fn4hISGqYZwgR4PQ0NDw8PCvfvWrzjCXLoTlARUf8PwcZzMInzx5cmZm5rx587AcEOGELkFOHlVDL8LtdCWcIFcl3MfHh+5Lt2SwrdHGceNwVcKJas58iCw3INyTouNUPnny5JgxYyZNmjR37txMSfPmzausrHzvvffMzbSpcsuDOW+gir0ukNv7MqdA+ChJLkY4rodzwnmKDptQpwDuHjHcQzhdLRs9ejQInyspMzPTOsI52Nq2KvYWXpnDli9duoRvcVPI1d0gwkeNGoVB+MiRI318fEpKSlxmpu327dsdHR05OTmUpctBuvc/sU0G1bp6DPfgDR6amppOnTo1evToiRMnZkgC5KtWrXrvvfcQlrVZ1asWzJvbGo/5aINnJ9tvmg2/W/bSSy8FBARIwbt3AcJLS0tdlfDg4GBimAgPCQkJlkW1YWFhLj0O172/d9ENNjU1nTx5Mj4+fuLEiXPmzElPT8/IyEhPT1+5cuW7775LhJsLueaAtNyvvWWq5QY2fuHChbNnz9r1sPMYPlKWwWAoKytzJcLb29vNxXBim8CmLiAsLOwrX/mKLd8eHdCUmL6N7XpauNzGT506FR8fP2HChNmzZ8+ZMwfLFStWvPvuu62trS0tLUq6+JBbtdZywq1oiVd0QBbGCUcYRwx3McI7Ojpyc3MjIiL8/PyCgoIIZlXDDQh3wJnhWpBTDJ/NJBAucE5Um0OdboyxAuB+V0G/44CDbI5wPGvVNe5pwzicE458PEiSnJv3+Q/yXTeG23t6xgFnnr4vcfLkybi4uPHjx8+SNXv27OXLl1OWTjwrjZa+Ehr0y6rVDfBtE32Pg3JrRPhIJh8fHyLcxlvTHXG1DITn5eUhhgcHB4NtVcK5MzQ01BWzdARwu07PKE8UJ/ecPHkyNjZ23LhxM2XNmjXLQsIFpLWLxDNvRk7LjdbWVsd821cgfIQkVyU8MjISWTqP10FBQUIRHiTzX/nKV1zujhdPii50N5hpi4uLS0lJmTFjxsyZM7EsLy+3JIZzVq2zLQebWra0tDjmcxQIHzly5IgRI3x8fPCbJ/jqqMYNLf1WDbltZ925cwcxPD8/H4QH9hUFbcFwXcKF89tTbG5uRpaekpIyffr0GZJmzpxZXl5++vRpjWG2FTz3zejFkuoGiWpu4JEPDvjszpw58+KLL/r7+7Mkvfd6OAi3nU4HPQGio6MDhBuNxr6A95YoaANyLAMDA0NCQlwuhmME7knRBTYw04bHvEyXNGPGjGXLlulOuCrDVjjPnz/vmNuNifARI0YA8hEjRhgMBvwyoQ5PgLDxCRKWrH7r1q329nZOOCeZeA4KCgoMDDRJQi/w+fPVv/zlLw8oS6cvaet76cvCrTkmrxPgcYniyZMnR48ejce8TJNVVlZ2+vRpzFqbm0i3Ak7bV0GK7phuGoT7+fkR3sjSly9fjuvhliCm0cYRMVxJOOI25xxIm0wmQI7i579z9sorr5w9e5Z/0doS20IgdW/mIdxcdwPCk5KSpjKVlZW98847ra2tFy5cEPNpuWw7rgPagvyydnnuourBoRiOEfgIST4+Pi5POEEOmAlsHsODg4MRwznVqoeJnNRSd3r73SDwdkzHT+/XVYxTp06NGTMGj3lJk1VaWgrCiauWlpYLTNxP9oCIHVBjegnHXCfDZycQPnz4cMTwFStW6POcNo34rlcVvnlCWToCdaB5UQNVwolhbihPdJ6u85Zk90vsQBt4RuDKT4E8J0+eTEhISExMTEtLmyIpLS2tpKTknXfeIa5sNAYEs7nGGCw4MhcjwkeMGAG8QXhFRYXLZOkgfPHixZGRkUajkQAONCNqYDnhxC03mhUyhz1+LXCgSPP2FMCbmpoUL+txNOP74XjMy2RJU6ZMWbJkiRWEsxh/30TvQEN6obMwx7PSjyTCkR8YjcOHS6IsvaKiwsViuOMJJ9pVPzCqJYMTO1CbCFd9LY8ThOMxL6mSJk+ebB3hAr0oaozkeXsl0tyDlvb+QrhwMhDhYNsdCA/sT8oYjgcqE4qONLRRR1LgyKROOD9cpYjntCUkJEySlJqaOnny5OLi4rfffhthk3PoAJuDzW1HzqLjsxMIR6JuMBhWrlzpMjEcc+kFBQVRUVHI0vl0Gmy+RA9gMpmCgoKUM22OxNuS13Jwl+8qSPP9xPfDx44dC8InSpo0aVJRUdFgEc47EU74hQsXHPydAiIcbCNXd1XCo6OjQXhAQABHmgNPl8QDAgJcgnBPAOcwq9pNTU0NDQ2JiYljxowB3uPHj584ceKgE45x/HlZFy5ccHx/zQkfPnz4MEkGg2HVqlWuFMM7OjoKCgo44aqQA/UASYjhr7zySlNTkyWx1JFt6Dz2DL/pUGgYRPjo0aMnyJo4cWJhYWFjY+OgZOk8hpPt+ACOZ7y8+OKLfn5+iN4S4MP0Jfz2nTv2+Lt/re3WrVsdHR2FhYWccGUMN5lMYNvf3x9GYGCgdXe8OJL2Jkka57enCvelJyUlxcfHj5c1YcKEgoICIvzChQtyKO39f3+WXLoZRigSkzoaeInm5mYHXw1BDDcajSCcsvTKykrEcOnGVesJHXLnzi37/N0j/Pbt26qEUwwHzLQkvAMCApyccA+6lh+BkydPgvBxkoC5QDjHmIAng/gXmlk4i95vX4AU3cF4Uww3Go3Dhg1Dlj58+HCDwVBVVdXd3X3r1i2JcOshHXL79i37/N0m9fT0IIbHxMTQOJyQJsNfFnmcmXCc3I4/ISyHyqla4nfL4uPjU2SNGzdu8eLFPIYr0VX1EOowdCTcwXNs+IAQw319fTnhvr6+RLgEufWQ2v3bo7dv3+7p6Wlra6MsPSAgACyT4e/v7+fnJwN+/z8Id8JxOEYBHrwt7ETw/fDk5OS4uLhkWSkpKfn5+Y2NjaoYD9RJ2KuuSAGc1/I7ZDEuGJRJ0zNnznzpS19CDCfIDQZDdXV1V1cXYjgFSysMRxCOq2VFRUUYh3Ow79MsQQ7O/WQ5M+GOH7BZiJNzNsOvC8fGxiYnJydJ0pdwji7ZSuwJdTKQAgzKLDrFcE74MEk+Pj4Uw62gmq8yyITLLPcJ4OQ0mUxOO5fumWAbUFdy6tSplJQUTnhycnJeXp5eMZyo1jaIeWEyD7PoA3pHejUWYvhjjz02dOhQxHAah3NiB2o7gvCenp729nYhhgNjIYajyAl/+eWXnTBL9wTwgZ7fIDwmJgYBPDExMSkpKTc318GEE/9AnU/jDfQd6dUehGMcPmzYsKFDhw4b1nu1bPXq1a5EeFtbGwj39fXFqJswVho0LDeZTE5IuF4f7QO1nVOnTo0bNy4mJiZR0tixYxMTE4lwZUQlFO1tAHXHPHRR9RPnM21DJbkk4e3t7cXFxTExMQaDwc/PzyhLiTcNxY1GY0BAgLMRrvoheZz9HgEQHh0dnSBr7NixOTk5DQ0NCKT2Jtnc9kH4oMyx4aC5IeH+/v4y4EZOODmNRqOvr68TEk7nsWcWnQ6FhcapU6fGjx8fHR09ZswYMD527Njs7GxnIBwPXRysz9R9CF+yZAmP4ZxtsgG5rySj0fh5uu5UMdwz/LaQZ6EZ7lodP358VFTU6NGjx0hKSEgA4YiifGku3trDf/78eaTozkA4H4evWbPGlcbh7e3tGoTz6E0B3NkIF85aT3FAR6ChoWH8+PGRkZGjJY0ZM2b06NELFy48deoUGOOE0zd2udMeeGOAMCg3utDR4zEchGMufe3ata5HeGxsrK+vL8bhyrgtcO4hnE4CNzAaGxsnTJiAGC4x3rswRziBrYo61aoaA+0IHPbUZHMfIiccM22PPfaYwWDQjfBbdhbd01ZcXAzCQTIIV1LtieHmTgXX9SNLnzBhQmRkZDzTwoULGxoaVEHVcKpi/9FHHw10Qh7tHf91UeFzxNUyg8Hw2GOPPfroo3Q9nAi3EdAhNq5vyeq4a3XJkiWccLCNIbfq0nliuPCReIoDPQIgfOLEiZGRkXFxcWAcMdwKwlXhB/aqVdzJIzz8A30vurfnhD8mScjSLUFMo40jCO/u7m5ra+OEY6rc19fXIItDbjAYUHSSmTbdP9QHaoOYwWpoaJg4cWJEREScrPj4+KysLIzDOYTW2YjhWFdJOwebbJpjG9yPgwgfOnSoQHhXV1dPT48GvZZUOY7wkpISxHCCmUjmHiAPz+eZvDPMpQ/uGeAGr97U1NTY2Dhx4sTw8PBYpgULFlhHuJJh7X4B7XkvgPaDO8eGT1YgHENxjMP1Irzn1i17/N3vX5ClKwknsFUN3Bvz0ksvDeJdq25AlzO8BSI8LCwsRlZsbOz8+fOtI1yb535rCXhnuPw5QMIHjOqQW7e67fNnlnBl6BYIRxj38fH5fKzuIdwZELVxHzjh0bJiYmKsjuH9MqzdgBNu41uzfXWBcCTqBoNh3bp13d3diix9wLQ6IksXYrg24QaDwUeSJ4bbfvY4yRYEwqOioqKjo2NiYgY3hjtDAMczXr70pS8ZDAYah+NqmRnC7wdOCy0HEd7e3o4sHXjL82v3ZtQohpMfxudXzj0x3EkotWU3QPikSZPCwsKAd3R0dFRUVGZm5smTJ5Xxln/lS1mri2fQL5LR8VTG8EcffdR8DLeQ6/vNBoFwAWMqInRTAB/0GE6fgcew8QiA8NTU1NDQ0ChZkZGRc+fOBeEfMekCsPZG8CNWg3WbqnAwz5w588ILL/j4+ND1cHcjnMD2lkTFQR+HO0kWJ5wQLlp8++23QXhkZGRUVFSEJIFwXL4C7NqI2ljrhIR7e3tjBN7fOPx+cLbQclwMLy0tjY2NpYgNAzwLbHt7e8P/+f1tL7744qDMpbsoSE67242NjZMnTw4JCYmMjATeiOFvvfUWeOM/Gski+j2TI0213Gm5jdWdJIBjHP7CCy+AcNzThhheU1OjNtN2a6ByKOFxcXEcbGBMkFNx0Al3Wk5cd8eIcOCN5dy5c4lw4lz5rHswaTnD2i2dKoBrEO56M22lpaVxcXG4j00JM3m4MSgx3HUpcuY9B+HBwcFhYWHhkiIiIjIyMkA4GKalKuTkpGbc0Kaa1zrPHBs+L4zDlTFcR8IHfA3dsjtkbpG6u7vb29s54UjLacmp5rbjr4c7MyQuvW+NjY2pqalBQUFEeHh4eHp6Oidcm2Hi2VwzjjFsWoWq4HGeFL3fGC4n6tZDOqSnp9s+fz0k3JcOwnG5W5VtcvIs3cFXy1yaIqfdecylT548OSgoKDw8PEzWnDlz3nrrLT7BRkwO1AD2QqpPG+GEO8OdqvyTohj+KJPBYMATIEC4LYQOIQ7tZHR3d3d1dbW1takSrqTax8eHnBTDm5ub8RHadcmPu8fW8QhwwkMlhYSEhIaGIobrQjjBrGrw06ZJko7vzsZNccIfkYSZtjVr1nR1dcmEW0/nIMRwb29vL1kEs6rx+Z0wmEvnB5F/Wvra/FU8tl5HAERhHB4YGAi2wbmOMRxgm5uQp/NErzel43Y44Q8//PAjjzwCwlevXs0Itz7RtnsM7+npoSw9Pj7eYDCAcFWk4RwlycvLiwjv91GY9BFabej4mXk2xY8ABr2NjY1TpkwxmUzBksD57Nmz+Vy6avjVy4kTg++Yk9gg3MvL69FHH0UMf+SRR3x8fKqrq7sl9dgmpyPcy8tLIPzs2bP93nxiNdhO+8E7yfln+26YIzwkJMSRhDvbFDodWA3CWQy3nnLnIhzJuyrhdERgIPejJZzWhXphy56ivkfAHOHBwcGzZs1yTAxHP4490ffd2b41c4RXVVW5DOGYaSsrK9PI0uWBeZ//yNIRw60+lDy88414ojc/GvazaRyelpZmMpmCZHHC9UrFzW3HmT9rgXDk6vhlQvchHJl5H7ilgo2E49zSOHed+YPX2G3XquKEBwQEBEoC6jNnzuTXw83xabu/3+RuEA+pQDhm2nx8fCorK12ecI70qFGjeBG2jYTTx0bJvKpBzTyGPY6AQLjJZAqUFBQURFm67QxrbwGENzU12eMN2rhNJeGPPPKIt7f3qlWrXI9w3JfOr5bRkFuJN82l25ila38Azvmpa++za9Vywv39/U2yAgMDZ8yY4bAYjt1wwkOnJPzhhx/29vZeuXKlaxBOd7yUlZXFxcX5+PggJx/JJHBO8fzzx0W8+OKLZ86cccIPxrNLlh+Bpqamt99+Oy0tzRzh5q5ja0dmy2v7vRZj+XvRvSUR/sgjj+B6+MMPP+zj41NRUaEP4bjmZtcln2nz8fEZNWoU6AbYjPT7Jqo8hOt+Pg3WBhsbGznhAQEBJpNp+vTp//u//4sUmk+Ikm05w+ZaOv9Uiyrh3t7eIByQ24LnkC77q7Oz8+bNmzSXLhAOmPly5MiRHsIHC0U7vS7uePHz8wuQFRgYOH369N/97nf2JtyZAzh988TLywsx/NFHH0WWXlFR0dnZCcJtYXSILd2Dhet2dna2t7eDcIrhHGnBFgg/e/YsBlFNTjlTYick3GmzyNInT54Mwk0mEybVZ8yYoRrD6b1TMDdnmAvd5KdNOa3BYzjuaUOWvnz5ciLcQtBUmw3p7u60819XZ2cnvnkSHx9vCeEAfuTIkT4+Pi+++KKHcKc9Oy3cMfrmCX6pClEcWbp2DOdgq74WbwCb2Mb3zFTXciqnOcLLy8tlwrtsIXRId3eXnf+6LST8/ihctjjhTvWpeHZmoEcA3w8H4f6SAgIC+s3SlQALV7apAe0PeWA4eYouZOk8hi9btkwmvHe22uo/B2XpbW1tJSUluKcN43AhM6e4PXLkyBEjRoBxD+F04rq0Qc9aJcKRrk+bNs3yGC6gq1F0rWMlxPCHJXl7exPhNk62OY7wJUuW4Hq4knA5Zt/77yHctc5RS/a2oaEhNTXVTxZQnzp1qj0IF+K8Jbs3iG044cAbM21EuOro2nKnUxDOA7gnhg/i2Wa/l8ZvjxqNxs9/5eLzB3vYm3AXgpwIB94PSfL29l66dCnL0i0nWmw5yITz6E2hmwxPlm4/5By2ZVwBAeH4VWkP4fzgc8KB90MPPeSShBcXF+OeNk41bEJaKHoI56eCi9q40tnQ0DBhwoTPv2hAPx3v5+eXlpbmydJB+KhRox5++OGHHnoIkdzb27usrMzFYnhRUVFsbKyPjw/y8BHmNXz4cDDvIdxFqea7zQn//PHYPIzbiXD+6s5vc8KBN8bhpaWlrkT4zZs3iXCgPVwStwE2+YXr4c7/UXn2UPUIUJY+fvx4xHCK5PYjHN2K6v44m/PMmTNf/OIXEcM54SUlJSDc1rn0Trurq6Ojo62trbCwEL9qZD5436sB6iNGjPDEcGc7Ha3bn6ampoaGhnHjxoFtPFHb19d3ypQp9sjSnf8aOD+MSsIxDgfhHR0dNgI6pKuz265/nZ29hN+8ebOgoMBCwqkL8BDOTwXXtYlw+tW6zz9ZuxLuQsfKHOHFxcUdknpvTrcB0iFdXb0bsOffgAmndN3b25vuWnWhz8yzq8IRaGpqOnXq1Lhx4xC97RrDhZd2/qI24XKibj2hdv9uWWdXJ4/hPj4+FKLNGRiKDx8+nAh3/s/Js4faR6ChoSElJQU/d0HLyZMnI0vXuEFtoFXau+GEtZzwhyRhpq24uLi9vV0mvMtq2Z3wrq57MXzx4sWYSzcHNvzDhw8fNmwYIPcQ7oRn5EB3iWbakpOTiW38Oh0RjkcdDxRm1fYD3b1Bb68kHOPwoqIi1yM8JiZGO4YDbA/hg37a6b4Dp06dUhKempr6P//zP3jAiy4/XKX7bjtggwLhX/jCFx566CEvL6/CwkIXIzw/Px+Em7seTsk5GZ4Y7oAzzDEv4QDCHfNGdH8VJeFf+MIXvLy8CgoK2tvbMZdudYre1dXluCw9Ly/PXAwnpAUDhJ85cwaZnu4H17NBXDfWcal6SJuamk6ePIkY7uXlRT9olZqainG4Llm66ks7vxOEjxw5EoPwL0gC4ZhLtwVvhxKem5urSrhANS96e3u//PLLzc3N/Gv9D7JNv5Jri+GAA8ifrIifFn377bcTExO9vb3pW8NeXl46Eu78JJvbQ4Hwhx56SIjhLkB4e3v7Z599pko451mwhw0bNnLkyJycnO3bt9cy7Ri4tuukbe6irXbWli1bhFeoqamJjY3lD9L29vb2EI4nQHzxi1+kGE6EL168GFm6sxPe2XnvahknXIBZozhMoaFMj8kaOnQozEc19cgAhY0NcKX7zekmRHypAGmY1UvkbzYueSrgZIx4AAAgAElEQVQ4RG+p7hte5NFHHw0PD0cAp2fjewhXEo5j6OXllZ+fr884vKOj0x5/dKtdR0fvYxg/++yznJz7WTouidGcuSWE0yoK5Ps4GP73TbkfsOa/Zo9hthKU29hBYCO8m9DF5pBb3d3wFan/0iD8kUceIcLpefgewjUIz8vLa2trkyC3idAhnZ3ddv3r6Ohqb+/87LO2nJy86OhoHx8f8AwuNdjmzdAYyPYBWi4QzQLEYExwWljkv+dsFmW1Ck7m/YBumSUwDJAEp9VFYpvzqYutyjaciOGPPPJIWFiY8CDtiRMn4mqZxgOVVS96c2ezi0sYh1MMz8tb3Hazo72to6OjyxZCh3R2dtj5r7OjveOzz27m5ORER0d7e3v3G4059jLCw4hh8nCDasmwEGNzzdTItdRnGctaraxmWGNFXUgWNqIBtlAlEI4HAUycOPG3v/2tNqGqT2txY8JpHJ6Xl9feK3zzxHpIh3R2ttv5rwNZenZ2Ngg3Ryb3w6a+gLgdOnSo0IxXwTYHrYV+SzlWtNNCdiB1GpRaV4WTRoDTxqIAcL/FRx55JDQ0lGK4knB+QbSpr5r7Cnj39blwSYjhRHhubq48Du+whdAhNGC2nwHCFy1ahCx9mBkRq8OG3Y/YcCo95vyE8aOPPkq2hYaC2YE5QDF+emogRN9rax29GmtxhnGnFPfYYvfLs7IBEY57k7UJF3jty/u9ktDGdYvmCM/JyWlr683RbQTTiQgn8Al1TiY5tQ2sAjT56pbYWAvADQxuqTV+lcZGwgGeBreWV2FTgM0WnoV1sUGMrpUkq3qGDBnCCQfeI0eOpCz93LlzPIZr42p5S+3tOEmtOcKzs7NBuI2QO47whQsXasdwgfDHHntMG2bUAl26WmYJydSGOgIreKZVrAjXylXALWeJJqjp2V1KD2+vtHVkm15aFWBLnJxwCuPWEe4kZOq1G0Q48qwvfOELQ4YM8fLyysnJkbN0m6K4ExFuCc/KNoSr1QaxaoWhZNUKD+H96KOP+vn5/f/2zjsuiuP//8AZSziiUUSwobHFJMYSTUyixkSjMRo7RrGCFWyABZBqAUFERAQEC9JFFAUpIkVBFFBARMEO0o96d4Cf77+/x77ft8Pc3h3cUfLJ9/vz+ZjH7OzszO7e3r7e75nZub3Bgwfr6enp6uoOGjRIBxgIaGtr46uIPwfwV9b4ay38w2Y+n9+rVy8idSI8ktPJBNmhqgk1NTUejzd48GA+n0//snDSpEk40qaSD+8qaf1L9kMUrqamRi4sn89fsGDB/02Fo+tW0oET192BXnfPnj1R0j169OiAtrEKirMDqiZVSKtbS0trypQpkydP/uqrr8YDX3755fjx479kGSfNWJYxY8aMHTsW43HjxvXv35/H45F7BRP/LW3j0VHhenp6ROH4ko+JEyd+VDitcNL34fP5f/zxR9e00nF2e7fGONI2b948ua10WbesfA5RaQcceIdVTZ6Td7jLjT12jFF7ffr0mTZtmr6+Po/Hw6+ZjmXlSuwCbWI++eSTzz//fPz48X379iVVOqNtspNOJrAfjgon0xz69OnzUeH0jBf04fi98/n8+fPnszNeOqVOtU7VVq4yUfiIESP69u3bWxrih5UXNqnSAdfdGWETbRMP3LEER588Hm/o0KFff/21hoYGLewOpHk8nra29siRI3v06NEl4+fYLey8wnk8nq6uLp/P/6jw19LQPhyvtpqaGp/PnzdvXhcpvOU/H7ojfPifDxBaWv7T3PRBLGr6/XdmpK1fv360wFHV6IGVVziWR62q6r3/6wpHedPjZzweb9y4cUOGDOmkwvH+0NTUHDFiRO/evVGWnfHh+Gy2k/LGs0KFa2pqkm//ow9HpXMUjlebz+f//vv8pqYW5nlZy/90RqFqqMNujZubP4jFzcuWLR81atTnn3/ep08fnLiivKRpQ0Ba5h1w4HRdlaTeMV/NqUW0jaqjPfmXX345dOhQVDgx5Kr6cHJzjBw5slevXmRstgMi77yq6T1gP1xXV/fTTz/9qHAUNonlKlxLS+v3ufMkCmedZcdE2u0KBx/e0tTUsnGj0ejRowcMGIDTV5QfS+PIW1WnTcqrJGm6MEeoHV6lJc1J6+npTZgw4ZNPPkF5d0zkKGkdHZ3hw4djKx1lppLCiTLpoV2S2bEEKnzQoEFE4WjiP/bDZfvheIW1tLTmgsKZeekt/+mYtrFWt/fDYW4tE9na2o4dO1ZXVxd9+D+pcFquSqY7LGNFFTmS5qz27Nlz0qRJ48eP7927NxEklsEd0g0WMnUX+7Q4Lq2pqamlpaWnpzd27FhNTU0cscPbheyw3UTHBNx2LWyJ8Hg8HR0donD05N9+++3HsXRFPnzu3LnYD8dnZsoNeckp1e0Kxz88aWlpCQwMnDhx4uDBg7W0tPB+VamVTvrexCe3m+CIWaWnYoqE2rF8jp5lV3v06NGrV6+vvvpq6tSpkyZN+vbbbydOnPjtt99OmDDhm2++wfgb4GsW8lANH62NHz9+7Nixw4cP5/P5nP5zu8LGAihUFGTbolVpK1H4wIEDicLxq/+ocEU+nM/n/3sVjk77w4cPmEA71Nzc/PTp0xkzZowYMUJbW5uIs22Rk2K0ByOZ7SY4CldpFZXcmedhZBIr6kdW1ZwcHHvT1NTsz/7J9udAv3798N3D+Hoz8uMNnDpChqbx+QJqG4+oUqySaFUtjK10VDj5xnv37j1hwoSPPpzjw7FzxOfz58yZ00Vj6XIce0eySGu8paWFqLqZpampSSAQ7Ny5c9y4cTi3CfVJvm/ZBBZAWbYrZk4BlcTMKdwxL82pxVFvu6ttq5FMGiXOmZSnH4kR4ZGt7SZIlW5NoMK1tbU//fRT8kV/VDgOtilS+G+//dbU1NTJJvqHDx863konkkZ3zWpZatnEIhKJGhsbIyMjp02bNnz4cB0dHfymFfXGibw5CY6S5a5yFKvSKnHdnfHeRM8oMLLaRgIdOJErKcmRKOqQk0lkr2irbHmSg1W6vGXOsRe0wvErw2//ow+XbaUTH95lCidCVT5BBgBIFVrWrKiZpRgQsZSWlhoZGX311VdDhgzp27cvmbiCCaJ5ubpVMlMlPcsW5rhi5VfpyTBEn8oniOQwwanI2dpVqxwddusqTsXp06cP+R579er1UeGyCsfHKHw+/9dff21qapLVGhGdkgk1JctxijU3N+PhUduyqhaLxYyuhSIhSyNw586d6dOnjxo1Cofc0IfTnpzcAR1IyCpWpRzl9Sy3JEeWHVvlzITpKjHL7gfvpG5VNb1zHo83YMAAVDgx6B8VrozCyZAWR4NKrqo1N39QNTQ1Mc+3JUHc3NTUIhY3kyASNYmEYmGjWNgoamwQNjKxqKFe2FDfWF9fLxAIvL29J06cqK+vr6urq6WlRXvyXr16dWZQTaXRco74yVxxuepVJrNjkpZbS1aQXZhDhNeFT7zJPuUm1NTUNDQ0iMLRdn/04XL74cSHz549WywW034UvKnKalVraflP+4FYAZhG16ptcYtYJNE2I2wIQqFYKBQzwm4UNTQIMdQz8m6oq6urra0tKys7ceLEpEmT9PX19fT0cKY68diocOV1jkIlCuTott2tWJGWGdlVGwm6l07qEhGSnI4lyH6IWkhOJxNkh7IJ7Ip3LJbdGyenbYX/f/vTUXxbTVFREb4vHa8SrXBsGre0MG9cBT60L1UZOSuncGZuOeO00duzCm9pYhTeJBY109pmXDclb9B2Y11dAwRG4TU1NZWVle7u7lOmTPniiy+GDBmC1l2uOIny6YTckm1kEq3SZUgm6pA83KLVS8pwEm1LtwM6pHeI1VEkHdiV3CpEcv+Y3yZHxFtWQ0Ojf//+ffr0QduNjbUJEybcv3+/uLgY/4ZF9o9ciilkt/4bcqgTVDmJ5//mzRtPT09NTU1yxfCXJ7/88gvbD29mRa6EM5ancNZAKF42N7c0NTVDt59pKUBa0vUWicTiVu/N9Lqxvy3x3ozrlsi7tra+pqZGAFRXV1dVVV25cmXWrFljxoxBZ66tra2pqYnfvfLtbY72VFqldUUrnM4naXrPJJNOEGnRmUqmSV3OwDiOrpPvvpOJjrnoLqlFK5w00wYMGLBo0SIDA4NVq1ZhvKoTGHSIlZ1gRVewfPnyH374gTNhmc/nK1C4YpUq2KLUSBunM0DG1STDaSKxSMS0zIVC5pFYY2NjA4OQ9t61tfW1tXU1ABF5dXX148ePraysJk6cOH78eH19/SFDhgwaNGjAgAF9+/bV0tLCSR1txH06QW/FkHe8coooyucUw4cCGHM24SqZdkqXlJuWW11RJtktp4DcPXMy6SaSqmnOrjirZG/Eh3/yySc8Hg9/BYQtJh6PRz+MIMZUSftIitGGUpl0Zyxmlxg+shNs6ZBVPp8/a9YssVgMY+m0D1egY8XZSimcjJyjtnEAgDwJE4vFQqEQn3hTCmdUXg9g97sGoOVdVVVVCWRkZNjZ2aEx++abb0aPHj1ixAh9ff3hFMOGDRs+fPiwYcOGAsOUgJTExBAWXOVkshulloOVQ49i8ODBuhTUFkmS2si8p6lj4Due6Lo6OjoDBw7UUQC9aSAF1qK34g6wCL2VU4bah8KDcs4Ff1bIUTLdbyJponBlEkTeSibwaYUy+pct0xmL0EZdImySQIWzrXTF8lViS0cUTnTO+nCmcc48GmOb6KwbZxRex4I98BpAIBBgQx0VXlFRUVZWVlBQkJKSEhgYePr0aQcHB1tbWxsbm0OAtbW1FWBpaXkQOHDgwH5gH4uFhYW5ubmZmdnevXv3ALuBXbt27dy509TU1ATYsWPH9u3bt23bthXYDBgbGxsZGW0CNm7cuGHDhvXr169bt27t2rWGhoYYr1mzZvXq1X///beBgcHKlStXrFixfPnyZcDSpUuXLFmyePHiv4CFCxf++eefCxYs+AOYP3/+77//Pnfu3Dlz5vwG/Prrr7/88susWbNmzpw5Y8aMn3/++aeffvrxxx+nT5/+ww8/fA9MmzZt6tSp3wFTgMmTJ09imcyCm7DY1KlTp02bhtV/+OGH6cCPP/74E/Dzzz/PmDFj5syZs4DZs2f/yvLbb7/NmTNn7ty5vwPz5s2bD/zxxx8LFiz4E1i4cOGiRYv++uuvxcBSAD/+cmAFsHLlStLe/vvvv1evXr1mzRpDQ8Nly5bp6Oj06dMH+189WD6hYPN68FhIjtwEW0q1pYaGBopNQxWIPtUAstr5BO6QE0v7cCV0rLhIBxWODhwVjjERuVAolKvwujpJK72mpkYAEJFXVFSUA2VlZaWlpSUlJTj0Qt59/xJ48eJFUVFRYWHh8+fPnz17VlBQ8PTp0/z8/CdAbm5uTk7Oo0ePsrOzMzMzHz58+ODBg4yMjPv376elpd27dy81NTUlJSU5OTkJSExMvH37djwQGxsbExMTHR198+bNqKioa9euRUZGXr16NSIiIiwsLDQ0NCQkJDg4OCgoKCAg4OLFixcuXPD39/fz8/Px8fH29vby8jpz5oynp6eHh4e7u/vJkyddXV1dXFycnZ2dnJyOHj16+PBhR0dHe3t7Ozs7Gxsba2trS0vLgwcPHjhwYN++fRYWFmZmZnv27Nm9e/fOnTtNTU13ANu3b9/KsmXLFmNj4y3SbN26ddu2bdu3b9+xY4eJiYmpqeku+NPPvXv3mpmZWVhY7Nu3b//+/QcPHrS0tLS2traxsbGzs7O3t3dwcDhy5MjRo0ednJyOHz/u4uLi6urq5ubm7u7u4eHh6enp5eV19uxZb29vX1/fc+fO+fn5nT9//uLFiwEBAZcvXw4KCgoJCQkNDQ0PD79y5UpERMTVq1evXbsWFRV148aN6OjomJiYW7duxcXFJSQk3L59OzExMSwsTE9Pr22FKzPGSaSukqw1WGhBsnntL+laagCd05k07k025vP5M2fOFIlEXTDjBaestBs3yYAiF4lEJCFkaWxsZNroAO3GUeRE3gKBoIqlvLy8qKgoIyMjOjo6JCTE19f3LEDE4wmcPn3aAzh16hRqyc3N7QSLK+Di4nL8+HFU17Fjx44CR44cOQw4ODig0uzs7GxtbW2AQ4cOEdXRwrOwsDA3N98LjYLdALYIZJsDqEAjYNOmTaQVsG7dOkNgzZo1f//99yoAWwHLAXSDdCtgEbCQ5U+WBQrA7Wzxhehp/wIWL168ZMmSpcCyZcuWL19Oe1oDAwN0s6tXr14DrF27dt26deuBDcDGjRuNjIyMgc2bN6OFkbUspqamO3fuRPuyB0ArY25ubgGYmJgMHDiwd+/esmOoPQAegGlFMZZRKdZgoXWIeZgjmyZOnq7SVWlZMcvNQYXLex7erlK5BZT14aQeGXVDYZNYBAiFwkZpGhoa6ilIW10gENTU1FRXV1dUVDx69Cg8PNzf3/8MC1Gyh4fHKRaU9MmTJ92AEwB6SxcAhU20jfI+AqAXdXR0JAq3BWxYrAErKytL4MCBA/sB9LHm5uZmLLTgdwKmpqYmJibbWbZu3bply5bNFEZGRij7DRSkI7B27VpDQ0PU2Jo1a1YDfwNgENqJsDzG2CQ2BGTlumHDho0bN27atAlFizHqdivAaREQ0e7evVtWt9hAOHDgwEHA0tLSysoKL+OhQ4dsbGzwCtva2trb25ubm+vo6HAUTitZGQfOU502BIybSKzOwslBBbIbO7WUK2a5mRyFt3QCNRnfLCcDR9roDbKDbUThKHLWhTeguusoUOQCgaCysjI/Pz8yMvI8cO7cOR8fHy8vL5S3O8tJoA1fjZJ2cnLieGz0246ArLDRb1tbWxNV450qV9t7gT3A7t270ZOjsE1MTHYA21jQ0W3evBldH8p706ZNGwGicVrhKHKic5Tr6tVMt79dSGF0xShvQ0PDtcA6YD0LHh11jlJHnRPnLNc/ExdNvDRx0eil9wEHWPBKWgHWwO7du4kPJ26cVni7adXVzSNaJUf8BGj7WHggrKvO0vl5BHKVrCiTz+fPmDEDG8i07jqQVmtualYYmlua6QAlmafiEMTiJjqIRGKRkDkleHImEjYKG9nQ0NDYUN9QD6Gurr6utq62tq6srDwtLS08PDwwMPDSpUv+/v6+vr4+Pj5nWbygc4tO3dPT8zQL8epoAU4CbsAJgHj144AzQPSPsj8M0OK3h04yttsPAXhrov7xlsUbeP/+/fug82wBbXh07bRj3wXsBDhWYDuA43wYo7S2gM83NjYmdsHY2NgIIDrEVbkxmhJj482wg9bmA61bjpfGrruJiYkpQLtr9Nho1MzMzMwBC+jVE7+NrtsSsJJ23ei9scNvD31+R0fHffv2aWtrEx9Oa6wN783rBBoAj8fr37//6NGjxwFjgTFjxowePXrUqFFfsIwcOXLEiBH6+vrDhzPPa/CRja6ubt++fen3YbF6V3mpSMmK8mmFK5Qnq8S2C3RkXjpnZptkRjozua1JLGbmtwmFYpEQZqeTGazU9NWGBmF1VU1yUsqVK1dCQkKIwv1h7MqP5RzgC/gA3ixnz571YuGYALn6J1bgxIkTsvp3Amj/j1bAEXAAiP5tARsbm0OANTQB0ApYsoNnpBXAsQWcpj7dLsBhNvSQu1h2KgFbFpeMNiHsRpXuAYhWzVjMAQsA3S8t3XbVa2traweggB0cHPBaHT58+Ahw9OjRYwBeW2dnZ2tra9qH0wpXlOaxaADsWjtLLEyqDBkyZNKkSXp6egMGDNCGP40ZQKFNMVAeX3zxxbBhw2T/YUJ5iSvScBv56urqROHQKZbMJVX19yNYvuMKZ+qT359I//gEJ6tzZqoLGyWT1Wtq6lJT7l6/fiMiIiI8PDw4ODgwMPAyEMBySZoLLOcBfxY/4Ny5c7KG4CzAaQh4QlvAg+UUcBJwA9AE0FbAmQVbAcQQHD16FO/mw4Aj28PHm55jEeimwSHAmsWKxZLiIIx+E5NxUAbS+5XZwgybI+yOmSV7NGaJJ0C6ynYURLGyosWxd9TtsWPHnABnZ+fjLC4uLq7ACcDNze3kyZPuwKlTpxwdHYnC23DaRO08QAPAtDKxhoaGOouGhoampubUqVM//fRTko87xJgtqHCpoaHRo0ePUaNGaWtrkz0oLC2zoQ0Nt73p36Rw+EVK6+/Mmlqa4EdmUr82Y+e0ouAbGoSZmdkxMbE3om5eu3YtPDw8LCwM47CwsFAgRIZgIAgIpKDtAtqEixcvojU4z0I3Dc5J2wIfHx9v4CzgBeBzL08ARwTQIKA5cHd3PwmgRXCDkXxXFhcXl+PHj2N8/PhxJ2mOsRylQDPBidFqENvhKANRoKOjY2thxyOHMUAWvU88IHt8ydLJyclZGlSrC4Cf6QQLKhZFi5cCL8tpFrhgntik8gLOnj2Ll9fb29vZ2Rlf+9GjRw/lFY6qRkGqpHCsoqenN2bMGHV15r/+ONCZdJoUI5n9+vUbMWKEjH7bySD76UCiyxUubm7uWCDj660JMhKAWeQlEGRuzOvXr+/cuYPPn/HJ87Vr1yJluApEAPjE9QoQLk0YEBoaGkIRHBwcxEJZA6aZEABcunTp4sWLGF+4cOE8iz/gB5xj8WXxAby9vdEckJ4C3tNoF9i7nVl6eHigEkgM/kwSoVTIcwE3ihMq4urqijWofXCTJ2XA82hDq0SxKFcveEJOixYvDDGaeMHg4jGRP3D+/PkLgLu7O46ltyFvHoAmANPKxxrSqANDhw7V19fHNA6VqaQ3rNi3b9/hw4drUK0DzFcUq3QIuYXV1dW1tLRmzJghBlBKONrdAamqKR5na7cjTw6tMEEEj1Kvqal5+PDhnTt3EhISYmNjoylu3ryJazeBGyxRFNeBazJEAldZIliuAOEUYQA0FBijEMwSxEIsAjEHAcAl4CKAtyzG58+fx1sZYz+Wcyy+MhBLQfwbMRl0wosFM9k1hUu6Lp0mR8HjYsw5KfZkmZktCPk4mDgP4EfGi4AxXha8RJdZyDUMAoKBM2fOkDltikTOAzQ0NDDRdqwB8HitA+aYg7E68Nlnn02ePJn8qEOunBRl4h40NDSGDh2qq6uLq+3Givamar6WltasWbNEImayCRERiFzc1CRWSbNqCtXZ1RvEYvHbt2/v3buXnJyMIo+XRxwQGxtLErHALZYYimgKYhpI4saNG2gfwDK0RtcAMAtMxFoGZhkBgGVgItJ9CGN7ELLtBbyD8W4OCgoi9zd7w7cuUQkBAQEoDDqmZaMojQKTG3OqXLhwAXPoQ5Cjk0TrmUGKnDkmyCfCDxgChFKEAeHSkEuHCbyeERERly5d0tHR0dLSIj1tOtG2mGW3akijrq4unSHpjfN4vFGjRn399df4opFeLL0p+lB8CmgCfD5fS0tLX1//iy++6Nmzp7oSqCpjReXV1dU///zzZcuWNTY2iljQn9OCp5XfrBilnoeTfXUmIRKJ8vLy0tPTU1NTk4A7d+5gghPfoUiU4TZLQkJCvDziKGIB1jgwS2IfKOMQjUYBY2w9RFFcB6KiojBxjSWShbYR0mYiAm70cLAVjLmAEI6ESYPWJFQa1BWJpTdy10JgJinuNTQ0VHr3krXwsCvh4YzlCg9nJpwSiBQxwflE+EHZz80sr1+/Tq4QXhaSw1nF63bjxo1Ro0b169ePNMJJgvhhWSXLzdFQGnV19R49euBw+nfffTcF/rx50qRJEydO/BaYMGHCN9988xX8nfOXX345bty4sWPHkmdpI0eO1NbWppsA6tIokmhn8tXV1fFv5M3MzBqAxsaGRmGDEECvLqv2ZsX8EwpHwyMQCLKzsjMyMtLupaUqy93U1HsYUliS5ZGSkoLZSdLcuXMHTQRrFuQsEyjiKeIoYllusRBLQScUWY2bN2/euHGTsR3MtHcJpInBZjDLmJgY9gi3YmNjJemYW7cgkGOhMaIPFx0djTskAiOSw/2D5bp540a05ExwnbZtkCb7jImJiYYZ5uSg9LndusWcHgdy5rKWNCoqysDAoF+/fr169SKDbd2nbQ2220wSHeiHkyrSupasdUbGbdRVV1fX1NTU1dUNDg6ura2tq6urr2cCiF3YyCBERCxyHTtxxmrk/WrdnSgpKc3OfvzwYVZ6eka68qTdT8fAVklrJT0t7T6GezLclYG2KinSEKOB9iE5OZk2FFSTQpLkNCzkmA3IYkxHfEJC/O34+NvxcQnxcZT9oJJoSW7fvn337t3U1FRyMuxpJCclpWBITkqRBLYQMW3JyckpKSlJSUmJiYlxcXGkm0OZqbi4uHg4jQQmjr+dkJBIjBv9EfDnInQOpjmfmqziVrIrTODnw6PjmMuJEycGDRqEc0iIc9YAyGrbCSysUowqxWa8RJqqLEh12UptqLQzm3g83sCBA6dNm1ZYWFjNUsNQV1tTX1dbX1fXUF/X2FDf2NjAvEyJeSEiTj+B2SiyKlaTetZFPd/uqnzmkHDsV6/ePH6cm5316OHDrAedIgNqP3zw4GFGBgkPMjKY8AB+T5Yhzf37GfdlYC2GZNlqN6RTtOmQMRqSDNp20GkwI3dTku+mJN+DOFXasEjWkpOTU1NTmdZNWhqratrCyFF4UhJKXLLAlZSUlNTU1PT09Lt372KOTJySnJyakpyaDCEl5S7nfCQnz+xGMSmpKWxITb3LpJNTkpNTkpKSITBnzmk6xQORkZHz5s3Dfy9D703rud0BNpWETVw3SeDTL1mhdiCnMwJuu666unq/fv2GDRvm6ur67t278vLyiorKysqqqqrq6uoaQXWdQFBbW1NfizqHFyg1wlwyRupCMT6QRrk1iZsxdLvCmSfkouYmccuLF6/y8vIfP859lP04u0NkSZGdlfVINnB2LKmRmZ2VmS1VOysrM5OE7MzMrIcPszLl8ZCCtktoQ0iOtElpXQPj8uD+/daQnp7OsTbp6emZmZlZWVnp6enS5gXX0tPTMtrZp8MAAA+CSURBVDgBWi5paWn3IEgqoa3KyMjIzMzk2C9qNQPaUEx8P502fMxZwXk/yLj/IAOTsA5nm8FkZjCbmFoQ0rEBde9+2r30e/fS795Nu3v3HjZDsGWBVioxMRGdfFxcnLe399ixY1HkqFjSUJercFrV6ix0pqI0W5ZZtuGH6WLtptsWZ2e24qHxRVd6enpLly7Nzc0tKX7//n1ZaWl5WVlFeXllRUVVVZWgukogENTWCGrRpdfWMu33+vrGBnipsRBcuoi4dPCsavgCtu6LsdkgEjUVFb7Izy/IzX2Sk5OX8zi3UyFHIY+lkZTDw+XkUBtzyAk8fpzLBqbAI+VgTcnjbMZgcQK7EZasZcnOysLAZjCrEiOFlyWTsTLZqgS0SVSVh1nZWY9yc3Kzs7kWjT3qI/Y0JCeD55qVlQUJ8kFaPwJUZI0pc3qZDx8yAZpLDzIYmBgbSunp6ffuMTqnpZ4I3L59Oy4u7vTp0/iuLmyuE53T/pxOK9Jw2/moGaI6XEW1y2aSrXITpHw3JfCgPXv21NPTGzhw4PTp09PS0l6/fv3mzbt3b4vfvSt5XyLReUVFVWVFVVWloLqqRiCoqampramprWO66ozIpXTO+nORqKn7R9pglptI2PTq1Ztnzwrz8wvy8vI7Fp7k5T958pQNT548yXvSJnl5kgJwuCdklVMpj4WTr2iVLY5LuZ9FukheTl5eLicrl3lfRR4JBQXP8/MLcnLyWFsjtZUUa008BkPJ7CGHZD5+nJub+yQ390nB04K8vLxc+TzJzWU2ERtJlWLq5ubmQ9yaTUpS9pGxg2gUspjWUCY2dLBFc//+fWyMkLduEGeOXXR/f//x48d/9tln2C3H17bRzpyjXrnCUyYT9yPXh3MOoeSqMgdVqYyGhkbPnj21tbUHDx782WefrVq1Kicnp7Cw8OXLl69eMiJ/+7b43dsSxp+XlEmceXlVVWV1dXW1AKipqWUa7bUST97qzFmRd7/CmxjEYvGbN28KCwufPXtW8C/g6b+MZ8+eFRUVPX36ND8/H2NMcE4zXx6kDFZ5DpDMziTI0dDYoZEi0s+BNtGjR49IK4DoPCODGUxlehHsq3Wwc47N9fj4+OjoaHNz8ylTpgwBdHR08D1wA9tEGxg4cCAmZH9Jgj8vobdiGbpk//79BwwY0B8YIA2pKJsgB+WcoA7FoEGDcG0QQKcxh8S6gJ6e3rBhw/CR+6JFiy5dulRQUPDs2bPnz58XFRUxIn/16vXr12/fvi0uZprspaWlZWVl0DlnmuwocsaVw5A7jLrX19fXNwJCln9C4fj47u3bty9fviwsLHz+/HlhF4F3cyfjZ6pDjqh6Veb7k6WwsPDVq1cvX74sKipq49qQrUUKePHiBe5E9hBt55APQhfDTGKQ0fTQaseWAkr98WNmeCUrK4voHJ05NtrxGcEdAJvrcXFxkZGR3t7ednZ2JiYmW9jfzxoZGW3atGnjxo3r169fC6wB8A15K4Bly5YtXbp08eLFf/3116JFi/78888//viDvA/vt99+mz179i+//DJz5swZM2b89NNP06dP//7776dNm/b999/jg/Fp06ZNnToVn5BPnjx5ypQp3333HRb48ccff/rppxkzZsyaNWv27Nlz5syZO3fuvHnz5s+fv2DBgkWLFv31119LlixZunTp8uXLV65cuWrVqtWrVxsaGq5du3b9+vUbNmzYtGmTsbHx5s2bt2zZgi/VMDExMTU13bVr1+7du/fu3WtmZmZhYWFubu7g4ODl5RUbG5uVlfXkyZP8/PyCggJUOH6VROElJSUoclQ4jr8JAI7CGxoaGskjNaHwn1N4cXHx69ev8f570RUouMmVzSanoGyF7iyHJ/Pq1as3bfL27ds3b968VsyrV69wV0VFRS9evOiSU0ajjMonmicNDaazxJKTk/MIXHoW8PDhwwcPHtCN9hQgKSnp9u3biYmJ8fHxMTExUVFRofDLAvyVYUBAwKVLly5cuODn5+fr64svBTlz5szp06fd3d3d3NxcXV2dnZ2dnJyOHDni4OBAXn138ODB/fv3m5ub7927d9euXaampviiO2Nj403wXi1UoKGh4erVqzds2LB+/fp169ahEVm3bt369evxlVWbN2/eunXr9u3bUZOoxgMHDlhZWdnY2Njb2zs6Oh49etTZ2dnFxcXNze3UqVOenp5eXl7e3t7nzp3z9/e/ePFiQEAAvs0uLCwsIiIiMjLy+vXrN2/ejImJiY2NjY+PT0hISExMTEpKyszMfPz4MXYhUd6FhYXEh79584b48DKgDR/eAHB9uPif4v3792/fvsWb89U/gmIhdMsW8pk6s3dsm5FdySZeKoYu3LXX+eXLl8RwYDviOfsyzIKCgqdAfn4+qh07+ThmmZ2NI3MPM5ihOEn//C4QExPj6+vr6Oh44ADzwqx9+/ahWzMzM9u7d++ePXvwvZQmwPbt28kLMzZv3mxkZLRx40ZU6dq1aw0NDclr8AwMDFasWLF8+XKOn1+4cOGff/65cOHCBcDixYuXLFmyGFjCgplLly5dBqxYsWLlypUG8Da7NWvW0F6atgXbtm3bsWMHeund8LqrvXv3mpub7wMOHDhw8OBBKysra2trGxsbW1tbOzs7e3t7fBnmkSNHjh07dvbs2Vu3buXm5mLzDa0zmnsi71KqiV5ZWUma6DXSrXR04MSHi0QitW4SuIhCKBSKRKLS0tJ379616aL+F29E7/ov/ACdMTekLrEdaIDQyBCpc9QuK/XsbKb1npmJw+/MY//Lly9bW1vb2tra2NhYWVm1oXBTU1MTE5MdO3agyOnGPBE5umJ0zqtXM6++WrVqlYGBwcqVK4naly1bhk1rlDNK1wBYyWJgYLAK+BvA3oEhsHbtWvTzGzZsQHkbGxtv2bJlK7B9+3YU+c6dO+mmOOp8//79BwFLS0srK6tDhw6h1O0BZ2fnEydOODs7nzp1Ki0tDRvnKO93794VFxeXlJQQeVcC1YAAxtOJwuvr69GHCym6UeFkbo3klS+iprKyipKS0uJ379+9K1E6FL/rKMWd5W1xsTJBcph374rxQzGDn53gbSdoPezb4rddE1rPhjZedAOBdu/ognA89VnB84Knz57mP8t/8jQvD8bnc/IePXqUnp7u4+Nz7NgxZ2dnR0dH9Gm2traHAGtraysrK0tLS2xyo2O3gLdNc3w7R/nbtm3bAhgDRmxnfgMLtsnRFqxbt87IyMjY2NhIGqy7GaDVux1ADaOvRhnv2bNnL2AO7Nu3b//+/ei0OWImftvR0fHw4cPouvEiYGvf3d39zJkzHh4e8XEJr16+wcE1Rtrvy8vKKirgeTh47hpm6ouglnkqXlMHfyVUj0/L8H/EyCw3MgFGjX7XWhemyQteSKKioqq0tKykpLSkpPS9suG9qpR0GcUlJcoEyfGKi0v+VaGk+D2Gzp0VY79KSuiPVgy2jLFiqH5U/uvXr2k/D7J/WVT0orCQGTiE3vvzgoKC7OzswMBAd+D48ePYnT4G4DtzDh8+7Ag4ODjY29vb2dmhnz906BARv6WlJTbsOZ6fNgG7d+/etWvXzp07TQETYMeOHWgXTE1N98JwF+qTxGYUKFpzc3MLCwuULlHvwYMHUcDWAGl7y5WxE+Ds7Hz8+HEXFxdXwM3N7eTJk+7u7qdOnfJgOXPmjJ+fn7//heTk1HfvSshEl8rKamauCzOnraampg7mujDa5jwGB20zM9uItnFyW7fPS0eFC4Xiqqrq8vLyUpr3ZaVth9IyurhS6dYdlpeW/pOBPtV/8rhyj0WfjFKXrb1CrUd5/76MCYylZpC0YYolLRfSW3kNvHr16iXDi5cvXxQWPo+Li/Pz8/P29vb09Dx9+rSHh8cplpMnT7oBJwBXV1cXwBlwgj+WQCtwBHB0dHQAiCFAW2BjY0M3B7BFgI0CVCaK0x6wA7AdgfrEfHvoJ+P+HYHDAB6afgsdSpeoF08ePwgt4NPAGcDLy+ss4O3t7ePj4+vre+7cOT/g/PnzwcHBYWFhBQUFlRWV1dUCQTVqm/HYNTV1OC9d4rSZqenCxgYRM5WNmccGAV6phNrGdnS3K1zyz6RCcXV1TUVFVXl5RTkzCw8og3Q3xeWV5R9DN10B+MrAyVSUlVWUlZaXouyZmGmjMd2x4vfFxdgdY7z969evnz59Ghoaiu/V9fPzOwcwt7evn6+vn4+Pr4+Pj7e399mzZ728vFAMOIRO2wJ3d/eTLDiu7sri4uJyHCBGwcnJCRsInNjJyQlF6ObmRmuSZGKCPQ6zdAfQHHl4eKBiPVnOnDnjBZw9e9YbQOkS9fozXDh//uKFC8xjgosXL14CAoDLlwMDLwcFXg4KCgwODQ29evVqUlJSVRXMUGWedVPuul4IqmZiFDZou4l58Sn7ujR8SyLpJv9TChc1CQS1VZXVMPOuupKhqrKy+mP433sFcBJlRUUVJ6BhlSgfmlHv35cVF79/8OBhWFhYSEhIMBAUFBQYGHj5cuDly0GXLwcFBFwOgOdkly5dushy4cKF84C/vz96Oco0SCwCKgrtAsoMY7QRrAaZJcry9OnTnp6eqD3WyvgSMIfE5KDQfmZkiueDMWqVPVlGtAEBAZdZAgMDgwD4uCEhwaGhIWGhoeGhoaFhYWHhLFcYIiKuREZEMOHq1av4I+Li4pLGRpFkLiqjZ6b5TRrh2BQnMm4j0V1j6WSIXsRSU1MjEAiqq6urqqpA4f/VqKqysqpCqaD6acp+wCoK1ff3L6pBfQ6pL5Hkyz3X8vLyysrKxMTEqKioqywRwJWI8CtXwq5cCcN3Y4QBoRRoEYKCgoKDg1EwaBrAOjBGgQYdI20j8NF0cDDjG0OA4ODgkJCQiIiIq1evSs4BREYiVnrMMjQ0FMtj3ZCQEOrUmCQpTKrjawXxU0YC16S5fv16VFTUDZabQDRLDJCQkFBQUCAUChsbG4VCoUgxRGiKEt2ucPIOxtraWlR4NdO9+N8D9IUE7cXVTH+pNWD51krVANOrkgAXoUogwFAtu39qb9XVgiqZgHtUEDMnwq1CDkHtGU6o9SxlVqmzbT0SW4raIX46ZscCPC78Bgprw+EYs56QcDs2Ni46OiYm5lZMTAxzS9+MvskECTdu3IiScCMqCkPU9etR169fv3btGsbXgEiAtRXMErUqq9hr165FR0dHRUVhRYyvX78eHR19C8ApKJim49jY2Li4uPj4+Fu3brFnJZEle75SS1ahzBJVSu/t1q1bsSxxQLw0CdIkJSXl5uairlFBKGCidEV6ls3/f/O7Sf6DFzAnAAAAAElFTkSuQmCC;" vertex="1" parent="1">
          <mxGeometry x="90" y="956.39" width="101" height="103.75" as="geometry" />
        </mxCell>
        <mxCell id="VVVXWn_tdc937dLlu_xc-2" value="" style="shape=image;verticalLabelPosition=bottom;labelBackgroundColor=default;verticalAlign=top;aspect=fixed;imageAspect=0;image=data:image/png,iVBORw0KGgoAAAANSUhEUgAAAUsAAAFUCAIAAAAiVYmHAAAgAElEQVR4AeydCXQU15X3iTdWSa2W1Np3CYQWNoHYkRAg0IYWJIFAIIlF7IvYzC5hDF4njpckXiaZTDZnMpNksk0yk5xMJmOQbOzJF9sJSBgkdpyTxDbaWXI+q/7U5epVdanVXd3qbvp/dEr33fequrq6fu/e96q6ekinR54j4DkC7nsEhrjvW/O8M88R8ByBTg/hnpPAcwTc+Qh4CHfnT9fz3jxHwEO45xzwHAF3PgJDujzyHAHPEXDfI+Ah3H0/W8878xyBri4P4Z6zwHME3PkIeAh350/X8948R8BDuOcc8BwBdz4CHsLd+dP1vDfPEfAQ7jkHPEfAnY+Ah3B3/nQ9781zBDyEe84BzxFw5yPgIdydP13Pe/McAQ/hnnPAcwTc+Qg4BeGdnZ1dXV24OVj7YKOluTbatbSWJS9EjZUGv4mZaskJj/IlqIFg8Pa0/2SYqxU2wovCKryKbDra8AhFDSftGG2KG3hpbI12g5zmDNqC5avQppT7Y8VGaGtuaQwy4Z2dnR0dHfyc6O7u7unp+dSMPvnkEzM1ve5PZGm0Eao0Nihv7P5//hL3vXpYfxug/ipLud5f//pXpZN7sKrSI2/yr3+RRMUBGX/7298G1F5ojJe2YvnJJ5/0SMK51NHRQR0H9QJuCXC/b8opCO/s7Lx58+aVK1caGhp++MMfvvHGGy+99NKLL774JaYXXnjhi5L+gen5vnpO0rOSnmF6+umnn2I6ceLEcUlPSjom6wmmo5LqmepkHZF1+PDhQ0wHDx48IGt/X+3bt+9xWXv6arekXbJ2SqqVtKOvtjNt27Zt69atWxTavHnzJlkb+2o9U42sdbLWSlojq7q6uqqvKisrV/XVSlkVTCtklctaxrRUVhlTqawSSUuYiouLi4qKCiUVqGmxpPz8/IKCghUrVtTV1f3gBz84f/58e3s7ggeFkK4HVYNP+M2bN0+fPv3GG2/U19evXbs2PT09MTExPDw8NDQ0zGKF9lWIJGHtvk16S2hGfhRpSX5uUG1ISEhwcDAvKm1zK6IldgAb4S1px5QbhCdYlrkGvBm1kVe695/aKBsEBQWZ1BQYGGgymQIlqdWr+AICAlS8mi4rVsH2QkJCwsPDY2NjJ0yYsGHDht/85jc3b97seuA1OIR3dna2t7d/9tlnH3zwwZe//OXdu3cvWrQoOjo6MDBw/PjxOTk51dXVu3fv3r9/vxwULf3PA+lBpgMHDmBrzHfPpE0rq6zwHDp0SLkWi/Ra5uH+pLoyrXTEMlF7pXHo0KHDhw8vW7YsLCwsMDAwqK/AtvZSE97eyoD+5K8pPz8/f39/P1lGJl9fX4PB4OPjYzKZoqKiUlJSNmzY0NDQ8Nlnn3VKejBhHxzCu7q6/vKXv/z85z8/evRoUVFRSEhIRETEwoULt2/fXl9ff1zSsWPHkEVjCWe/yxOS0Aw2LYV1ya9tILs/ceIES/PNmk9LUq1GFV8+o6ann34a7mct1nNm9Pzzz//DP/zD80zPPfccK4kmNvP8888XFBSEhoYi1nPGzbEdFBTEq7Qh7w/wAH9/f9U2SvBBO/wy8n5Go9FXkslkiomJmTlz5muvvfbnP//5gYV8cAj/61//+u1vf3vPnj0TJ0708/PLzMysra2tr69/QtIxNWnTTr3Ak08+KZBsrqgNtrKWuNWoQhsM+znMA7WfeuoprCJ0AsQ/9wtdwXPPPQePAL6qk9o8//zzsJ955pmMjIzQ0NCgoKDg4GDQSwxrAE9gc9phWxK6QTVwJcKVVJvzEOF+fr2QE+ehoaHjxo2rq6u7cePGgznlZvenOPHUCP3oX/7yl69//et79+6NiYkJCgpatWrVkSNHwDaWR48efeKJJ9Qwv+8j4OF68sknhZiPBseOHaNNkYfWNQc/NbCwvxCYf+qpp7gH2HOPhRkB9SkEPPUURLjAPDAe6BKdAiA/evRoamoqZhnAszJdJ86VMCs9hDd1AdxQBZsIDwjoDenaEvJ2jjry9qCgoJSUlLq6uo8//rhLvijLacdp6a5Lh8ZwDL+///3vHzlyJCYmxmQyrVu3rr6+/ujRo1gelUXAg3YqcmJhUxWM+31A3ySf+6lTEEhGNyH0FNQL8MbcpgbHjx/nGPMibGrJm1loU3ZAkMNQ7QWIf1XDHP/PPPPMs88+u3///oSEBArgBLPSUMIseDjJqrZAMi9y8vsl3Gg0crDJRiTHyDw5Ofn1119vb2/vktTd3Q3D7ZeOJvydd9558sknU1NTvb29KyoqAHZdXV19X8mk9/4HumRwpKkZdwqoK2O4knZQTX5C3RztxCpHXSPgowqNaV1VAy1Vsecwk42WKHKbh31uCzGfuoBnn30W9pYtW6Kionh+bgXbmHU3aYoYVoJNVdps05SbOcKRsSOSBwcHz5gx4/e//31HR8eDg3dXV9eQbkepq6vr2rVrr776aklJyfDhwxcuXHj48OEjR44Q3nWy+sLeWyKSyXjiiSfIVoWfmFcN9bwXoC6AVuEGYc8NAhtO6hE4ydxJ7bnBCSekuVOwqQ1dz+cGryX+NQwhF3j66aefffbZEydOVFRUYBBOI3BbCAerStIFhpWQ98u2JXjTmNxgMBiNxsjIyJqams8++6xLkqNO/EF+HUcQ3tnZ2dPT09bW9tZbb+3duzcoKCg2Nnbfvn11dXWccAIbpKPIbWrA2RZsZXdAfYGyCl2D0EEAWg65YCu7DAF+KmJFKlKmwDmHDZiVfuoyBNqppeDnQwPOvKqN+QLeCxw7diwnJydQlpJtmnKTm4j/TRZIyTP3ENt8qpycZFAqbs7onW2T5CvJYDAEBQUlJib+7ne/6+rqGmTsHPjyjiAc0xuffPLJa6+9lpub6+3tvW7dusOSQPgRSYBZWNYzWVLFmt8zMcivr6/H6soGRD71BUKvoVqktYQOgncHnG2hX0AVpQ9CS3NFAhvkc7ypijsttCkXqKurmzVrlslkUg3ggeZlskyYOeM8cxvXycAwuCWeyTDHM/llrtX/R0REbNy4sbu7u7Oz04GUDeZLOYJwDHuam5uPHDkyevTo+Pj4g5KQpQPvw4cPCwALRfQFgpMXld2EADNvTEMD3oZI5k7Y6CbQAOvCploUOd6CLRBOtYS60FOQX+gFQLJygkA5KADeRD4ZhD08KALyQ4cOJScn4562QIvveDExad+RpiSc0CWDWFWN4bxW1SayEbpRpDAeEhISExNz7do1D+E69Dpdsjol/eY3v6mpqTGZTHl5eUeOHDkkC8GcL8EqLYUqFKkWhqqzTiEAqXD3OgSq0UZwKoucc6EWVUQ+FSlTIMipypxBLZWxHfw/+eST6CB4A+oLuBM20U6QHzt27Pjx47t27QoPD+cBHJwHasokSYNtCtSEMfcEBAT4+flh9WDpCjxdAKP2MDCuVgUbTsJbMEC4r6+vv79/VFTUj370oy5JOpzlTr8JO8ZwHESk6D09PW+++WZRUZHRaNywYcPBgwdlwMX/nGfYuJUSS6GWOCf/kSNHYFOVtoG5AD5Y4O3rFFLFWHAq+wvewBzGNJrg+b9qYwKeDDSjIg/73Em2wDzF/+rqajBGYIN2DcBNFgg8q96sRgwHBgaOTUpMTE5KTE6Kj4/nV8I1kOZVuDYmsE0xnO6BCQ8PP378eKf0hWWnx1OHHXQE4V1dXR0dHV/96lfnzp0bGhpaW1t74MCBg5LIQFEgH0660xudAbUhqpWGandAzXgt55kaYPiAIm8AmzoFPnDgzRTdQh1viVrOPGwifO/evTU1NevWratR03oz2rp1a11dnYA6z/wFqlEE87CPHj2anZ0dJIkIN8lfNVGFnOg2F8ApVpszKDjHx8cnJSfNmzcvPSNjwoQJERERlKVzjJW2UZKvry8MjSUieWho6JYtW3BhXAeAnH4TdiSc3jsIf+aZZ1JTU8eMGbNz5879ml8pOWheRDtxLuYA8hc/VP1KJ6da1UZ3wAFGmsA9tCJ39msrOwL0HYWFhTNmzJgpadasWbNlzZkzJz09HcsMWXPnzs3MzJwnafPmzbzjAO0ccorhZFCPgP4lLS2N2FZFmpzEtqphjmfuJ7aN0v0qCWPHjhufMnfmzPyFi6ZPnx4fHw8/XfFSsk1VGlRTFSXqwcHB5eXln376KZ2f7m04gnB8R/f48ePJyclJSUkgHJDvZzogicPPSadoj2ZY8gYH2dez0Zh45t0BX0W1AZyHpe9+Hzx4EPTysI8q8gtVRDufR6SxA3eiJTqCOlmHDx+uqKgAv3MlZUqaJ2u+rAULFmRJWigpNzd39+7d9ZKUwwSiHQaaCcOBAwcOjB07NtACmTQFjAGwambOM3A08/X1jY2LTUwaOy1tyuw5s2bNnoUYDqpBqUA4nJYsfZkMBkNgYGBpaenf/vY39wab3p3jCH/yySeJ8H379jG0e00QCyds1SW1RC3hKviFWmoGg4N94MABygvITx7Ucj+3ecfB/Rxysjnk5OTAE+p8U7CpPe9NhA1iIGDJcIDw5kZdXV1tbW1oaGi/gGvS3VupTTiRD4O4NZlM8WNGj5swfuLk1Li4OH9/f6KX2pCBKl9J1EzVQBta4qq4h3DiXx8DWfqxY8dAeG1trZJwsL2PSegC9u/fj0qln/cL2rVCnD+g0EFJ5EZ7OAl7MohwNKCiElFtDwEMQ9mYN+CjBvjRNQB4sgl1bihraU6hrq5uzZo1/v7+/DEPStq18eZJuDmbEw5icXdab7SXBv3oI4xS6m6URGCTAT+4ha26RAPctQrbE8P1QVrYSpf0hR4ifMeOHY9LYjj3mnAqq7j/8ccfF9ZSdhbgEz2COeD7rUVSIKQGvHjQjGg0oVqvWsuRprW4U7A58Ko2SFbyL3g48PX19VlZWQEBAUqq4QHbNs6ocby5Tej2ez2Mj719zc+uEdtKA1n6J598Ipyl7lp0RJYOwp944okkSUQ4obtXEhWVhsA/NVDSTsBjFTQgzoX25KcEgRqgirZGLdF9YClkBKpteHuyCWOaLyAPJQJKj8A5ipgUQGCnBoS94Fc2oJZ1dXWJiYmqM+facRsh11zEFjJ2TjW3OeHmbKMsDbDRxNe8kKWXlZV5CNezRyPCEyVt37599+7de/bsAdh79+7doyaq1eB/7969iOrE/OOPP67d3lwtsS1QTX2EuQbUFwgrcr+y6oD0VCmeFIB2LDnesKl3EBoIRXQQtDpHmmwygDd6gd27d0dERCgJp9BtLnpzwjXm1cAtp5rbqEVmrko40DXKz2/xHUj0NhgMhLzBYAgODi4rK/PMtNlKeE9PD20ChNfX1yclJSUmJm7bto2I5hhzJ2zUwiZ0+SoAG5xzP7cJfu6ETVXc4CSDTJ4OCLXmioQ3BXZqSR5ucIABreDhRSXzqCWwBYOQhkFx+/Dhw9QjrF+/Pjg4WBiE9xu9Od7mwjgnWWmr8qzq1KAa/PuaFyDHMiQkZOnSpR7CCU8dDCIcMXzr1q27JRHSlhiqoR6g8tWRHZBHSbXg4akEegpOO2xaBcUBDRkIbGUY54Rzm8I7dyLaYwmeUcsbw48l9QIC7cIogBqXlJQgAgNyHro1ore5oE20K5HmHlWSBSenF7bq0ldTHsJ1wFh1E13S1/RAOEZ6iYmJW7du3SUJnKsud+3apeoXnCBZcBLkZBDw/RoEMzewFnkE7AW/soMA5KpzhJz/fm3V2UFOOO8RgC7vEeAxlyDMmDEDVBPhGmATwBoGJ1nVBsnAVaCaV1Fmrgo21WoC3vsMVoP0GFZfX9+QkJBly5Z5xuGqwFrj7JLU2dl55MiRxMTEsWPHbtmyZackcE5LOHfu3EkeVUNosHv37n67g34boI8g/tE1CE6qVRoEORINXuS2atdATmXXoPSo9gIEtrIroSrBQEs4YcfExFCKDtQ1lhpg090soFSVbXp4gyrYAt7mwIZfG2yqNcgiwh+gLB0E2m+Jr452dnYePnwYhG/evLlWEiGtYQBy1QbEP2eex3NqwJ1ko9ZcB6G9rjnIuR9sw6O0lX0BeEZ7YdLBQtR5M2VfwHkWajdv3hwSEgLCOb0EOXcStNxJtkAvNYZBSBO35CGDqswNvIlbX+kB6cjAuZNsmev7/319fUNDQ8vLy//2t7/Z75x3qi077mrZ4cOHx0ratGnTjh07ADktVRneuXNnbW0tB3jXrl3UkncTBCTVwiA/DO1aaky9ADcoESCD1yptsMpHCmjDewHiX5gOID9PAQSb88x7BMFvrgjI9+7du2/fvtLS0uDgYJPJhHE1gS0YFJ8FbnmRQIUhAM+vZhPJfBVywiBWuSFk5sCXNyD7PtmyRYR7snRrEnKNdRDDx0rauHHjjr4izpXG448/fkDSwb4SnDRd3LdVb4nfgmaullbnBp9zFu5FRxXdMSK0pFry0x2mZAj3q9bJolvQZIf6/3om9RaKb7yzNURzyZIlCQkJo6WHc4w2o3hJcXFxMJTLOMsUq6kYSdHR0TDMLaMlRUVFBQYGmiNchrrP/weR8B77Cw/NOXTo0NixYxMSEjZu3Lhd1g6m7du3o1RbW7tjx47t27fX1tZ+73vfa2xsbGhoaNTU27J4K9nXz/931ETrqFXq4zvNRFtkPgeZ77zzzs9//vM3mb6nEKvUMr/rWH3zm9/Mzc0VsnQA7SOpD9xSAYQvX76cfqvU/qf/IL/CEAe8fnd3d0dHx8GDB0H4hg0btkna3p9qa2t/9atfXbly5fr169c0dV0WbyX7XOD/jcHTtWvXzp0719TU1GxeTZqi9TRbDaCSNqhhNDU1ffDBB1VVVX5+fiCZhuXm8EZfEBoaumLFCg/heoIPwg8cOJAgacOGDVslSZiLC1Rt3bp127ZtO3bs+PWvfw3C7YEp7w6uXbvGX+LGjRvoVsh5w56iVyEDO3D9+vUbN258LIt24eOPP4Yt11j5/8aNG1evXm22TU2SbNtGn7WxQXNLavrhhx9WVlYajUYeq318fHhRsBHDPYTriTdubuvs7MTXjxMSEtavX08YqxpbtmyBf/v27b/+9a+vXr0q4EcY6Gtw4JVbvsGkrOUe1nBwzI8t1o0bNy5duqQdwIkoZzM+/PDDqqoqTLyBZG28fXx8fH19w8LCQHh3d7fOJ7pTbs5BWfrnj0zHz+UkJCTU1NQA4G3ben/mXikifNu2bY4knFNKNmFPHm44mGC8NL0oQKYiGRYD3psItLa2ujrhQqBWLVLqHhYWVlFRgevhTomkzjs1CISvW7dui6a2bt2KemcgnPNM9uBiT7sBpKlIBqHODVXsr1+/fv78eZcmnIbfqmBTbPfx8fH29jYYDOHh4StXrsTVMp1hcsrNOYJw3LW6b9++hISEMWPG1NTUbFaII0+Eb9269Ve/+hWydG2o6OQeLIN2jw8oOGDOaWMQ7rqEV1ZWahOOvN1blq+vr4dw/TsiEP7444+PkbRu3bpNfaXg/Z5jy5Yt//Vf/3VVFqfInD1YhKu+Lu2kaq05p536AtWXu3Lliovi3dzcjJk2DcIRt729vZGiYxweHh5eUVHhmUvXk3NcD9+7dy8IX7t2bV/AN3HCeZVAuEz6vf/EDzdUz2NXdNqJc5qixzHBINxFIdcgnJAWDF9f34iICGTpep7iTrwtu2fpuNGts7Nzz549oyWtWbNmw4YNGxXatGmT4Nu8efN//ud/AmiOMdkC80I+T83IcAbUaWe4QVfmKMm3H+G0ZRqEuyvhyM055CB81apVnhiuZ6eE6+G7d+8eM2bM6NGjV69evYFJoBo1Gzdu3LBhw6ZNm7QJ55CQrdEjUBsCyRmYV+6Dud0jOHUx6F4XdyKc86y0ifBPP/1Uz1Pcibdl9xiO6+EdHR27d+9GDK+url5vmTZu3GgF4RxjVVuI/NRGSdpgecwRbuGu9ss/bqS5evUq2HYPwpU8Cx5vb28QXllZ6SFcz04JMXzXrl1EeI0kJeYU2lFlBeFEL8EwIMNV4r/qm6L+SJtw4H39+vWLFy82yWp2QQnjcPCszMy539fXNzIy0kO4nnj39PTgeek7d+5Ell5dXa1KOJw1NTXr16+HvWHDhl/+8pcWUqd60uvoJH5Ub5LntYNlq75Z7AxNsAF+OD/66CMX5Pr+LhPhQqw2V8T18MjIyKqqKs84XE/IzRFOSCuNddLv8q1fv37QCe939k7J1WARrvq6wu5Rm2vXrt1nxTUtKwhHDPcQrifeGIe3t7fX1tbiG8hVVVXrmDje5CbnL37xCyeJ4QIqNBxQ7h5R5IQG3sX169cvX77sosNv6o5AuMFg4Fe8VQO4fMNL7zg8MjKyurraE8P1hLyrq6u9vX3Hjh0gvLKycq0FQhj/xS9+cUWSANi1a9c0GOONeRBWTbB5Y/vZdD1s0LHHe3Td29GVhKtSzZ0ewvXkWbktIjxe0qpVq1avXr2mP61du3bdunVEODjnS44uAW8/RG3csvOEerwR170dfUCEe3t7e3l5eQhXUqmnp7u7u729ffv27SB85cqV1dXVq/uKPAT+6tWr165d+x//8R+gWojYgvPKlStCAyraSKa+q9NeCQa9igMiPHrDc+fOESoualCWzsM1bELaSxIVjUZjVFRUdXW152qZHQmvqKggnoF5tay+1N8nnPMgsC1U8SJsgmdw47yQcfC9oh3TbmPuIvlAO4Vr165dunSpubnZbcbhqoSDbR7Avb29jUZjdHT0g0X4LTuL7njZtm0bntUHwmWo7/1fvXq14Kmurl6zZg1iuJJbvTxEl4Cc8xeVYFvYBVy7dq2lpaVJkotGb+y2uRiOiC2wDScIX7NmzWeffWbnE99ZNj/E3jtCc+lbt24F4StWrKiSVF1dDUMoAvWqqioiXCMJHxDqfBivmgs4Odiqb5b2+bokFGGrLq9du/bRRx+5JeGUjZszPITbhXeMwznhlZKqZAFpAI8qLKurq3/+85+roqh6rlviRGfBt6nEnntom9ecVbSHZKjuKdF+5coVPHrRzbJ0c1Rzv4dwuxDe09PT2dm5efNmxPDly5cD4MrKSpnx3v/khFFVVWUPwgkD2w0BJNqg4HeeIsb5GIS7dH6uzNI5xho2Ef7pp5/a5Vx3vo3aPUu/detWT09PR0cHEV5eXr5KFmDGUvatIicIv3z5sl5ZOkFohcEDO08BNDblDGzT7tGMQ0tLC6bZ3CCGr1q1Cne8aFBNVV5eXr6+vjExMWvXrvWMw/Xsi0D4pk2bYmNj4+Lili1btnLlSuJ51apVKyXBw6uqqqp+9rOfOQnhhAoMJfCEPYHNVyHnIBrYH/cYhOMZL6tWraIHuRDJqgam1o1Go4dwPdnGtkD4xo0bifAKMwLqtKysrPzZz3526dIlQE4IcXKc2aZeoN/LYI7B/urVq5cvX3aDK+GUpfdLOF0z8xCuP9i0RRC+YcMGgfAVfaWkftWqVT/96U8Fwi/LIn64wYF3htye9od2kjyWGPqSf/XqVbcZhFsYwwXCkaWvW7fOk6UTnjoYSsKXL1++YsUKJdIc+YqKipUrV/70pz/lAZw4sdywBCTnaUNIY5eoqItx9epVXAl3g2k2SwgX8Pby8jIajbGxsR7CdaCabwKEr1+/HjF86dKlnGSyCXjyqBJ+9epVJd5yXO+dkyM55wBeuzehnadmurCNjVy5csXVvxPO+6YPP/xQI0tX4u0hnFOppw3Ca2pq8MOypaWlyyWBZCXYAuGXLl2i8946g/iHQRtBZ0FdBkHlbAbfYdo3QEtF7aE+mrnTINxcDAfYoyQpIff19Y2Nja2pqfFk6XYhPCYmJjY2trS0tFwSODe3RBqPcTid4jYaAuFCUXXjHCEXsoXIjz1vbW3lMdDVbWUMVyIteJClewjXE2+6Hr5u3ToQXlJSsmzZMkCuukQtxuo/+clPbByHq3LLnUKEF17OhahW3VUe6t3gG6O8VxIIF2BWLRqNxri4OA/hdiF87dq1MZKWLFlSXl4OjJepiWqXL19OhFsSbzm3etlK/i9fvgyWhLl65SuqIjdYTrpZlUPi0jYRTjCPGjWKbFUDhG/YsMGTpesJOcbha9asUcbwpWoqKyuDu7y8HIQPFt5KaOER4ryA+mAxrP267nSdDB2TknBVqsk5atQoD+F6gk3b6unpaW9vX7NmTXR0dExMzJIlS9S4XkrhnGo54eZgG0S/wDlFe9Vd0sbPAbUXLlxw9dtUhYyDCNcO3agdJclDOFGpp4Hvlq1evTpaUnFxcZmaCGwyysvLf/zjH+OOF+KHDA6SqpM3GBTbir2yE+rul6JjLn3lypV4ThMFasEgvEdKMhqN8fHxnixdT7zp++EgPCYmhhNeqqaysrLS0tKysrJly5b95Cc/uSSJaFE1BgVg615Uuf88yadt6oU6Nn758mUhALpB8cMPP9QmfNSoUSNHjkT0hg3CN27c6BmH6wY5EV5dXY0svaioiLjmsZycZCxduvTHP/7xxYsXAbnboy6k/brQjo24wZNVlV2SBuGg2svLi/CG4SFcN7D5hnp6etra2qqqqqKiomJiYjjhBHOJQqWlpUuXLv33f//3ixcvKuMePJx8l+OfvymCmZzk4RHeusB+5cqV8+fPu8GD2QTI+yUcmTmH3EM4B1M3GzNtFMMLCwtLS0uJaG6XlJTwYllZ2Y9+9CNz43CCYaAGh8dpbdU3pbq32thfuXLFzW5lI85VCQfPSrYpho8ePdqTpevGNjaEq2WVlZVRUVHR0dEFBQVLJJWUlMDgS5APT2lpqT0IV4XHXIasCpUzOPEuVPeEM3/lyhU3u5WtWZZAOI/V5myj0fjAEX7bzgLkHR0dq1atAuGLFy8uNq8lS5ZQZUlJif0IpwzfHPCCX5Ulp3LSDgt75X7XycC4KuF8ak3JOQjftGnTzZs37XziO8vmhzhgR27dusUJz8/PB8NFRUVkFMkqLi6GWVxcvGTJkh/96EeYaaPT196GMJ7XHiMILKaaRhMAACAASURBVDlh8fLly/RQlyZJcgh0+f+4Hu7t7a0kWdUzcuRID+F24R2Er1y5EjE8Pz9fxln8X1hYWFBQUCipqKhoUAgXehABeKFWteg8nF++fJl+/AB4u9NNL9YRPmbMGE8M15lzEF5RUREZGRkdHZ2XlweGiWSAzp2FhYWI8D/84Q815tJVAdPXqRrDzWX4zsM2JtguX76M5y66fLxWewPI0pWXxJQBHBNviOEJCQmbN2/2ZOl6Qs4Jj4qKys3NpUAtUM2LIBxZur7Q2mNr5pjXeC17dwd4aXyfzJ1CN8HuIdwSSh03Dl+xYkVkZCQIB8kFZoRaHsOJHytyZg3G7F01oN3WHXhK0d3vSjgg//DDDysqKjRiOIVuMoxGoyeGW9IvDKwNrocvX748IiKCYjjoXqwmVCFR/8EPfnBREtEiFF2IeXoLSoP6Gr04x8U/t7yVjcdwD+H9ouiIGK5BOI/iStgLCwv/7d/+rbW1FVTzpQAJEeJChvZb4KjTm+JOS2xcJ3PLFJ2+eeKJ4dqQO4JwjMPLy8sRw7Ozs/P7Ssn24sWL8/PzCwsLf/CDH4BwgQfrioSKixpENd9/cnIDDSjcuaVB43DhGjhy8hEjRlByTgay9C1btnhm2rT7hYHVIoaD8MjIyEWLFuX1VV/e75Xy8vIKCgpA+IB45qFeNaXH1jgkTm7T21fdTw42bDS7ePGiW4JNb0qVcIJZ1fAQPjB0LWwNwpctWxYREaFBOKjPlQS7oKAAWTqd4tYZSuaF76ths6r8uK7TXW9l0yBclWru9BBuIbMDa4YsfenSpSB84cKFwDg3N5fHcnKSkZ+fb0UMt64XMLcWJ1y4Ni4UecvBsuld4Nsm7joCB+Q8hgNj1cycCB8xYoTRaBw7duzWrVs9WfrAGNZufevWrfb29rKyMiXhgDmnrzjhusRwOu+1jYtqIlZV16Va5zGwn5hFd3vCMZc+cuRIbbaJfw/h2qhaWQvCS0tLMdOWlZXFic7Nzc3JycnOzlY68/LyHEk4Z1gN9l4fb8NtZyPczR6cTJk5N+h6uCV4oxfwEG4lw9qrYRwOwiMjI7OysrKZFi1axEp9TMcTTmBzelVttORVTgU5fr3oQYjho0aN8hCuAaAjrpaB8JKSkvDwcCJ8kaQ+QLMCsM/NzR2sGM7RtdrmMV/JPzar9NvuwSy6e+ON6+EVFRV4ABsNts0ZIyQhhm/bts0zDtfoFAZcBcKXLFkCwufPn094w6AiGKeonpub+6//+q+tra1WMzboKypDPe2S7SSrbuHSpUt0o4t7Q44sXZtwgD1ixIjhw4fTTJuH8AEzrL0CntO2ZMmSsLCwiIiIefPmLZTE8Saqs7OzyZ+Tk+PShPMYTmCTwUcEqqxa4cTG8YVwPmR1S9tCwodLAuRGozExMdFDuDawA65FDC8uLg4PD4+IiJg/f/7ChQuBMVBXFuHPzs7+/ve/z+9aJTxgKBFSeoRVnK1oLshzvGmfuVPVvnTpUmtr67lz59wSaeFN9Us4BXAy/Pz8EhMTt2/f7snSB4yxxgpEuBDDKZIT54IBwltaWi5evMg5p+hnziAkXM6gd9TvnisJx/V5N/5CuIWEE89Kw0O4BqfWV4HwoqIiEJ6ZmblgwYKsrKyFCxdmKcQh54TTqS8YrZIEp8tF8n55xhsUmgFywYlZdAEGtyyqxnBQTZm5ALmHcOsx1liTCA8NDY2IiMjMzJwvaQHT/PnzWemeuWjRon/5l39BDFcyrOoB8MKSWnIYyOnq3QF/I25/LzrvqohwXC0TYFYt+vn5JSUlPVhZOp6Far/l7du3QXhBQQHF8CxZCxYsAO3CEohnZWUNlHDhdEeRgFetFZy8F3At++LFiy0tLe49f26OcFWelU5OuP3Oeafast2vh9+5cwf3tBUUFISGhoaHh8+dO1eVZ4rh8+fPnzdv3vz58/UiXGDYHPY01L906RKt4kKQX7x48QGZRQfnPIYrYVb1cMI1sk53qrI74bdv3wbhixcvVhI+TxYxD7YB+YIFC3SJ4YSrhsHjvGsRzt+Uuz6wiYdusjnhuNytSjV3Go3GBy5Lv2N/ccIjIiIyMjJkru/953jDlZmZOW/ePEcSzjkxZ6MXUB2381UGJew/aCk67mlbsWLFyJEjLcQbd7wkJSXt2LHj5s2b9j/xneIVhjhgL0B4fn4+Ynh6enpmXxHw3O2EhHOMLbEdgzp6nActRR8Q4cNlIUv3EK4z9bdv325vb8/LywsJCQkPD58zZ85chTIzMwUfpty/973vtbS08LTZErQc1oZye27QqzuG8MuXL+N+gSZJlMS6vfHhhx9aGMNlwIcjS/cQrjPhiOEC4QjXnGoK4OScN28eCKc5MILHmQ1OO9mW7LB1PQK27PZPdFF2WEQ4H2kLNtgeJstDuM5sY3MgPDc318IYTqjPmzfvzTffbGlpcS3CVWEm1MlQbUZOy2nHKg/ULDpo75dwwptiOLL02tpazzhcN9Rx4aG9vT0nJ4cIz+grBO2MjAyK3jCIcGShYIMYcFGDCFc1hDdlCec4OA/ULHq/hBPSguHn55ecnOwhXDe8saHbt293dHRkZ2cHBwdjHJ6eng7G05mIevgyMjIyMzPffPPNCxcuEAwAwD1QF2AWisJbRq0SeEyzXbhwASf9A7VUjeEUt4cNGybgPXz4cH9//6SkJA/h+hPe3t4OwsPCwmbPnk0ME9VkpKenz5GUnp4+d+7c7373uyC8RVJraysZxADP4VWdAjyuW+Tvjr/rBzBF53PpNPbmSCsJHzZsmIdwndnG5jAOX7RoUXBwcFhY2MyZM+fMmcOC9z0zIyMDFgifM2dORkYGJ5yf3+CcllTluvRased41wjgD87NqpSnCDGcojfnnNsewu2CN+5abWtrA+GhoaEgnCAnnmHMnj2bPBqEE9KCQcxjfk6o5UUriHLOVdz410UJZlVDSfgwWRxssj2E24twXA9fuHBhcHCwknBKy2crxAnncA7U5tjDNrcF52TY3F7hXZw7d+4BDOA8SyeGtQ0Qnpyc7LkerjPqAuEzZsyYNWuWAufZs5hQm56e/p3vfIfPtJkj0zq/QLtq2DdH16D78ZYfkEeyacTwESNGIHJr4z18+HAQnpKS4plp05nwW7dutbW1ZWVlYRw+ffp0xvKsmbLIOXt2L+1I13UkXAmwMrYr26j2HU6Cd2trKz0X/QEM48jSQTjwVs6uceyHDRvm5+eXkpKyc+dOz/VwPSHHTNuCBQuCgoLCwsIQw4lnMmTS7/+fM2eOjoSrsmqdc9AJpxsEHsDL4BTPiXCOsaqNID906FBcD9+1a5eHcP0Jnz9/PgifPn36jBkz7nMsW7Nm9YnnM2bMmD17tlMRTjGf+oXBQh2XyihFp5P+gTIsJBx4Dxs2zEO4nlTzbSGGE+HTpk1TEj6DaebMmSg5G+EENhnEvLn03q5dAC6DP4D5OToySwgnvGF4YjgHUzcbhM+bNy8oKCg0NDQtLQ1hnEHdx5wua9asWYjh5vgh0lzI0Gae3oh2M36nqodw1cwcU2uqhHvG4bqxjQ2pEk6Qyzj3pu6CZs6c+Z3vfAdxkk59FzUo2tP+c4ZVnbyB0qYU3UO4knABbCr6+/snJyd7CNef8La2tnnz5gUGBoaGhk6dOhVUE88EOTeQybsN4cQwoc4NqiVDiTT3tLa20p2qHsI54QSzquEhXGe279y5g2ettrW1ZWZmKgkH0tPUNH36dMTwCxcuuFOWTgxzg9MOm9eSTZDjZw/wyAcP4UrChw4dqkE45tJv376t/+nufFt03FOc5s6dC8LT0tKmTZvGw7Ua4L2+mTNnfutb3zp//jx94UQggU597ien+xnU09Fl8OYHWDTThsvgqkgLTlwP37VrV1tbm4dwfbojetZqRkaGQDiBPVUSFcmYMWMGCEcYB8YXmDjYSttdCafvij4gv09mrhPjhAskmysS4fx3y/Q50Z11K0Pu2llI1Nvb2zMyMkwmU0hISFpa2tSpU6dNmyaAjeLUqVPRAMP1b37zm+fPn1fSK3gY9fdM3sBtUMebOn/+PE76B+3BbALqnPChksyBjVpcD09JSdklxXBC8q5byxFZOu5LT09PB+GTJ08GxmmyiG1iHg2mTZumjOEcXW2bsKdmA0WdsuKBrmin9ngjbvDLZHzu4OzZs8KdeTS/oGoQ53he+vDhwwlgc8NvaoDr4bt3725ra7sri1C3wrAl1affXcDr3r59++7du1bsg/Yqdo/hd+/eBeFz5swhwmW0e/8LtKNqypQpGK6DcELUkYadKLVls3j7dIq7tEFgn5WlyrOG84MPPli+fDnuSyeGtcO4v7//+PHjd0l3rcqA3/+vjYqNtcQzGdgg+giwDcjv75Ae1iAQnpqaSoRPkYQiRx2ET5061cIsvWXguiBLdVWa27MFSN3XbWlpcY85NnD7xz/+8d133/3v//7vX1ulX/7yl5WVlbGSYixQdHR0YmJienr6jh073nvvvQ+t1Qdq4htTq1f3vf/+++fOnfvrX//a1dWF8aweUPfZxuAQTmCD5LS0NHgmS4I9ZcoUuxKuCra2U3dirdigS38bHMl5U1PTn/70p1/96lcvvPDCunXr8vLyFi9eXFpaWjZw5efnL7RYWVlZixYtys7OXrx48TJJ5ZKWLVsGQ1iiDV+Wl5fzIlYsLS3Ny8ubrdAsWaiRS33+z549u7CwsLa29jvf+U5zczPP+e/qJMcRPnv2bJPJFBwcnJqaKpDM8Z48eTI1SEtLs18Mb7FMcqTv859WbWVSdbJ6HUxXf2AT8vH33nvvpZdeWrx4cUpKSllZ2e7duw8ePHiEqa6v6uvr6+rqsIRRr9BRWaiRS/f+k/MJhY4xPcl0/PhxVuo1j0t68sknsQZqjx8/Xl9fjyeFhzKFSAqWBDskJARFWgYFBQUHBwcFBQUGBsbHx69cufKHP/whJgju3LlzVyc5iPC2trZZs2ZhHD5p0iQQjmWqQlTrDIS3mNcFJvOtxBpbQKf72JpdU01NTY2NjfX19bGxsfPnzz969OiJEyeOHTt2vK9OyHqKSfadYL575tNMVMt898xn+urZZ5+F41lJz5nR8331D5Lge+6555599tmnnnoqIyMjJCSEAR5KVJNBYMMgvGEEBgYajcbJkye/+OKLn376qUsSPnPmTIHwKZImT548adIkBea9DicnXGTXsrIthLv0BfCmpqbTp08fPXo0Li6usrLy+PHjxDbFw76k95ZArAbehDQ3lHhzD8AmDwcftPOlAP7zzz9PHnD+1FNPpaWlAW/wHBp6j3AylJwHqcnX13fq1KmvvvrqzZs37+okB8Xwjo6OmTNnBgQEBAcHT5w40Vz0FjifMmXKoGfpLXaT5ajjoh3d6OJa8bupqens2bNNTU1//OMfX3/99WnTpq1YseIJScdkgfBjx47B4Ckx2cdl8e6AyNc2OPzcfvrpp7HVp5566umnn0YVyCfseZGTT/axY8fGjBljeQBH0KaQjiw9UFZAQEB2dvZvf/vb7u7uO7Lu2iAHEd7e3j5jxgwQPmHChElmlJqayuO5uxJ+QVKLpoh/tGptbXXRAN4k66233qqoqMjJyTly5AjGx+BcWIJzmf37/5+UBZdcuvf/uHnxPkLoCHbv3r18+fLq6upDhw6hivMv2BTzn376ac7/vn37IiMjNQgHzBSzOdtwynT3/jeZTGFhYXv37v3kk0/oCvldGzQ4hE9U06RJkyZOnIgl6lNTU//5n//5/PnzF6Qvn7S4ry70lfBGW1tbXTSAN0tCGP/GN74xc+bMbdu21UmqZwLw5pbKLoA89zsANQv089QAnuOSDh8+vGjRogULFmRmZi5duvSJJ56AX7kU+gVO/okTJzZs2BAREaGakAuzawQ54jYVA/vK398/MzPzvffe0+X6mYMI7+jooBg+fvx4NcDv+ybISk1N/cY3vgHC+yLQp9TivsL7bGlpcfU5trNnz+7evXvevHkHDhwA4UrOaZ4cBgFPXQF5lAYxr2ocO3aM+8H8nj170tPT58+fn5eXl5+ff+TIEfBvbknknzhxguynnnpq6dKlSrxDJAVL4mk5p5psIVE3mUxRUVFvvvnmHVl3bZCDCG9vb58+fTqy9HHjxgHhiRMnyiz3+U+sqxJ+numCQi3uJXp/zc3NuAms2dWEAP6HP/yhqqqqpKTk8OHDhw4dwqUxjnpdXR056cLYkSNHhDYaV86U2HNPfX09Lz7xxBNHjhwpLCycO3fuokWLqqurqQugYQJdGEN+8KSaTpw4kZOTExwcDKQ52LgSRngTz4GBgdzuG78DAwICTCZTYGDgF7/4xTuSbKC7d1XHET5t2jR/f/+goCAivA/WrGAh4RcslqtT7+q/anL27Nn33nuvuLh42bJlhw4dAuQwDjORB6ijBjZfcubRBSDIcz/ZqDp69CgRTp6jR4/u379/3bp1W7duxdQAID969OgTTzwhdAc8CwDwtJw9ezZitcaSI022ELoxCMfSZDLt27fv1q1btkPuUML9/PwCAwPHjRs3XhbjeoIypE+aNMmSLJ2TzgL8fdPVCcd9bE1NTc2uqaampvfee6+goKC8vPzgwYMHDhw4KOmQmg4ePMiov29y/u97Dx8m+FV7BEJdaQD1+vp6yhTIozQE4KkXqK+vT0lJMce2ADMVA83IJAlhfM+ePbdu3bL9TnXHET516lQQnpKSwsGGPX78+AkTJgB8qgXhH330EWfYfrYTdgQXLlw4f/48ZtFdnXDcK3pAIQn2+wvUo3zo0CFzxsGDB9X6h94EATkCjMNSFwCb+gJzhmovQE4l9hhZREZGqhKO/BxUa2fm4B14m0wmgfA7tt3f5lDCeZYOmGk5gYmcEydO/Kd/+ic7EU4hXrvLGFzsL1y4QHNsbkB4eXn5fgsEyPfv33/gwAE0hwE/pQCAX1hSLecfbWpqavgt6MuXL1/RVxUVFSslVVVV7dq168iRI9RNoKegrgFsHz58eM+ePUFBQSEhITTeBu0ENmdbmZZTLAfeAbJMJtOuXbt6enrom2d3rZUjCMezVtPS0vz9/YODg1NSUsDwOIWIbRh2JZzA1kZ9sAjHBcILFy7QZXCXJvzdd9/Nz89funTp4321TxJ8sPfv3w9j3759+2UR6rJD/E/wo1+gIozDhw/v2rUrKysLjx6ZLgmP+sTvcMyWNEf+0eu5c+dWVFQIaQKnHcDX1dVVVlbi2xZAmoI5wUyZOXlM0kQasU0Db5nu3pk2k8m0c+fOnp4eGwO4Q2faQHhQUFBKSsq4/oQ2EyZM+PrXv/7RRx/1e8GMcNXRIPJh0JY58+S00xV7epxLsysL4/Dc3NzS0tI9kvYy9UW+T2nfvn1UJuxhCJ0C9Qv7ZQkdxN69e6urqwslFUkqZloiqURSaWnp0qVLt2zZQukAUgCeFMA+cuTIokWLAiVxkgGz0iOR2ztPToKHL4nz2tpaxPC7tskRMRxPgCDCk5OTU5gI9vHjx5PtDIRzegdkt+ghvCIF8GZXVlNT07vvvssJlzDvZ7F3717eYq8sYv7xxx+H7/HHHyfsYVCRqtBZ7N27l69O3QQZtDo6CiEXIObhP3ToUGpqKl0VUyJNcZuQpogNqsEztwMCAvz9/QMCAnbs2OF6hPv5+QUFBSUnJ3OSU/oK/GM5fvz4QYzhYMzypRDqbYzqeN0mSa5Md+++g/CcnJySkpLdatolS6jkhAs22CanjL/Z/2BYIJx4VjWQFwB11eXevXvHjh3LZ9QoemP4zcGGDZgxnYYZNe7xlxUQELB9+3aXIRy/LkwxPCkpiaAm1MeNG0dO4I3huv1m2oCQXZeqeX6LLNWXlit7/2OOzXWH39QxgfDs7OwlS5bslFRbWwvD3FJGXvwvdAG7du0SPLzI+SebjL0KUS9AHQGawM+X6BG2b98eFRUVEhJCJAcxIVxTFRmENBmUmcNADN+2bRuuh9+1TY7I0vlMW1BQUFJSEoFNVKekpCQzwT9+/HiXJpwzLNBuycwC2HYPwk+fPg3CayUBbNi03LlzZ21t7Y4dO/rln/oFsQNQlDnwShu0w0/k79mzh7MPP/cQ/+vXrzcpps0oM+dVBLNgCGzzomsTzli+Z/LAnpSURFm62xDOaSdbmdhTFT1Q1W0IX7RoUXFx8fbt23fs2IHlDjVpVFFfQAahrmHs2rWLahU9QG8KIDipIwDbWCp7gccff7ykpMTf3181IQfJwqgbTo4xbARt8qO4detWF4vhU6dOxeFITEwUCE9iSk5OBuEYrmMcTue9SxuWxG3c4uIeU+jNTKdPn164cGFRUdG2bdu2b9++bdu2rVu3bpOEImzUbpfFewAl+cS50kAioPTDQ8DD4IQLHs4/kU8GHhBOQTtIUmBfgWphSTDTvJo8AO/97+fn5+/vv3nzZhcmPCkpKVEhhnlvDEdUdyfCLeyeENgxQdXsLjp9+nRWVlZhYeGWLVu2bt1Ky82bN2/ZsgXLLbK2ypIdvf9lXz//qafghtxj3P+ProT3IP3atUzoQRITEylKc2jJBrcgVmDYr6+EWn9//02bNrkM4bhaNm3atICAgKCgoLFjxwLmxMRETrXSmZKS8rWvfW2wrodbCKS+zYC3q9+IzvsljDJOnz69YMGCgoICsLp58+atW7fu3bv3a1/72rckffvb34bR75K3/LbF+o6k7373uzC0l8pm31XoW9/61u7duykBud95SBkK71/QJ5FH6KK2bNmyePHioKAgf39/o9FIMXzjxo2uRHhHRwe+PRoYGJiQkJCYmDhWkgA54jqqxo4dm5yc/KARjv4CAdwNRuCUiZw+fXr+/PkFBQUI15s2bdq8efPRo0ebmppu3Lhx/fr1GzdufKzQDYXQhNwff/wx2TB4A9oeVfFX4fafJX388ccw+JI2wo0///nP165dwz3FHymEbrrfJdZrbm7+6le/GhYWhqCuP+F/t7/u3LlDT4AwmUwJCQnEMDc43rA54TheNEy1cEyrb4B1zNboRvRmdxGewTh//vzFixdv2rRpo6RNmzbV19f/6U9/uibpKhM8fHn9+nVetJ993WJdunSJOmJb+uIzZ858+ctfJsKJ8w0bNty6devu3bs2AjrExvUtWZ0IN0kaM2YMgU2DcXgS+iopKYliOPWIjsFssF7lo48+co/72HjvBMLnzZuXl5e3fv36DbLq6uo44arcXr16VfATg9xPTlsMvkGysUFkAbS8fv36xYsXbQGbjo9AuFGSv7//+vXrXZhwgKxKNWc8KSnpH//xH8+dO0d5EHHerzFYiFr3uvR23C+AI9CdPn06MzMzNze3pqZmw4YN6yUdOXIEhF+/fp2FcBFpgs12Q4N/bFzZgPv5DrS0tOhC+NmzZymGA2+Mxmtqanp6elwmhre3t+N56YGBgWPGjCHCYYxRU0JCAsVwTLYRBpYb1vHm+LXoDbr0jxZRXBIMxPC5c+eC8JqamnWSDh8+DMKVgZqzpJetpNc6z7Vr165evapXX3zmzJlXXnklNDTUz8+PE75u3TrXIzxQeljs6NGjeaAmurkzISFhzJgxiYmJyizdcryVLR2ProWviGkFustFIMSli02S3nnnnYyMjNzcXLBNhP/xj3+8evXqlStXHAM57ywIb3KSR9u4du3alStX9BpMuQnhHR0ds2bNUiVcABtsI84nJiYiS1eyaqGH0nsYfC0L2XNMM+yY2xOenZ29Zs2atWvXYnnw4EFVwnnGTjZxaJ2B7aiuq82zsvbatWuYZtOl5yXCjUajr68vwrifn9+aNWsQw21M1B0009be3s4JH60QRXLK4TEhZyPhHGmrbQdAfv78ebf5nonyvG9qanr77bfT09PxVNPVktasWXPgwIEPP/yQYvgVWUQ1N1ThtMKpRJ1eRXVrnPBr165hVl+vabbm5mZzhK9evdrFsnT89qjJZIqPj1cAruKIj49PSEh44403MNNmNZ/WrUjBn68O1O1xoQ4PY9Nl5qbZ+QTC58yZA8KrqqpWr15dXV29f/9+HsOJNFUD+AtVqkxa7eQbp42oDh/0mmbTIPzz4+N6hCNLj4uLi5cErGErlxiuDxbhBDahTnm+Pa7J40Z0dyW8ubn57bffnj17dlZWVmVlZZWsffv28RjOAVPaGKuTX4739/6TnwxC1GoDm8Lq4ByeK1eu6JhwIYaHhITQNJvRaPTz86uqqnI9woOCgkwmU1xcHA/ZSrbhcRLCgTrhjXSapr6pI1A1LE/v9ZqYdb743fv4BxA+a9YsEF4pa0CEE10wLFlazTZl48IWaB8wzaZLj+w+hM+ZM4diuCWE8yxdlR+ncvJQr7FjnHnK9jHBpsvp4oSENzf3Qv7OO+/MnDlzwYIFK5n27t2LGH758mUhJgsR2xKeNdqoZvjK9gLPyiJW0XGajbJ0xHDMtBkMBj8/v8rKSheL4ZzweHkobi6Aw0/jcA1mnKeKQ85jvrCHBDkIR1LgnGTqtVcYh8+YMWPBggUV8hOLV65cuWfPHsrSlYSTR4niQD1EOBnmtqCkmnuQq7e2turYHVMM95VlMBiMRuOqVatcifCOjo709HTK0kG4ObwxUI+Li/v8Z5kxDhcgcZUiknkl+cQ//eABzhgdzxu94NRlOyB8+vTp8+fPX7FiRYWsPXv2fPDBB1euXLncV+CQfPrGc4Ft6kc4/LinBS2JcCrq+zuwnHCDweDr6wvCV65c2d3dbeOlsr///e+OuFp29+7d9vb2jIyMoKCggICA2NhYYjtOofj4eJqKGzNmjDNcLbNThwL+dRzR6UKjnTby9ttvT5s2LTMzczn7HYLdu3d/8MEHuFomkKYscuA5jQBP2d5O/cK1a9f0utcF9y+eOXPm5ZdfDg4OBttEeEVFhcsQfufOHYHwWDUR2MQ/CG9ubrYTY4O+WXzPpEmSndByks02NjaCvAZVEQAAIABJREFU8PLy8mXLlpVL2rlzp+WEE8OEujB6F4KzXkV6XRiXL1/W65AS4a+88kpwcLBBEhG+YsUK1yD87t27RHhwcHBAQEBMTIwa4Pd9FNdHjx79xhtvuDHhFMDdNT8HDE1NTY2NjVOnTp07d+4ySUsl1dbWvv/++xbGcCVp3APshYQfDfj2rcCev8qVK1d0HIRzwkNCQkC4wWDw8fHx9fVdvny5axD+97//HYTPnTs3JCQkICAgOjpagJyQvk+5ZMXHx7s34ZhndvsYzglfunRpWVkZCN+xY8f7778vINRvUQjdGu0Je2pjBeHCKhcuXNCrO1Yl3EeS6xHe0dFBhHO8Y2RxtmVfDAg/d+7coKfT9tgBugau1xmjV/Zoj+00NjampaVlZGSUSSotLS0rK9u+ffv777/Ps27BJjIdbKiGfeyDXoPw5uZmTjiydB8fH8rVy8vLXSmGc8Kjo6NVeY6NjQXbCPLR0dFxcXGvv/66WxJOI3CEcXtA5STbRP/V2Ng4ZcqUjIyM0tLSEkmlpaXbt2//wx/+cPny5UuSBLyFov0gpxeiJF94LYRx1OrYHZsjHFn6smXLXIzwzMzMkJAQf39/TjiFazhjYmKAN/zuSjiulhHbOp40TkI13w0ifPLkyenp6cC7uLi4pKRk27ZtRDhxDtotYZ7ItDxvF9BFkbbDCScnDLTEF070+rxUCUeWbjAYli5d6jKE42pZZmZmcHAwCKcoTYRzgyB3Y8J1TPY4Tk5rNzY2pqamzp49u1hSUVHRkiVLtm7dCsIFnCwvErG0Cnl0Ny5fvoxBuO6E42oZ8nMivKysrLu7+86dO3+3TY64Ho6Ztnnz5iGGR0VFEeHRsuBEiezY2NjXX3+9ubmZbhGxx3jYwdukAO60NOq7YxTDJ02aNGvWrEJZRUVFW7ZssYJw7SDPwdYX+8uXL9PUiS6HSIjhYJsILy0tdSXCOzo6NAiPkiTDHo1iVFRUbGzsa6+9RoSDDb50MJy6vBwfgetyojj5RkB4Q0PDxIkTQXhBQUFhYaHVhBO33CDsudNCm3cKGra+t6PzmbaXX345KCjI29ubIDcYDCUlJcjSbbytzUExvKOjY/78+bhaRiGaSKbQTR60USX8nCxV1LmTbF3ItH0j2B98FdzJsdR99xobGydMmECEA/JNmzbxGG4Lpdowq26ZYFauS1U0Mr98+fLFixdp6kSv49PU1IR72gIDA318fAhyg8GwZMkSF4vhRHhkZCRIjmTibJOtSjhxa4kBLIWWtrNq3RZoN/Q6P1xoOw0NDRMmTJg5c+ZiSfn5+QUFBRs3bvx//+//EX6XLl0CbEqPEkIdPfS6fJsEOTl1vBJOH5wbEu7v7x8REQG0iWQl8GgQExPz6quvamTpxIw5A/FeqLWOT9vXwm7oHgfodHFmo6GhYfz48TNnzszPz1+8eHFeXt7ixYs3btz4+9//nvN8URL3wOYz7YScjQa9CrZDRXpFYfv6DsLxYSkJ95bk4+NTXFzskjHc398/PDw8QhIL4b1mVFQUPFQLwpuamgREbS/SgxwsfJaD7XhjC/Y4S5wZbNo3ED59+vTc3Nw8Sfn5+Rs2bBAIFzC7dOnSxYsXEWOFKgE/7SKtq91MtRbrXrx4kS5/6DWXjr4eWXpQUBCydCK8qKjI9QgPDQ0F4SCZlkBauYyOjtaeabMFdXk4f/8/35qdugA6S+jUf0CMhoaGcePGTZs2LTc3NycnJ1fS+vXrf//731+URBD2a6A9yKfGPMjDqYqrdc5Lly61tLTY45PiMdzb29vLy4sILyws1Ifwu/YXftUoKyuLCI/oK6AeERERLgmV4eHhUVFRr732mj1iOIeZ7PusSxb5NYwBxfYHNoA3Nzc3NDSkpKRMmzYtR1J2dnZOTk5NTY0VhBPVhDoM8msYAyKcbwffCdcxeqO/AOEvvfSSyWTykqQk3EZAh9yxv/DrwgsWLAgLC+NZOg3ICWkQTml8VFTUq6++6jDCNUjmv6zEm1lOuFs+C93ysHbq1Knk5ORp06ZlS1q0aFFOTs66detsIZwTyG2BfB7tB0o4jRHOnz9vjy8IccLBNjj38fEpKCjo7u6+ffu2jYAOsbGHsGR13PGycOFCTjgwJqTDwsLIJgOE48oh58q1bCT8D2x+jtEmCE9LS1skKzs7e+3atRiHcwg5qw62Of/CS9vv4ztz5sxLL70UGBgIwpGrGwyGgoKCrq6uO3fuWIKYRptBIBwwU05OPIcpFBkZaeNcuiP7AorzPLDTDlge7tyy5alTp5KSktLS0hZKysrKWrhw4Zo1a/7v//4P02kagVeATa+i6isS5PxVWltb7fehgHCTyQTCEcMNBkNhYWFXV9ft27c16LWkyqGEh4eH+/v7h4WFEd4ENXEeHh6OLiAsLMy1CCeYyeAD+wfzIhmBcerUqcTExClTpmRlZS2QlJWVtXr1alXCW1tbgR/HzJE2h//SpUv2uBJOR8Yc4UVFRS5G+KJFi0B4aGgoga1tREREuFAMJ7AFw34JHp0lzm+cOnVq7NixkydPXrBgwXxZ1dXV5ghvlcRJU9qOYR7XyXSfY6OPjAhH9Pby8ho1ahSuh7tYlg7C/fz8QiUR2ygKS9R6CKfzwNWNU6dOJSQkpKamzpM1f/78qqoqVcKVMF+8eBHM86VqM3Lqxb89blblnyYIDwgI4IR7e3sXFxe7GOHZ2dnh4eF+fn4hISGqYZwgR4PQ0NDw8PCvfvWrzjCXLoTlARUf8PwcZzMInzx5cmZm5rx587AcEOGELkFOHlVDL8LtdCWcIFcl3MfHh+5Lt2SwrdHGceNwVcKJas58iCw3INyTouNUPnny5JgxYyZNmjR37txMSfPmzausrHzvvffMzbSpcsuDOW+gir0ukNv7MqdA+ChJLkY4rodzwnmKDptQpwDuHjHcQzhdLRs9ejQInyspMzPTOsI52Nq2KvYWXpnDli9duoRvcVPI1d0gwkeNGoVB+MiRI318fEpKSlxmpu327dsdHR05OTmUpctBuvc/sU0G1bp6DPfgDR6amppOnTo1evToiRMnZkgC5KtWrXrvvfcQlrVZ1asWzJvbGo/5aINnJ9tvmg2/W/bSSy8FBARIwbt3AcJLS0tdlfDg4GBimAgPCQkJlkW1YWFhLj0O172/d9ENNjU1nTx5Mj4+fuLEiXPmzElPT8/IyEhPT1+5cuW7775LhJsLueaAtNyvvWWq5QY2fuHChbNnz9r1sPMYPlKWwWAoKytzJcLb29vNxXBim8CmLiAsLOwrX/mKLd8eHdCUmL6N7XpauNzGT506FR8fP2HChNmzZ8+ZMwfLFStWvPvuu62trS0tLUq6+JBbtdZywq1oiVd0QBbGCUcYRwx3McI7Ojpyc3MjIiL8/PyCgoIIZlXDDQh3wJnhWpBTDJ/NJBAucE5Um0OdboyxAuB+V0G/44CDbI5wPGvVNe5pwzicE458PEiSnJv3+Q/yXTeG23t6xgFnnr4vcfLkybi4uPHjx8+SNXv27OXLl1OWTjwrjZa+Ehr0y6rVDfBtE32Pg3JrRPhIJh8fHyLcxlvTHXG1DITn5eUhhgcHB4NtVcK5MzQ01BWzdARwu07PKE8UJ/ecPHkyNjZ23LhxM2XNmjXLQsIFpLWLxDNvRk7LjdbWVsd821cgfIQkVyU8MjISWTqP10FBQUIRHiTzX/nKV1zujhdPii50N5hpi4uLS0lJmTFjxsyZM7EsLy+3JIZzVq2zLQebWra0tDjmcxQIHzly5IgRI3x8fPCbJ/jqqMYNLf1WDbltZ925cwcxPD8/H4QH9hUFbcFwXcKF89tTbG5uRpaekpIyffr0GZJmzpxZXl5++vRpjWG2FTz3zejFkuoGiWpu4JEPDvjszpw58+KLL/r7+7Mkvfd6OAi3nU4HPQGio6MDhBuNxr6A95YoaANyLAMDA0NCQlwuhmME7knRBTYw04bHvEyXNGPGjGXLlulOuCrDVjjPnz/vmNuNifARI0YA8hEjRhgMBvwyoQ5PgLDxCRKWrH7r1q329nZOOCeZeA4KCgoMDDRJQi/w+fPVv/zlLw8oS6cvaet76cvCrTkmrxPgcYniyZMnR48ejce8TJNVVlZ2+vRpzFqbm0i3Ak7bV0GK7phuGoT7+fkR3sjSly9fjuvhliCm0cYRMVxJOOI25xxIm0wmQI7i579z9sorr5w9e5Z/0doS20IgdW/mIdxcdwPCk5KSpjKVlZW98847ra2tFy5cEPNpuWw7rgPagvyydnnuourBoRiOEfgIST4+Pi5POEEOmAlsHsODg4MRwznVqoeJnNRSd3r73SDwdkzHT+/XVYxTp06NGTMGj3lJk1VaWgrCiauWlpYLTNxP9oCIHVBjegnHXCfDZycQPnz4cMTwFStW6POcNo34rlcVvnlCWToCdaB5UQNVwolhbihPdJ6u85Zk90vsQBt4RuDKT4E8J0+eTEhISExMTEtLmyIpLS2tpKTknXfeIa5sNAYEs7nGGCw4MhcjwkeMGAG8QXhFRYXLZOkgfPHixZGRkUajkQAONCNqYDnhxC03mhUyhz1+LXCgSPP2FMCbmpoUL+txNOP74XjMy2RJU6ZMWbJkiRWEsxh/30TvQEN6obMwx7PSjyTCkR8YjcOHS6IsvaKiwsViuOMJJ9pVPzCqJYMTO1CbCFd9LY8ThOMxL6mSJk+ebB3hAr0oaozkeXsl0tyDlvb+QrhwMhDhYNsdCA/sT8oYjgcqE4qONLRRR1LgyKROOD9cpYjntCUkJEySlJqaOnny5OLi4rfffhthk3PoAJuDzW1HzqLjsxMIR6JuMBhWrlzpMjEcc+kFBQVRUVHI0vl0Gmy+RA9gMpmCgoKUM22OxNuS13Jwl+8qSPP9xPfDx44dC8InSpo0aVJRUdFgEc47EU74hQsXHPydAiIcbCNXd1XCo6OjQXhAQABHmgNPl8QDAgJcgnBPAOcwq9pNTU0NDQ2JiYljxowB3uPHj584ceKgE45x/HlZFy5ccHx/zQkfPnz4MEkGg2HVqlWuFMM7OjoKCgo44aqQA/UASYjhr7zySlNTkyWx1JFt6Dz2DL/pUGgYRPjo0aMnyJo4cWJhYWFjY+OgZOk8hpPt+ACOZ7y8+OKLfn5+iN4S4MP0Jfz2nTv2+Lt/re3WrVsdHR2FhYWccGUMN5lMYNvf3x9GYGCgdXe8OJL2Jkka57enCvelJyUlxcfHj5c1YcKEgoICIvzChQtyKO39f3+WXLoZRigSkzoaeInm5mYHXw1BDDcajSCcsvTKykrEcOnGVesJHXLnzi37/N0j/Pbt26qEUwwHzLQkvAMCApyccA+6lh+BkydPgvBxkoC5QDjHmIAng/gXmlk4i95vX4AU3cF4Uww3Go3Dhg1Dlj58+HCDwVBVVdXd3X3r1i2JcOshHXL79i37/N0m9fT0IIbHxMTQOJyQJsNfFnmcmXCc3I4/ISyHyqla4nfL4uPjU2SNGzdu8eLFPIYr0VX1EOowdCTcwXNs+IAQw319fTnhvr6+RLgEufWQ2v3bo7dv3+7p6Wlra6MsPSAgACyT4e/v7+fnJwN+/z8Id8JxOEYBHrwt7ETw/fDk5OS4uLhkWSkpKfn5+Y2NjaoYD9RJ2KuuSAGc1/I7ZDEuGJRJ0zNnznzpS19CDCfIDQZDdXV1V1cXYjgFSysMRxCOq2VFRUUYh3Ow79MsQQ7O/WQ5M+GOH7BZiJNzNsOvC8fGxiYnJydJ0pdwji7ZSuwJdTKQAgzKLDrFcE74MEk+Pj4Uw62gmq8yyITLLPcJ4OQ0mUxOO5fumWAbUFdy6tSplJQUTnhycnJeXp5eMZyo1jaIeWEyD7PoA3pHejUWYvhjjz02dOhQxHAah3NiB2o7gvCenp729nYhhgNjIYajyAl/+eWXnTBL9wTwgZ7fIDwmJgYBPDExMSkpKTc318GEE/9AnU/jDfQd6dUehGMcPmzYsKFDhw4b1nu1bPXq1a5EeFtbGwj39fXFqJswVho0LDeZTE5IuF4f7QO1nVOnTo0bNy4mJiZR0tixYxMTE4lwZUQlFO1tAHXHPHRR9RPnM21DJbkk4e3t7cXFxTExMQaDwc/PzyhLiTcNxY1GY0BAgLMRrvoheZz9HgEQHh0dnSBr7NixOTk5DQ0NCKT2Jtnc9kH4oMyx4aC5IeH+/v4y4EZOODmNRqOvr68TEk7nsWcWnQ6FhcapU6fGjx8fHR09ZswYMD527Njs7GxnIBwPXRysz9R9CF+yZAmP4ZxtsgG5rySj0fh5uu5UMdwz/LaQZ6EZ7lodP358VFTU6NGjx0hKSEgA4YiifGku3trDf/78eaTozkA4H4evWbPGlcbh7e3tGoTz6E0B3NkIF85aT3FAR6ChoWH8+PGRkZGjJY0ZM2b06NELFy48deoUGOOE0zd2udMeeGOAMCg3utDR4zEchGMufe3ata5HeGxsrK+vL8bhyrgtcO4hnE4CNzAaGxsnTJiAGC4x3rswRziBrYo61aoaA+0IHPbUZHMfIiccM22PPfaYwWDQjfBbdhbd01ZcXAzCQTIIV1LtieHmTgXX9SNLnzBhQmRkZDzTwoULGxoaVEHVcKpi/9FHHw10Qh7tHf91UeFzxNUyg8Hw2GOPPfroo3Q9nAi3EdAhNq5vyeq4a3XJkiWccLCNIbfq0nliuPCReIoDPQIgfOLEiZGRkXFxcWAcMdwKwlXhB/aqVdzJIzz8A30vurfnhD8mScjSLUFMo40jCO/u7m5ra+OEY6rc19fXIItDbjAYUHSSmTbdP9QHaoOYwWpoaJg4cWJEREScrPj4+KysLIzDOYTW2YjhWFdJOwebbJpjG9yPgwgfOnSoQHhXV1dPT48GvZZUOY7wkpISxHCCmUjmHiAPz+eZvDPMpQ/uGeAGr97U1NTY2Dhx4sTw8PBYpgULFlhHuJJh7X4B7XkvgPaDO8eGT1YgHENxjMP1Irzn1i17/N3vX5ClKwknsFUN3Bvz0ksvDeJdq25AlzO8BSI8LCwsRlZsbOz8+fOtI1yb535rCXhnuPw5QMIHjOqQW7e67fNnlnBl6BYIRxj38fH5fKzuIdwZELVxHzjh0bJiYmKsjuH9MqzdgBNu41uzfXWBcCTqBoNh3bp13d3diix9wLQ6IksXYrg24QaDwUeSJ4bbfvY4yRYEwqOioqKjo2NiYgY3hjtDAMczXr70pS8ZDAYah+NqmRnC7wdOCy0HEd7e3o4sHXjL82v3ZtQohpMfxudXzj0x3EkotWU3QPikSZPCwsKAd3R0dFRUVGZm5smTJ5Xxln/lS1mri2fQL5LR8VTG8EcffdR8DLeQ6/vNBoFwAWMqInRTAB/0GE6fgcew8QiA8NTU1NDQ0ChZkZGRc+fOBeEfMekCsPZG8CNWg3WbqnAwz5w588ILL/j4+ND1cHcjnMD2lkTFQR+HO0kWJ5wQLlp8++23QXhkZGRUVFSEJIFwXL4C7NqI2ljrhIR7e3tjBN7fOPx+cLbQclwMLy0tjY2NpYgNAzwLbHt7e8P/+f1tL7744qDMpbsoSE67242NjZMnTw4JCYmMjATeiOFvvfUWeOM/Gski+j2TI0213Gm5jdWdJIBjHP7CCy+AcNzThhheU1OjNtN2a6ByKOFxcXEcbGBMkFNx0Al3Wk5cd8eIcOCN5dy5c4lw4lz5rHswaTnD2i2dKoBrEO56M22lpaVxcXG4j00JM3m4MSgx3HUpcuY9B+HBwcFhYWHhkiIiIjIyMkA4GKalKuTkpGbc0Kaa1zrPHBs+L4zDlTFcR8IHfA3dsjtkbpG6u7vb29s54UjLacmp5rbjr4c7MyQuvW+NjY2pqalBQUFEeHh4eHp6Oidcm2Hi2VwzjjFsWoWq4HGeFL3fGC4n6tZDOqSnp9s+fz0k3JcOwnG5W5VtcvIs3cFXy1yaIqfdecylT548OSgoKDw8PEzWnDlz3nrrLT7BRkwO1AD2QqpPG+GEO8OdqvyTohj+KJPBYMATIEC4LYQOIQ7tZHR3d3d1dbW1takSrqTax8eHnBTDm5ub8RHadcmPu8fW8QhwwkMlhYSEhIaGIobrQjjBrGrw06ZJko7vzsZNccIfkYSZtjVr1nR1dcmEW0/nIMRwb29vL1kEs6rx+Z0wmEvnB5F/Wvra/FU8tl5HAERhHB4YGAi2wbmOMRxgm5uQp/NErzel43Y44Q8//PAjjzwCwlevXs0Itz7RtnsM7+npoSw9Pj7eYDCAcFWk4RwlycvLiwjv91GY9BFabej4mXk2xY8ABr2NjY1TpkwxmUzBksD57Nmz+Vy6avjVy4kTg++Yk9gg3MvL69FHH0UMf+SRR3x8fKqrq7sl9dgmpyPcy8tLIPzs2bP93nxiNdhO+8E7yfln+26YIzwkJMSRhDvbFDodWA3CWQy3nnLnIhzJuyrhdERgIPejJZzWhXphy56ivkfAHOHBwcGzZs1yTAxHP4490ffd2b41c4RXVVW5DOGYaSsrK9PI0uWBeZ//yNIRw60+lDy88414ojc/GvazaRyelpZmMpmCZHHC9UrFzW3HmT9rgXDk6vhlQvchHJl5H7ilgo2E49zSOHed+YPX2G3XquKEBwQEBEoC6jNnzuTXw83xabu/3+RuEA+pQDhm2nx8fCorK12ecI70qFGjeBG2jYTTx0bJvKpBzTyGPY6AQLjJZAqUFBQURFm67QxrbwGENzU12eMN2rhNJeGPPPKIt7f3qlWrXI9w3JfOr5bRkFuJN82l25ila38Azvmpa++za9Vywv39/U2yAgMDZ8yY4bAYjt1wwkOnJPzhhx/29vZeuXKlaxBOd7yUlZXFxcX5+PggJx/JJHBO8fzzx0W8+OKLZ86cccIPxrNLlh+Bpqamt99+Oy0tzRzh5q5ja0dmy2v7vRZj+XvRvSUR/sgjj+B6+MMPP+zj41NRUaEP4bjmZtcln2nz8fEZNWoU6AbYjPT7Jqo8hOt+Pg3WBhsbGznhAQEBJpNp+vTp//u//4sUmk+Ikm05w+ZaOv9Uiyrh3t7eIByQ24LnkC77q7Oz8+bNmzSXLhAOmPly5MiRHsIHC0U7vS7uePHz8wuQFRgYOH369N/97nf2JtyZAzh988TLywsx/NFHH0WWXlFR0dnZCcJtYXSILd2Dhet2dna2t7eDcIrhHGnBFgg/e/YsBlFNTjlTYick3GmzyNInT54Mwk0mEybVZ8yYoRrD6b1TMDdnmAvd5KdNOa3BYzjuaUOWvnz5ciLcQtBUmw3p7u60819XZ2cnvnkSHx9vCeEAfuTIkT4+Pi+++KKHcKc9Oy3cMfrmCX6pClEcWbp2DOdgq74WbwCb2Mb3zFTXciqnOcLLy8tlwrtsIXRId3eXnf+6LST8/ihctjjhTvWpeHZmoEcA3w8H4f6SAgIC+s3SlQALV7apAe0PeWA4eYouZOk8hi9btkwmvHe22uo/B2XpbW1tJSUluKcN43AhM6e4PXLkyBEjRoBxD+F04rq0Qc9aJcKRrk+bNs3yGC6gq1F0rWMlxPCHJXl7exPhNk62OY7wJUuW4Hq4knA5Zt/77yHctc5RS/a2oaEhNTXVTxZQnzp1qj0IF+K8Jbs3iG044cAbM21EuOro2nKnUxDOA7gnhg/i2Wa/l8ZvjxqNxs9/5eLzB3vYm3AXgpwIB94PSfL29l66dCnL0i0nWmw5yITz6E2hmwxPlm4/5By2ZVwBAeH4VWkP4fzgc8KB90MPPeSShBcXF+OeNk41bEJaKHoI56eCi9q40tnQ0DBhwoTPv2hAPx3v5+eXlpbmydJB+KhRox5++OGHHnoIkdzb27usrMzFYnhRUVFsbKyPjw/y8BHmNXz4cDDvIdxFqea7zQn//PHYPIzbiXD+6s5vc8KBN8bhpaWlrkT4zZs3iXCgPVwStwE2+YXr4c7/UXn2UPUIUJY+fvx4xHCK5PYjHN2K6v44m/PMmTNf/OIXEcM54SUlJSDc1rn0Trurq6Ojo62trbCwEL9qZD5436sB6iNGjPDEcGc7Ha3bn6ampoaGhnHjxoFtPFHb19d3ypQp9sjSnf8aOD+MSsIxDgfhHR0dNgI6pKuz265/nZ29hN+8ebOgoMBCwqkL8BDOTwXXtYlw+tW6zz9ZuxLuQsfKHOHFxcUdknpvTrcB0iFdXb0bsOffgAmndN3b25vuWnWhz8yzq8IRaGpqOnXq1Lhx4xC97RrDhZd2/qI24XKibj2hdv9uWWdXJ4/hPj4+FKLNGRiKDx8+nAh3/s/Js4faR6ChoSElJQU/d0HLyZMnI0vXuEFtoFXau+GEtZzwhyRhpq24uLi9vV0mvMtq2Z3wrq57MXzx4sWYSzcHNvzDhw8fNmwYIPcQ7oRn5EB3iWbakpOTiW38Oh0RjkcdDxRm1fYD3b1Bb68kHOPwoqIi1yM8JiZGO4YDbA/hg37a6b4Dp06dUhKempr6P//zP3jAiy4/XKX7bjtggwLhX/jCFx566CEvL6/CwkIXIzw/Px+Em7seTsk5GZ4Y7oAzzDEv4QDCHfNGdH8VJeFf+MIXvLy8CgoK2tvbMZdudYre1dXluCw9Ly/PXAwnpAUDhJ85cwaZnu4H17NBXDfWcal6SJuamk6ePIkY7uXlRT9olZqainG4Llm66ks7vxOEjxw5EoPwL0gC4ZhLtwVvhxKem5urSrhANS96e3u//PLLzc3N/Gv9D7JNv5Jri+GAA8ifrIifFn377bcTExO9vb3pW8NeXl46Eu78JJvbQ4Hwhx56SIjhLkB4e3v7Z599pko451mwhw0bNnLkyJycnO3bt9cy7Ri4tuukbe6irXbWli1bhFeoqamJjY3lD9L29vb2EI4nQHzxi1+kGE6EL168GFm6sxPe2XnvahknXIBZozhMoaFMj8kaOnQozEc19cgAhY0NcKX7zekmRHypAGmY1UvkbzYueSrgZIx4AAAgAElEQVQ4RG+p7hte5NFHHw0PD0cAp2fjewhXEo5j6OXllZ+fr884vKOj0x5/dKtdR0fvYxg/++yznJz7WTouidGcuSWE0yoK5Ps4GP73TbkfsOa/Zo9hthKU29hBYCO8m9DF5pBb3d3wFan/0iD8kUceIcLpefgewjUIz8vLa2trkyC3idAhnZ3ddv3r6Ohqb+/87LO2nJy86OhoHx8f8AwuNdjmzdAYyPYBWi4QzQLEYExwWljkv+dsFmW1Ck7m/YBumSUwDJAEp9VFYpvzqYutyjaciOGPPPJIWFiY8CDtiRMn4mqZxgOVVS96c2ezi0sYh1MMz8tb3Hazo72to6OjyxZCh3R2dtj5r7OjveOzz27m5ORER0d7e3v3G4059jLCw4hh8nCDasmwEGNzzdTItdRnGctaraxmWGNFXUgWNqIBtlAlEI4HAUycOPG3v/2tNqGqT2txY8JpHJ6Xl9feK3zzxHpIh3R2ttv5rwNZenZ2Ngg3Ryb3w6a+gLgdOnSo0IxXwTYHrYV+SzlWtNNCdiB1GpRaV4WTRoDTxqIAcL/FRx55JDQ0lGK4knB+QbSpr5r7Cnj39blwSYjhRHhubq48Du+whdAhNGC2nwHCFy1ahCx9mBkRq8OG3Y/YcCo95vyE8aOPPkq2hYaC2YE5QDF+emogRN9rax29GmtxhnGnFPfYYvfLs7IBEY57k7UJF3jty/u9ktDGdYvmCM/JyWlr683RbQTTiQgn8Al1TiY5tQ2sAjT56pbYWAvADQxuqTV+lcZGwgGeBreWV2FTgM0WnoV1sUGMrpUkq3qGDBnCCQfeI0eOpCz93LlzPIZr42p5S+3tOEmtOcKzs7NBuI2QO47whQsXasdwgfDHHntMG2bUAl26WmYJydSGOgIreKZVrAjXylXALWeJJqjp2V1KD2+vtHVkm15aFWBLnJxwCuPWEe4kZOq1G0Q48qwvfOELQ4YM8fLyysnJkbN0m6K4ExFuCc/KNoSr1QaxaoWhZNUKD+H96KOP+vn5/f/2zjsuiuP//8AZSziiUUSwobHFJMYSTUyixkSjMRo7RrGCFWyABZBqAUFERAQEC9JFFAUpIkVBFFBARMEO0o96d4Cf77+/x77ft8Pc3h3cUfLJ9/vz+ZjH7OzszO7e3r7e75nZub3Bgwfr6enp6uoOGjRIBxgIaGtr46uIPwfwV9b4ay38w2Y+n9+rVy8idSI8ktPJBNmhqgk1NTUejzd48GA+n0//snDSpEk40qaSD+8qaf1L9kMUrqamRi4sn89fsGDB/02Fo+tW0oET192BXnfPnj1R0j169OiAtrEKirMDqiZVSKtbS0trypQpkydP/uqrr8YDX3755fjx479kGSfNWJYxY8aMHTsW43HjxvXv35/H45F7BRP/LW3j0VHhenp6ROH4ko+JEyd+VDitcNL34fP5f/zxR9e00nF2e7fGONI2b948ua10WbesfA5RaQcceIdVTZ6Td7jLjT12jFF7ffr0mTZtmr6+Po/Hw6+ZjmXlSuwCbWI++eSTzz//fPz48X379iVVOqNtspNOJrAfjgon0xz69OnzUeH0jBf04fi98/n8+fPnszNeOqVOtU7VVq4yUfiIESP69u3bWxrih5UXNqnSAdfdGWETbRMP3LEER588Hm/o0KFff/21hoYGLewOpHk8nra29siRI3v06NEl4+fYLey8wnk8nq6uLp/P/6jw19LQPhyvtpqaGp/PnzdvXhcpvOU/H7ojfPifDxBaWv7T3PRBLGr6/XdmpK1fv360wFHV6IGVVziWR62q6r3/6wpHedPjZzweb9y4cUOGDOmkwvH+0NTUHDFiRO/evVGWnfHh+Gy2k/LGs0KFa2pqkm//ow9HpXMUjlebz+f//vv8pqYW5nlZy/90RqFqqMNujZubP4jFzcuWLR81atTnn3/ep08fnLiivKRpQ0Ba5h1w4HRdlaTeMV/NqUW0jaqjPfmXX345dOhQVDgx5Kr6cHJzjBw5slevXmRstgMi77yq6T1gP1xXV/fTTz/9qHAUNonlKlxLS+v3ufMkCmedZcdE2u0KBx/e0tTUsnGj0ejRowcMGIDTV5QfS+PIW1WnTcqrJGm6MEeoHV6lJc1J6+npTZgw4ZNPPkF5d0zkKGkdHZ3hw4djKx1lppLCiTLpoV2S2bEEKnzQoEFE4WjiP/bDZfvheIW1tLTmgsKZeekt/+mYtrFWt/fDYW4tE9na2o4dO1ZXVxd9+D+pcFquSqY7LGNFFTmS5qz27Nlz0qRJ48eP7927NxEklsEd0g0WMnUX+7Q4Lq2pqamlpaWnpzd27FhNTU0cscPbheyw3UTHBNx2LWyJ8Hg8HR0donD05N9+++3HsXRFPnzu3LnYD8dnZsoNeckp1e0Kxz88aWlpCQwMnDhx4uDBg7W0tPB+VamVTvrexCe3m+CIWaWnYoqE2rF8jp5lV3v06NGrV6+vvvpq6tSpkyZN+vbbbydOnPjtt99OmDDhm2++wfgb4GsW8lANH62NHz9+7Nixw4cP5/P5nP5zu8LGAihUFGTbolVpK1H4wIEDicLxq/+ocEU+nM/n/3sVjk77w4cPmEA71Nzc/PTp0xkzZowYMUJbW5uIs22Rk2K0ByOZ7SY4CldpFZXcmedhZBIr6kdW1ZwcHHvT1NTsz/7J9udAv3798N3D+Hoz8uMNnDpChqbx+QJqG4+oUqySaFUtjK10VDj5xnv37j1hwoSPPpzjw7FzxOfz58yZ00Vj6XIce0eySGu8paWFqLqZpampSSAQ7Ny5c9y4cTi3CfVJvm/ZBBZAWbYrZk4BlcTMKdwxL82pxVFvu6ttq5FMGiXOmZSnH4kR4ZGt7SZIlW5NoMK1tbU//fRT8kV/VDgOtilS+G+//dbU1NTJJvqHDx863konkkZ3zWpZatnEIhKJGhsbIyMjp02bNnz4cB0dHfymFfXGibw5CY6S5a5yFKvSKnHdnfHeRM8oMLLaRgIdOJErKcmRKOqQk0lkr2irbHmSg1W6vGXOsRe0wvErw2//ow+XbaUTH95lCidCVT5BBgBIFVrWrKiZpRgQsZSWlhoZGX311VdDhgzp27cvmbiCCaJ5ubpVMlMlPcsW5rhi5VfpyTBEn8oniOQwwanI2dpVqxwddusqTsXp06cP+R579er1UeGyCsfHKHw+/9dff21qapLVGhGdkgk1JctxijU3N+PhUduyqhaLxYyuhSIhSyNw586d6dOnjxo1Cofc0IfTnpzcAR1IyCpWpRzl9Sy3JEeWHVvlzITpKjHL7gfvpG5VNb1zHo83YMAAVDgx6B8VrozCyZAWR4NKrqo1N39QNTQ1Mc+3JUHc3NTUIhY3kyASNYmEYmGjWNgoamwQNjKxqKFe2FDfWF9fLxAIvL29J06cqK+vr6urq6WlRXvyXr16dWZQTaXRco74yVxxuepVJrNjkpZbS1aQXZhDhNeFT7zJPuUm1NTUNDQ0iMLRdn/04XL74cSHz549WywW034UvKnKalVraflP+4FYAZhG16ptcYtYJNE2I2wIQqFYKBQzwm4UNTQIMdQz8m6oq6urra0tKys7ceLEpEmT9PX19fT0cKY68diocOV1jkIlCuTott2tWJGWGdlVGwm6l07qEhGSnI4lyH6IWkhOJxNkh7IJ7Ip3LJbdGyenbYX/f/vTUXxbTVFREb4vHa8SrXBsGre0MG9cBT60L1UZOSuncGZuOeO00duzCm9pYhTeJBY109pmXDclb9B2Y11dAwRG4TU1NZWVle7u7lOmTPniiy+GDBmC1l2uOIny6YTckm1kEq3SZUgm6pA83KLVS8pwEm1LtwM6pHeI1VEkHdiV3CpEcv+Y3yZHxFtWQ0Ojf//+ffr0QduNjbUJEybcv3+/uLgY/4ZF9o9ciilkt/4bcqgTVDmJ5//mzRtPT09NTU1yxfCXJ7/88gvbD29mRa6EM5ancNZAKF42N7c0NTVDt59pKUBa0vUWicTiVu/N9Lqxvy3x3ozrlsi7tra+pqZGAFRXV1dVVV25cmXWrFljxoxBZ66tra2pqYnfvfLtbY72VFqldUUrnM4naXrPJJNOEGnRmUqmSV3OwDiOrpPvvpOJjrnoLqlFK5w00wYMGLBo0SIDA4NVq1ZhvKoTGHSIlZ1gRVewfPnyH374gTNhmc/nK1C4YpUq2KLUSBunM0DG1STDaSKxSMS0zIVC5pFYY2NjA4OQ9t61tfW1tXU1ABF5dXX148ePraysJk6cOH78eH19/SFDhgwaNGjAgAF9+/bV0tLCSR1txH06QW/FkHe8coooyucUw4cCGHM24SqZdkqXlJuWW11RJtktp4DcPXMy6SaSqmnOrjirZG/Eh3/yySc8Hg9/BYQtJh6PRz+MIMZUSftIitGGUpl0Zyxmlxg+shNs6ZBVPp8/a9YssVgMY+m0D1egY8XZSimcjJyjtnEAgDwJE4vFQqEQn3hTCmdUXg9g97sGoOVdVVVVCWRkZNjZ2aEx++abb0aPHj1ixAh9ff3hFMOGDRs+fPiwYcOGAsOUgJTExBAWXOVkshulloOVQ49i8ODBuhTUFkmS2si8p6lj4Due6Lo6OjoDBw7UUQC9aSAF1qK34g6wCL2VU4bah8KDcs4Ff1bIUTLdbyJponBlEkTeSibwaYUy+pct0xmL0EZdImySQIWzrXTF8lViS0cUTnTO+nCmcc48GmOb6KwbZxRex4I98BpAIBBgQx0VXlFRUVZWVlBQkJKSEhgYePr0aQcHB1tbWxsbm0OAtbW1FWBpaXkQOHDgwH5gH4uFhYW5ubmZmdnevXv3ALuBXbt27dy509TU1ATYsWPH9u3bt23bthXYDBgbGxsZGW0CNm7cuGHDhvXr169bt27t2rWGhoYYr1mzZvXq1X///beBgcHKlStXrFixfPnyZcDSpUuXLFmyePHiv4CFCxf++eefCxYs+AOYP3/+77//Pnfu3Dlz5vwG/Prrr7/88susWbNmzpw5Y8aMn3/++aeffvrxxx+nT5/+ww8/fA9MmzZt6tSp3wFTgMmTJ09imcyCm7DY1KlTp02bhtV/+OGH6cCPP/74E/Dzzz/PmDFj5syZs4DZs2f/yvLbb7/NmTNn7ty5vwPz5s2bD/zxxx8LFiz4E1i4cOGiRYv++uuvxcBSAD/+cmAFsHLlStLe/vvvv1evXr1mzRpDQ8Nly5bp6Oj06dMH+189WD6hYPN68FhIjtwEW0q1pYaGBopNQxWIPtUAstr5BO6QE0v7cCV0rLhIBxWODhwVjjERuVAolKvwujpJK72mpkYAEJFXVFSUA2VlZaWlpSUlJTj0Qt59/xJ48eJFUVFRYWHh8+fPnz17VlBQ8PTp0/z8/CdAbm5uTk7Oo0ePsrOzMzMzHz58+ODBg4yMjPv376elpd27dy81NTUlJSU5OTkJSExMvH37djwQGxsbExMTHR198+bNqKioa9euRUZGXr16NSIiIiwsLDQ0NCQkJDg4OCgoKCAg4OLFixcuXPD39/fz8/Px8fH29vby8jpz5oynp6eHh4e7u/vJkyddXV1dXFycnZ2dnJyOHj16+PBhR0dHe3t7Ozs7Gxsba2trS0vLgwcPHjhwYN++fRYWFmZmZnv27Nm9e/fOnTtNTU13ANu3b9/KsmXLFmNj4y3SbN26ddu2bdu3b9+xY4eJiYmpqeku+NPPvXv3mpmZWVhY7Nu3b//+/QcPHrS0tLS2traxsbGzs7O3t3dwcDhy5MjRo0ednJyOHz/u4uLi6urq5ubm7u7u4eHh6enp5eV19uxZb29vX1/fc+fO+fn5nT9//uLFiwEBAZcvXw4KCgoJCQkNDQ0PD79y5UpERMTVq1evXbsWFRV148aN6OjomJiYW7duxcXFJSQk3L59OzExMSwsTE9Pr22FKzPGSaSukqw1WGhBsnntL+laagCd05k07k025vP5M2fOFIlEXTDjBaestBs3yYAiF4lEJCFkaWxsZNroAO3GUeRE3gKBoIqlvLy8qKgoIyMjOjo6JCTE19f3LEDE4wmcPn3aAzh16hRqyc3N7QSLK+Di4nL8+HFU17Fjx44CR44cOQw4ODig0uzs7GxtbW2AQ4cOEdXRwrOwsDA3N98LjYLdALYIZJsDqEAjYNOmTaQVsG7dOkNgzZo1f//99yoAWwHLAXSDdCtgEbCQ5U+WBQrA7Wzxhehp/wIWL168ZMmSpcCyZcuWL19Oe1oDAwN0s6tXr14DrF27dt26deuBDcDGjRuNjIyMgc2bN6OFkbUspqamO3fuRPuyB0ArY25ubgGYmJgMHDiwd+/esmOoPQAegGlFMZZRKdZgoXWIeZgjmyZOnq7SVWlZMcvNQYXLex7erlK5BZT14aQeGXVDYZNYBAiFwkZpGhoa6ilIW10gENTU1FRXV1dUVDx69Cg8PNzf3/8MC1Gyh4fHKRaU9MmTJ92AEwB6SxcAhU20jfI+AqAXdXR0JAq3BWxYrAErKytL4MCBA/sB9LHm5uZmLLTgdwKmpqYmJibbWbZu3bply5bNFEZGRij7DRSkI7B27VpDQ0PU2Jo1a1YDfwNgENqJsDzG2CQ2BGTlumHDho0bN27atAlFizHqdivAaREQ0e7evVtWt9hAOHDgwEHA0tLSysoKL+OhQ4dsbGzwCtva2trb25ubm+vo6HAUTitZGQfOU502BIybSKzOwslBBbIbO7WUK2a5mRyFt3QCNRnfLCcDR9roDbKDbUThKHLWhTeguusoUOQCgaCysjI/Pz8yMvI8cO7cOR8fHy8vL5S3O8tJoA1fjZJ2cnLieGz0246ArLDRb1tbWxNV450qV9t7gT3A7t270ZOjsE1MTHYA21jQ0W3evBldH8p706ZNGwGicVrhKHKic5Tr6tVMt79dSGF0xShvQ0PDtcA6YD0LHh11jlJHnRPnLNc/ExdNvDRx0eil9wEHWPBKWgHWwO7du4kPJ26cVni7adXVzSNaJUf8BGj7WHggrKvO0vl5BHKVrCiTz+fPmDEDG8i07jqQVmtualYYmlua6QAlmafiEMTiJjqIRGKRkDkleHImEjYKG9nQ0NDYUN9QD6Gurr6utq62tq6srDwtLS08PDwwMPDSpUv+/v6+vr4+Pj5nWbygc4tO3dPT8zQL8epoAU4CbsAJgHj144AzQPSPsj8M0OK3h04yttsPAXhrov7xlsUbeP/+/fug82wBbXh07bRj3wXsBDhWYDuA43wYo7S2gM83NjYmdsHY2NgIIDrEVbkxmhJj482wg9bmA61bjpfGrruJiYkpQLtr9Nho1MzMzMwBC+jVE7+NrtsSsJJ23ei9scNvD31+R0fHffv2aWtrEx9Oa6wN783rBBoAj8fr37//6NGjxwFjgTFjxowePXrUqFFfsIwcOXLEiBH6+vrDhzPPa/CRja6ubt++fen3YbF6V3mpSMmK8mmFK5Qnq8S2C3RkXjpnZptkRjozua1JLGbmtwmFYpEQZqeTGazU9NWGBmF1VU1yUsqVK1dCQkKIwv1h7MqP5RzgC/gA3ixnz571YuGYALn6J1bgxIkTsvp3Amj/j1bAEXAAiP5tARsbm0OANTQB0ApYsoNnpBXAsQWcpj7dLsBhNvSQu1h2KgFbFpeMNiHsRpXuAYhWzVjMAQsA3S8t3XbVa2traweggB0cHPBaHT58+Ahw9OjRYwBeW2dnZ2tra9qH0wpXlOaxaADsWjtLLEyqDBkyZNKkSXp6egMGDNCGP40ZQKFNMVAeX3zxxbBhw2T/YUJ5iSvScBv56urqROHQKZbMJVX19yNYvuMKZ+qT359I//gEJ6tzZqoLGyWT1Wtq6lJT7l6/fiMiIiI8PDw4ODgwMPAyEMBySZoLLOcBfxY/4Ny5c7KG4CzAaQh4QlvAg+UUcBJwA9AE0FbAmQVbAcQQHD16FO/mw4Aj28PHm55jEeimwSHAmsWKxZLiIIx+E5NxUAbS+5XZwgybI+yOmSV7NGaJJ0C6ynYURLGyosWxd9TtsWPHnABnZ+fjLC4uLq7ACcDNze3kyZPuwKlTpxwdHYnC23DaRO08QAPAtDKxhoaGOouGhoampubUqVM//fRTko87xJgtqHCpoaHRo0ePUaNGaWtrkz0oLC2zoQ0Nt73p36Rw+EVK6+/Mmlqa4EdmUr82Y+e0ouAbGoSZmdkxMbE3om5eu3YtPDw8LCwM47CwsFAgRIZgIAgIpKDtAtqEixcvojU4z0I3Dc5J2wIfHx9v4CzgBeBzL08ARwTQIKA5cHd3PwmgRXCDkXxXFhcXl+PHj2N8/PhxJ2mOsRylQDPBidFqENvhKANRoKOjY2thxyOHMUAWvU88IHt8ydLJyclZGlSrC4Cf6QQLKhZFi5cCL8tpFrhgntik8gLOnj2Ll9fb29vZ2Rlf+9GjRw/lFY6qRkGqpHCsoqenN2bMGHV15r/+ONCZdJoUI5n9+vUbMWKEjH7bySD76UCiyxUubm7uWCDj660JMhKAWeQlEGRuzOvXr+/cuYPPn/HJ87Vr1yJluApEAPjE9QoQLk0YEBoaGkIRHBwcxEJZA6aZEABcunTp4sWLGF+4cOE8iz/gB5xj8WXxAby9vdEckJ4C3tNoF9i7nVl6eHigEkgM/kwSoVTIcwE3ihMq4urqijWofXCTJ2XA82hDq0SxKFcveEJOixYvDDGaeMHg4jGRP3D+/PkLgLu7O46ltyFvHoAmANPKxxrSqANDhw7V19fHNA6VqaQ3rNi3b9/hw4drUK0DzFcUq3QIuYXV1dW1tLRmzJghBlBKONrdAamqKR5na7cjTw6tMEEEj1Kvqal5+PDhnTt3EhISYmNjoylu3ryJazeBGyxRFNeBazJEAldZIliuAOEUYQA0FBijEMwSxEIsAjEHAcAl4CKAtyzG58+fx1sZYz+Wcyy+MhBLQfwbMRl0wosFM9k1hUu6Lp0mR8HjYsw5KfZkmZktCPk4mDgP4EfGi4AxXha8RJdZyDUMAoKBM2fOkDltikTOAzQ0NDDRdqwB8HitA+aYg7E68Nlnn02ePJn8qEOunBRl4h40NDSGDh2qq6uLq+3Givamar6WltasWbNEImayCRERiFzc1CRWSbNqCtXZ1RvEYvHbt2/v3buXnJyMIo+XRxwQGxtLErHALZYYimgKYhpI4saNG2gfwDK0RtcAMAtMxFoGZhkBgGVgItJ9CGN7ELLtBbyD8W4OCgoi9zd7w7cuUQkBAQEoDDqmZaMojQKTG3OqXLhwAXPoQ5Cjk0TrmUGKnDkmyCfCDxgChFKEAeHSkEuHCbyeERERly5d0tHR0dLSIj1tOtG2mGW3akijrq4unSHpjfN4vFGjRn399df4opFeLL0p+lB8CmgCfD5fS0tLX1//iy++6Nmzp7oSqCpjReXV1dU///zzZcuWNTY2iljQn9OCp5XfrBilnoeTfXUmIRKJ8vLy0tPTU1NTk4A7d+5gghPfoUiU4TZLQkJCvDziKGIB1jgwS2IfKOMQjUYBY2w9RFFcB6KiojBxjSWShbYR0mYiAm70cLAVjLmAEI6ESYPWJFQa1BWJpTdy10JgJinuNTQ0VHr3krXwsCvh4YzlCg9nJpwSiBQxwflE+EHZz80sr1+/Tq4QXhaSw1nF63bjxo1Ro0b169ePNMJJgvhhWSXLzdFQGnV19R49euBw+nfffTcF/rx50qRJEydO/BaYMGHCN9988xX8nfOXX345bty4sWPHkmdpI0eO1NbWppsA6tIokmhn8tXV1fFv5M3MzBqAxsaGRmGDEECvLqv2ZsX8EwpHwyMQCLKzsjMyMtLupaUqy93U1HsYUliS5ZGSkoLZSdLcuXMHTQRrFuQsEyjiKeIoYllusRBLQScUWY2bN2/euHGTsR3MtHcJpInBZjDLmJgY9gi3YmNjJemYW7cgkGOhMaIPFx0djTskAiOSw/2D5bp540a05ExwnbZtkCb7jImJiYYZ5uSg9LndusWcHgdy5rKWNCoqysDAoF+/fr169SKDbd2nbQ2220wSHeiHkyrSupasdUbGbdRVV1fX1NTU1dUNDg6ura2tq6urr2cCiF3YyCBERCxyHTtxxmrk/WrdnSgpKc3OfvzwYVZ6eka68qTdT8fAVklrJT0t7T6GezLclYG2KinSEKOB9iE5OZk2FFSTQpLkNCzkmA3IYkxHfEJC/O34+NvxcQnxcZT9oJJoSW7fvn337t3U1FRyMuxpJCclpWBITkqRBLYQMW3JyckpKSlJSUmJiYlxcXGkm0OZqbi4uHg4jQQmjr+dkJBIjBv9EfDnInQOpjmfmqziVrIrTODnw6PjmMuJEycGDRqEc0iIc9YAyGrbCSysUowqxWa8RJqqLEh12UptqLQzm3g83sCBA6dNm1ZYWFjNUsNQV1tTX1dbX1fXUF/X2FDf2NjAvEyJeSEiTj+B2SiyKlaTetZFPd/uqnzmkHDsV6/ePH6cm5316OHDrAedIgNqP3zw4GFGBgkPMjKY8AB+T5Yhzf37GfdlYC2GZNlqN6RTtOmQMRqSDNp20GkwI3dTku+mJN+DOFXasEjWkpOTU1NTmdZNWhqratrCyFF4UhJKXLLAlZSUlNTU1PT09Lt372KOTJySnJyakpyaDCEl5S7nfCQnz+xGMSmpKWxITb3LpJNTkpNTkpKSITBnzmk6xQORkZHz5s3Dfy9D703rud0BNpWETVw3SeDTL1mhdiCnMwJuu666unq/fv2GDRvm6ur67t278vLyiorKysqqqqrq6uoaQXWdQFBbW1NfizqHFyg1wlwyRupCMT6QRrk1iZsxdLvCmSfkouYmccuLF6/y8vIfP859lP04u0NkSZGdlfVINnB2LKmRmZ2VmS1VOysrM5OE7MzMrIcPszLl8ZCCtktoQ0iOtElpXQPj8uD+/daQnp7OsTbp6emZmZlZWVnp6enS5gXX0tPTMtrZp8MAAA+CSURBVDgBWi5paWn3IEgqoa3KyMjIzMzk2C9qNQPaUEx8P502fMxZwXk/yLj/IAOTsA5nm8FkZjCbmFoQ0rEBde9+2r30e/fS795Nu3v3HjZDsGWBVioxMRGdfFxcnLe399ixY1HkqFjSUJercFrV6ix0pqI0W5ZZtuGH6WLtptsWZ2e24qHxRVd6enpLly7Nzc0tKX7//n1ZaWl5WVlFeXllRUVVVZWgukogENTWCGrRpdfWMu33+vrGBnipsRBcuoi4dPCsavgCtu6LsdkgEjUVFb7Izy/IzX2Sk5OX8zi3UyFHIY+lkZTDw+XkUBtzyAk8fpzLBqbAI+VgTcnjbMZgcQK7EZasZcnOysLAZjCrEiOFlyWTsTLZqgS0SVSVh1nZWY9yc3Kzs7kWjT3qI/Y0JCeD55qVlQUJ8kFaPwJUZI0pc3qZDx8yAZpLDzIYmBgbSunp6ffuMTqnpZ4I3L59Oy4u7vTp0/iuLmyuE53T/pxOK9Jw2/moGaI6XEW1y2aSrXITpHw3JfCgPXv21NPTGzhw4PTp09PS0l6/fv3mzbt3b4vfvSt5XyLReUVFVWVFVVWloLqqRiCoqampramprWO66ozIpXTO+nORqKn7R9pglptI2PTq1Ztnzwrz8wvy8vI7Fp7k5T958pQNT548yXvSJnl5kgJwuCdklVMpj4WTr2iVLY5LuZ9FukheTl5eLicrl3lfRR4JBQXP8/MLcnLyWFsjtZUUa008BkPJ7CGHZD5+nJub+yQ390nB04K8vLxc+TzJzWU2ERtJlWLq5ubmQ9yaTUpS9pGxg2gUspjWUCY2dLBFc//+fWyMkLduEGeOXXR/f//x48d/9tln2C3H17bRzpyjXrnCUyYT9yPXh3MOoeSqMgdVqYyGhkbPnj21tbUHDx782WefrVq1Kicnp7Cw8OXLl69eMiJ/+7b43dsSxp+XlEmceXlVVWV1dXW1AKipqWUa7bUST97qzFmRd7/CmxjEYvGbN28KCwufPXtW8C/g6b+MZ8+eFRUVPX36ND8/H2NMcE4zXx6kDFZ5DpDMziTI0dDYoZEi0s+BNtGjR49IK4DoPCODGUxlehHsq3Wwc47N9fj4+OjoaHNz8ylTpgwBdHR08D1wA9tEGxg4cCAmZH9Jgj8vobdiGbpk//79BwwY0B8YIA2pKJsgB+WcoA7FoEGDcG0QQKcxh8S6gJ6e3rBhw/CR+6JFiy5dulRQUPDs2bPnz58XFRUxIn/16vXr12/fvi0uZprspaWlZWVl0DlnmuwocsaVw5A7jLrX19fXNwJCln9C4fj47u3bty9fviwsLHz+/HlhF4F3cyfjZ6pDjqh6Veb7k6WwsPDVq1cvX74sKipq49qQrUUKePHiBe5E9hBt55APQhfDTGKQ0fTQaseWAkr98WNmeCUrK4voHJ05NtrxGcEdAJvrcXFxkZGR3t7ednZ2JiYmW9jfzxoZGW3atGnjxo3r169fC6wB8A15K4Bly5YtXbp08eLFf/3116JFi/78888//viDvA/vt99+mz179i+//DJz5swZM2b89NNP06dP//7776dNm/b999/jg/Fp06ZNnToVn5BPnjx5ypQp3333HRb48ccff/rppxkzZsyaNWv27Nlz5syZO3fuvHnz5s+fv2DBgkWLFv31119LlixZunTp8uXLV65cuWrVqtWrVxsaGq5du3b9+vUbNmzYtGmTsbHx5s2bt2zZgi/VMDExMTU13bVr1+7du/fu3WtmZmZhYWFubu7g4ODl5RUbG5uVlfXkyZP8/PyCggJUOH6VROElJSUoclQ4jr8JAI7CGxoaGskjNaHwn1N4cXHx69ev8f570RUouMmVzSanoGyF7iyHJ/Pq1as3bfL27ds3b968VsyrV69wV0VFRS9evOiSU0ajjMonmicNDaazxJKTk/MIXHoW8PDhwwcPHtCN9hQgKSnp9u3biYmJ8fHxMTExUVFRofDLAvyVYUBAwKVLly5cuODn5+fr64svBTlz5szp06fd3d3d3NxcXV2dnZ2dnJyOHDni4OBAXn138ODB/fv3m5ub7927d9euXaampviiO2Nj403wXi1UoKGh4erVqzds2LB+/fp169ahEVm3bt369evxlVWbN2/eunXr9u3bUZOoxgMHDlhZWdnY2Njb2zs6Oh49etTZ2dnFxcXNze3UqVOenp5eXl7e3t7nzp3z9/e/ePFiQEAAvs0uLCwsIiIiMjLy+vXrN2/ejImJiY2NjY+PT0hISExMTEpKyszMfPz4MXYhUd6FhYXEh79584b48DKgDR/eAHB9uPif4v3792/fvsWb89U/gmIhdMsW8pk6s3dsm5FdySZeKoYu3LXX+eXLl8RwYDviOfsyzIKCgqdAfn4+qh07+ThmmZ2NI3MPM5ihOEn//C4QExPj6+vr6Oh44ADzwqx9+/ahWzMzM9u7d++ePXvwvZQmwPbt28kLMzZv3mxkZLRx40ZU6dq1aw0NDclr8AwMDFasWLF8+XKOn1+4cOGff/65cOHCBcDixYuXLFmyGFjCgplLly5dBqxYsWLlypUG8Da7NWvW0F6atgXbtm3bsWMHeund8LqrvXv3mpub7wMOHDhw8OBBKysra2trGxsbW1tbOzs7e3t7fBnmkSNHjh07dvbs2Vu3buXm5mLzDa0zmnsi71KqiV5ZWUma6DXSrXR04MSHi0QitW4SuIhCKBSKRKLS0tJ379616aL+F29E7/ov/ACdMTekLrEdaIDQyBCpc9QuK/XsbKb1npmJw+/MY//Lly9bW1vb2tra2NhYWVm1oXBTU1MTE5MdO3agyOnGPBE5umJ0zqtXM6++WrVqlYGBwcqVK4naly1bhk1rlDNK1wBYyWJgYLAK+BvA3oEhsHbtWvTzGzZsQHkbGxtv2bJlK7B9+3YU+c6dO+mmOOp8//79BwFLS0srK6tDhw6h1O0BZ2fnEydOODs7nzp1Ki0tDRvnKO93794VFxeXlJQQeVcC1YAAxtOJwuvr69GHCym6UeFkbo3klS+iprKyipKS0uJ379+9K1E6FL/rKMWd5W1xsTJBcph374rxQzGDn53gbSdoPezb4rddE1rPhjZedAOBdu/ognA89VnB84Knz57mP8t/8jQvD8bnc/IePXqUnp7u4+Nz7NgxZ2dnR0dH9Gm2traHAGtraysrK0tLS2xyo2O3gLdNc3w7R/nbtm3bAhgDRmxnfgMLtsnRFqxbt87IyMjY2NhIGqy7GaDVux1ADaOvRhnv2bNnL2AO7Nu3b//+/ei0OWImftvR0fHw4cPouvEiYGvf3d39zJkzHh4e8XEJr16+wcE1Rtrvy8vKKirgeTh47hpm6ouglnkqXlMHfyVUj0/L8H/EyCw3MgFGjX7XWhemyQteSKKioqq0tKykpLSkpPS9suG9qpR0GcUlJcoEyfGKi0v+VaGk+D2Gzp0VY79KSuiPVgy2jLFiqH5U/uvXr2k/D7J/WVT0orCQGTiE3vvzgoKC7OzswMBAd+D48ePYnT4G4DtzDh8+7Ag4ODjY29vb2dmhnz906BARv6WlJTbsOZ6fNgG7d+/etWvXzp07TQETYMeOHWgXTE1N98JwF+qTxGYUKFpzc3MLCwuULlHvwYMHUcDWAGl7y5WxE+Ds7Hz8+HEXFxdXwM3N7eTJk+7u7qdOnfJgOXPmjJ+fn7//heTk1HfvSshEl8rKamauCzOnraampg7mujDa5jwGB20zM9uItnFyW7fPS0eFC4Xiqqrq8vLyUpr3ZaVth9IyurhS6dYdlpeW/pOBPtV/8rhyj0WfjFKXrb1CrUd5/76MCYylZpC0YYolLRfSW3kNvHr16iXDi5cvXxQWPo+Li/Pz8/P29vb09Dx9+rSHh8cplpMnT7oBJwBXV1cXwBlwgj+WQCtwBHB0dHQAiCFAW2BjY0M3B7BFgI0CVCaK0x6wA7AdgfrEfHvoJ+P+HYHDAB6afgsdSpeoF08ePwgt4NPAGcDLy+ss4O3t7ePj4+vre+7cOT/g/PnzwcHBYWFhBQUFlRWV1dUCQTVqm/HYNTV1OC9d4rSZqenCxgYRM5WNmccGAV6phNrGdnS3K1zyz6RCcXV1TUVFVXl5RTkzCw8og3Q3xeWV5R9DN10B+MrAyVSUlVWUlZaXouyZmGmjMd2x4vfFxdgdY7z969evnz59Ghoaiu/V9fPzOwcwt7evn6+vn4+Pr4+Pj7e399mzZ728vFAMOIRO2wJ3d/eTLDiu7sri4uJyHCBGwcnJCRsInNjJyQlF6ObmRmuSZGKCPQ6zdAfQHHl4eKBiPVnOnDnjBZw9e9YbQOkS9fozXDh//uKFC8xjgosXL14CAoDLlwMDLwcFXg4KCgwODQ29evVqUlJSVRXMUGWedVPuul4IqmZiFDZou4l58Sn7ujR8SyLpJv9TChc1CQS1VZXVMPOuupKhqrKy+mP433sFcBJlRUUVJ6BhlSgfmlHv35cVF79/8OBhWFhYSEhIMBAUFBQYGHj5cuDly0GXLwcFBFwOgOdkly5dushy4cKF84C/vz96Oco0SCwCKgrtAsoMY7QRrAaZJcry9OnTnp6eqD3WyvgSMIfE5KDQfmZkiueDMWqVPVlGtAEBAZdZAgMDgwD4uCEhwaGhIWGhoeGhoaFhYWHhLFcYIiKuREZEMOHq1av4I+Li4pLGRpFkLiqjZ6b5TRrh2BQnMm4j0V1j6WSIXsRSU1MjEAiqq6urqqpA4f/VqKqysqpCqaD6acp+wCoK1ff3L6pBfQ6pL5Hkyz3X8vLyysrKxMTEqKioqywRwJWI8CtXwq5cCcN3Y4QBoRRoEYKCgoKDg1EwaBrAOjBGgQYdI20j8NF0cDDjG0OA4ODgkJCQiIiIq1evSs4BREYiVnrMMjQ0FMtj3ZCQEOrUmCQpTKrjawXxU0YC16S5fv16VFTUDZabQDRLDJCQkFBQUCAUChsbG4VCoUgxRGiKEt2ucPIOxtraWlR4NdO9+N8D9IUE7cXVTH+pNWD51krVANOrkgAXoUogwFAtu39qb9XVgiqZgHtUEDMnwq1CDkHtGU6o9SxlVqmzbT0SW4raIX46ZscCPC78Bgprw+EYs56QcDs2Ni46OiYm5lZMTAxzS9+MvskECTdu3IiScCMqCkPU9etR169fv3btGsbXgEiAtRXMErUqq9hr165FR0dHRUVhRYyvX78eHR19C8ApKJim49jY2Li4uPj4+Fu3brFnJZEle75SS1ahzBJVSu/t1q1bsSxxQLw0CdIkJSXl5uairlFBKGCidEV6ls3/f/O7Sf6DFzAnAAAAAElFTkSuQmCC;" vertex="1" parent="1">
          <mxGeometry x="360" y="956.39" width="101" height="103.75" as="geometry" />
        </mxCell>
        <mxCell id="VVVXWn_tdc937dLlu_xc-3" value="" style="shape=image;verticalLabelPosition=bottom;labelBackgroundColor=default;verticalAlign=top;aspect=fixed;imageAspect=0;image=data:image/png,iVBORw0KGgoAAAANSUhEUgAAAUsAAAFUCAIAAAAiVYmHAAAgAElEQVR4AeydCXQU15X3iTdWSa2W1Np3CYQWNoHYkRAg0IYWJIFAIIlF7IvYzC5hDF4njpckXiaZTDZnMpNksk0yk5xMJmOQbOzJF9sJSBgkdpyTxDbaWXI+q/7U5epVdanVXd3qbvp/dEr33fequrq6fu/e96q6ekinR54j4DkC7nsEhrjvW/O8M88R8ByBTg/hnpPAcwTc+Qh4CHfnT9fz3jxHwEO45xzwHAF3PgJDujzyHAHPEXDfI+Ah3H0/W8878xyBri4P4Z6zwHME3PkIeAh350/X8948R8BDuOcc8BwBdz4CHsLd+dP1vDfPEfAQ7jkHPEfAnY+Ah3B3/nQ9781zBDyEe84BzxFw5yPgIdydP13Pe/McAQ/hnnPAcwTc+Qg4BeGdnZ1dXV24OVj7YKOluTbatbSWJS9EjZUGv4mZaskJj/IlqIFg8Pa0/2SYqxU2wovCKryKbDra8AhFDSftGG2KG3hpbI12g5zmDNqC5avQppT7Y8VGaGtuaQwy4Z2dnR0dHfyc6O7u7unp+dSMPvnkEzM1ve5PZGm0Eao0Nihv7P5//hL3vXpYfxug/ipLud5f//pXpZN7sKrSI2/yr3+RRMUBGX/7298G1F5ojJe2YvnJJ5/0SMK51NHRQR0H9QJuCXC/b8opCO/s7Lx58+aVK1caGhp++MMfvvHGGy+99NKLL774JaYXXnjhi5L+gen5vnpO0rOSnmF6+umnn2I6ceLEcUlPSjom6wmmo5LqmepkHZF1+PDhQ0wHDx48IGt/X+3bt+9xWXv6arekXbJ2SqqVtKOvtjNt27Zt69atWxTavHnzJlkb+2o9U42sdbLWSlojq7q6uqqvKisrV/XVSlkVTCtklctaxrRUVhlTqawSSUuYiouLi4qKCiUVqGmxpPz8/IKCghUrVtTV1f3gBz84f/58e3s7ggeFkK4HVYNP+M2bN0+fPv3GG2/U19evXbs2PT09MTExPDw8NDQ0zGKF9lWIJGHtvk16S2hGfhRpSX5uUG1ISEhwcDAvKm1zK6IldgAb4S1px5QbhCdYlrkGvBm1kVe695/aKBsEBQWZ1BQYGGgymQIlqdWr+AICAlS8mi4rVsH2QkJCwsPDY2NjJ0yYsGHDht/85jc3b97seuA1OIR3dna2t7d/9tlnH3zwwZe//OXdu3cvWrQoOjo6MDBw/PjxOTk51dXVu3fv3r9/vxwULf3PA+lBpgMHDmBrzHfPpE0rq6zwHDp0SLkWi/Ra5uH+pLoyrXTEMlF7pXHo0KHDhw8vW7YsLCwsMDAwqK/AtvZSE97eyoD+5K8pPz8/f39/P1lGJl9fX4PB4OPjYzKZoqKiUlJSNmzY0NDQ8Nlnn3VKejBhHxzCu7q6/vKXv/z85z8/evRoUVFRSEhIRETEwoULt2/fXl9ff1zSsWPHkEVjCWe/yxOS0Aw2LYV1ya9tILs/ceIES/PNmk9LUq1GFV8+o6ann34a7mct1nNm9Pzzz//DP/zD80zPPfccK4kmNvP8888XFBSEhoYi1nPGzbEdFBTEq7Qh7w/wAH9/f9U2SvBBO/wy8n5Go9FXkslkiomJmTlz5muvvfbnP//5gYV8cAj/61//+u1vf3vPnj0TJ0708/PLzMysra2tr69/QtIxNWnTTr3Ak08+KZBsrqgNtrKWuNWoQhsM+znMA7WfeuoprCJ0AsQ/9wtdwXPPPQePAL6qk9o8//zzsJ955pmMjIzQ0NCgoKDg4GDQSwxrAE9gc9phWxK6QTVwJcKVVJvzEOF+fr2QE+ehoaHjxo2rq6u7cePGgznlZvenOPHUCP3oX/7yl69//et79+6NiYkJCgpatWrVkSNHwDaWR48efeKJJ9Qwv+8j4OF68sknhZiPBseOHaNNkYfWNQc/NbCwvxCYf+qpp7gH2HOPhRkB9SkEPPUURLjAPDAe6BKdAiA/evRoamoqZhnAszJdJ86VMCs9hDd1AdxQBZsIDwjoDenaEvJ2jjry9qCgoJSUlLq6uo8//rhLvijLacdp6a5Lh8ZwDL+///3vHzlyJCYmxmQyrVu3rr6+/ujRo1gelUXAg3YqcmJhUxWM+31A3ySf+6lTEEhGNyH0FNQL8MbcpgbHjx/nGPMibGrJm1loU3ZAkMNQ7QWIf1XDHP/PPPPMs88+u3///oSEBArgBLPSUMIseDjJqrZAMi9y8vsl3Gg0crDJRiTHyDw5Ofn1119vb2/vktTd3Q3D7ZeOJvydd9558sknU1NTvb29KyoqAHZdXV19X8mk9/4HumRwpKkZdwqoK2O4knZQTX5C3RztxCpHXSPgowqNaV1VAy1Vsecwk42WKHKbh31uCzGfuoBnn30W9pYtW6Kionh+bgXbmHU3aYoYVoJNVdps05SbOcKRsSOSBwcHz5gx4/e//31HR8eDg3dXV9eQbkepq6vr2rVrr776aklJyfDhwxcuXHj48OEjR44Q3nWy+sLeWyKSyXjiiSfIVoWfmFcN9bwXoC6AVuEGYc8NAhtO6hE4ydxJ7bnBCSekuVOwqQ1dz+cGryX+NQwhF3j66aefffbZEydOVFRUYBBOI3BbCAerStIFhpWQ98u2JXjTmNxgMBiNxsjIyJqams8++6xLkqNO/EF+HUcQ3tnZ2dPT09bW9tZbb+3duzcoKCg2Nnbfvn11dXWccAIbpKPIbWrA2RZsZXdAfYGyCl2D0EEAWg65YCu7DAF+KmJFKlKmwDmHDZiVfuoyBNqppeDnQwPOvKqN+QLeCxw7diwnJydQlpJtmnKTm4j/TRZIyTP3ENt8qpycZFAqbs7onW2T5CvJYDAEBQUlJib+7ne/6+rqGmTsHPjyjiAc0xuffPLJa6+9lpub6+3tvW7dusOSQPgRSYBZWNYzWVLFmt8zMcivr6/H6soGRD71BUKvoVqktYQOgncHnG2hX0AVpQ9CS3NFAhvkc7ypijsttCkXqKurmzVrlslkUg3ggeZlskyYOeM8cxvXycAwuCWeyTDHM/llrtX/R0REbNy4sbu7u7Oz04GUDeZLOYJwDHuam5uPHDkyevTo+Pj4g5KQpQPvw4cPCwALRfQFgpMXld2EADNvTEMD3oZI5k7Y6CbQAOvCploUOd6CLRBOtYS60FOQX+gFQLJygkA5KADeRD4ZhD08KALyQ4cOJScn4562QIvveDExad+RpiSc0CWDWFWN4bxW1SayEbpRpDAeEhISExNz7do1D+E69Dpdsjol/eY3v6mpqTGZTHl5eUeOHDkkC8GcL8EqLYUqFKkWhqqzTiEAqXD3OgSq0UZwKoucc6EWVUQ+FSlTIMipypxBLZWxHfw/+eST6CB4A+oLuBM20U6QHzt27Pjx47t27QoPD+cBHJwHasokSYNtCtSEMfcEBAT4+flh9WDpCjxdAKP2MDCuVgUbTsJbMEC4r6+vv79/VFTUj370oy5JOpzlTr8JO8ZwHESk6D09PW+++WZRUZHRaNywYcPBgwdlwMX/nGfYuJUSS6GWOCf/kSNHYFOVtoG5AD5Y4O3rFFLFWHAq+wvewBzGNJrg+b9qYwKeDDSjIg/73Em2wDzF/+rqajBGYIN2DcBNFgg8q96sRgwHBgaOTUpMTE5KTE6Kj4/nV8I1kOZVuDYmsE0xnO6BCQ8PP378eKf0hWWnx1OHHXQE4V1dXR0dHV/96lfnzp0bGhpaW1t74MCBg5LIQFEgH0660xudAbUhqpWGandAzXgt55kaYPiAIm8AmzoFPnDgzRTdQh1viVrOPGwifO/evTU1NevWratR03oz2rp1a11dnYA6z/wFqlEE87CPHj2anZ0dJIkIN8lfNVGFnOg2F8ApVpszKDjHx8cnJSfNmzcvPSNjwoQJERERlKVzjJW2UZKvry8MjSUieWho6JYtW3BhXAeAnH4TdiSc3jsIf+aZZ1JTU8eMGbNz5879ml8pOWheRDtxLuYA8hc/VP1KJ6da1UZ3wAFGmsA9tCJ39msrOwL0HYWFhTNmzJgpadasWbNlzZkzJz09HcsMWXPnzs3MzJwnafPmzbzjAO0ccorhZFCPgP4lLS2N2FZFmpzEtqphjmfuJ7aN0v0qCWPHjhufMnfmzPyFi6ZPnx4fHw8/XfFSsk1VGlRTFSXqwcHB5eXln376KZ2f7m04gnB8R/f48ePJyclJSUkgHJDvZzogicPPSadoj2ZY8gYH2dez0Zh45t0BX0W1AZyHpe9+Hzx4EPTysI8q8gtVRDufR6SxA3eiJTqCOlmHDx+uqKgAv3MlZUqaJ2u+rAULFmRJWigpNzd39+7d9ZKUwwSiHQaaCcOBAwcOjB07NtACmTQFjAGwambOM3A08/X1jY2LTUwaOy1tyuw5s2bNnoUYDqpBqUA4nJYsfZkMBkNgYGBpaenf/vY39wab3p3jCH/yySeJ8H379jG0e00QCyds1SW1RC3hKviFWmoGg4N94MABygvITx7Ucj+3ecfB/Rxysjnk5OTAE+p8U7CpPe9NhA1iIGDJcIDw5kZdXV1tbW1oaGi/gGvS3VupTTiRD4O4NZlM8WNGj5swfuLk1Li4OH9/f6KX2pCBKl9J1EzVQBta4qq4h3DiXx8DWfqxY8dAeG1trZJwsL2PSegC9u/fj0qln/cL2rVCnD+g0EFJ5EZ7OAl7MohwNKCiElFtDwEMQ9mYN+CjBvjRNQB4sgl1bihraU6hrq5uzZo1/v7+/DEPStq18eZJuDmbEw5icXdab7SXBv3oI4xS6m6URGCTAT+4ha26RAPctQrbE8P1QVrYSpf0hR4ifMeOHY9LYjj3mnAqq7j/8ccfF9ZSdhbgEz2COeD7rUVSIKQGvHjQjGg0oVqvWsuRprW4U7A58Ko2SFbyL3g48PX19VlZWQEBAUqq4QHbNs6ocby5Tej2ez2Mj719zc+uEdtKA1n6J598Ipyl7lp0RJYOwp944okkSUQ4obtXEhWVhsA/NVDSTsBjFTQgzoX25KcEgRqgirZGLdF9YClkBKpteHuyCWOaLyAPJQJKj8A5ipgUQGCnBoS94Fc2oJZ1dXWJiYmqM+facRsh11zEFjJ2TjW3OeHmbKMsDbDRxNe8kKWXlZV5CNezRyPCEyVt37599+7de/bsAdh79+7doyaq1eB/7969iOrE/OOPP67d3lwtsS1QTX2EuQbUFwgrcr+y6oD0VCmeFIB2LDnesKl3EBoIRXQQtDpHmmwygDd6gd27d0dERCgJp9BtLnpzwjXm1cAtp5rbqEVmrko40DXKz2/xHUj0NhgMhLzBYAgODi4rK/PMtNlKeE9PD20ChNfX1yclJSUmJm7bto2I5hhzJ2zUwiZ0+SoAG5xzP7cJfu6ETVXc4CSDTJ4OCLXmioQ3BXZqSR5ucIABreDhRSXzqCWwBYOQhkFx+/Dhw9QjrF+/Pjg4WBiE9xu9Od7mwjgnWWmr8qzq1KAa/PuaFyDHMiQkZOnSpR7CCU8dDCIcMXzr1q27JRHSlhiqoR6g8tWRHZBHSbXg4akEegpOO2xaBcUBDRkIbGUY54Rzm8I7dyLaYwmeUcsbw48l9QIC7cIogBqXlJQgAgNyHro1ore5oE20K5HmHlWSBSenF7bq0ldTHsJ1wFh1E13S1/RAOEZ6iYmJW7du3SUJnKsud+3apeoXnCBZcBLkZBDw/RoEMzewFnkE7AW/soMA5KpzhJz/fm3V2UFOOO8RgC7vEeAxlyDMmDEDVBPhGmATwBoGJ1nVBsnAVaCaV1Fmrgo21WoC3vsMVoP0GFZfX9+QkJBly5Z5xuGqwFrj7JLU2dl55MiRxMTEsWPHbtmyZackcE5LOHfu3EkeVUNosHv37n67g34boI8g/tE1CE6qVRoEORINXuS2atdATmXXoPSo9gIEtrIroSrBQEs4YcfExFCKDtQ1lhpg090soFSVbXp4gyrYAt7mwIZfG2yqNcgiwh+gLB0E2m+Jr452dnYePnwYhG/evLlWEiGtYQBy1QbEP2eex3NqwJ1ko9ZcB6G9rjnIuR9sw6O0lX0BeEZ7YdLBQtR5M2VfwHkWajdv3hwSEgLCOb0EOXcStNxJtkAvNYZBSBO35CGDqswNvIlbX+kB6cjAuZNsmev7/319fUNDQ8vLy//2t7/Z75x3qi077mrZ4cOHx0ratGnTjh07ADktVRneuXNnbW0tB3jXrl3UkncTBCTVwiA/DO1aaky9ADcoESCD1yptsMpHCmjDewHiX5gOID9PAQSb88x7BMFvrgjI9+7du2/fvtLS0uDgYJPJhHE1gS0YFJ8FbnmRQIUhAM+vZhPJfBVywiBWuSFk5sCXNyD7PtmyRYR7snRrEnKNdRDDx0rauHHjjr4izpXG448/fkDSwb4SnDRd3LdVb4nfgmaullbnBp9zFu5FRxXdMSK0pFry0x2mZAj3q9bJolvQZIf6/3om9RaKb7yzNURzyZIlCQkJo6WHc4w2o3hJcXFxMJTLOMsUq6kYSdHR0TDMLaMlRUVFBQYGmiNchrrP/weR8B77Cw/NOXTo0NixYxMSEjZu3Lhd1g6m7du3o1RbW7tjx47t27fX1tZ+73vfa2xsbGhoaNTU27J4K9nXz/931ETrqFXq4zvNRFtkPgeZ77zzzs9//vM3mb6nEKvUMr/rWH3zm9/Mzc0VsnQA7SOpD9xSAYQvX76cfqvU/qf/IL/CEAe8fnd3d0dHx8GDB0H4hg0btkna3p9qa2t/9atfXbly5fr169c0dV0WbyX7XOD/jcHTtWvXzp0719TU1GxeTZqi9TRbDaCSNqhhNDU1ffDBB1VVVX5+fiCZhuXm8EZfEBoaumLFCg/heoIPwg8cOJAgacOGDVslSZiLC1Rt3bp127ZtO3bs+PWvfw3C7YEp7w6uXbvGX+LGjRvoVsh5w56iVyEDO3D9+vUbN258LIt24eOPP4Yt11j5/8aNG1evXm22TU2SbNtGn7WxQXNLavrhhx9WVlYajUYeq318fHhRsBHDPYTriTdubuvs7MTXjxMSEtavX08YqxpbtmyBf/v27b/+9a+vXr0q4EcY6Gtw4JVbvsGkrOUe1nBwzI8t1o0bNy5duqQdwIkoZzM+/PDDqqoqTLyBZG28fXx8fH19w8LCQHh3d7fOJ7pTbs5BWfrnj0zHz+UkJCTU1NQA4G3ben/mXikifNu2bY4knFNKNmFPHm44mGC8NL0oQKYiGRYD3psItLa2ujrhQqBWLVLqHhYWVlFRgevhTomkzjs1CISvW7dui6a2bt2KemcgnPNM9uBiT7sBpKlIBqHODVXsr1+/fv78eZcmnIbfqmBTbPfx8fH29jYYDOHh4StXrsTVMp1hcsrNOYJw3LW6b9++hISEMWPG1NTUbFaII0+Eb9269Ve/+hWydG2o6OQeLIN2jw8oOGDOaWMQ7rqEV1ZWahOOvN1blq+vr4dw/TsiEP7444+PkbRu3bpNfaXg/Z5jy5Yt//Vf/3VVFqfInD1YhKu+Lu2kaq05p536AtWXu3Lliovi3dzcjJk2DcIRt729vZGiYxweHh5eUVHhmUvXk3NcD9+7dy8IX7t2bV/AN3HCeZVAuEz6vf/EDzdUz2NXdNqJc5qixzHBINxFIdcgnJAWDF9f34iICGTpep7iTrwtu2fpuNGts7Nzz549oyWtWbNmw4YNGxXatGmT4Nu8efN//ud/AmiOMdkC80I+T83IcAbUaWe4QVfmKMm3H+G0ZRqEuyvhyM055CB81apVnhiuZ6eE6+G7d+8eM2bM6NGjV69evYFJoBo1Gzdu3LBhw6ZNm7QJ55CQrdEjUBsCyRmYV+6Dud0jOHUx6F4XdyKc86y0ifBPP/1Uz1Pcibdl9xiO6+EdHR27d+9GDK+url5vmTZu3GgF4RxjVVuI/NRGSdpgecwRbuGu9ss/bqS5evUq2HYPwpU8Cx5vb28QXllZ6SFcz04JMXzXrl1EeI0kJeYU2lFlBeFEL8EwIMNV4r/qm6L+SJtw4H39+vWLFy82yWp2QQnjcPCszMy539fXNzIy0kO4nnj39PTgeek7d+5Ell5dXa1KOJw1NTXr16+HvWHDhl/+8pcWUqd60uvoJH5Ub5LntYNlq75Z7AxNsAF+OD/66CMX5Pr+LhPhQqw2V8T18MjIyKqqKs84XE/IzRFOSCuNddLv8q1fv37QCe939k7J1WARrvq6wu5Rm2vXrt1nxTUtKwhHDPcQrifeGIe3t7fX1tbiG8hVVVXrmDje5CbnL37xCyeJ4QIqNBxQ7h5R5IQG3sX169cvX77sosNv6o5AuMFg4Fe8VQO4fMNL7zg8MjKyurraE8P1hLyrq6u9vX3Hjh0gvLKycq0FQhj/xS9+cUWSANi1a9c0GOONeRBWTbB5Y/vZdD1s0LHHe3Td29GVhKtSzZ0ewvXkWbktIjxe0qpVq1avXr2mP61du3bdunVEODjnS44uAW8/RG3csvOEerwR170dfUCEe3t7e3l5eQhXUqmnp7u7u729ffv27SB85cqV1dXVq/uKPAT+6tWr165d+x//8R+gWojYgvPKlStCAyraSKa+q9NeCQa9igMiPHrDc+fOESoualCWzsM1bELaSxIVjUZjVFRUdXW152qZHQmvqKggnoF5tay+1N8nnPMgsC1U8SJsgmdw47yQcfC9oh3TbmPuIvlAO4Vr165dunSpubnZbcbhqoSDbR7Avb29jUZjdHT0g0X4LTuL7njZtm0bntUHwmWo7/1fvXq14Kmurl6zZg1iuJJbvTxEl4Cc8xeVYFvYBVy7dq2lpaVJkotGb+y2uRiOiC2wDScIX7NmzWeffWbnE99ZNj/E3jtCc+lbt24F4StWrKiSVF1dDUMoAvWqqioiXCMJHxDqfBivmgs4Odiqb5b2+bokFGGrLq9du/bRRx+5JeGUjZszPITbhXeMwznhlZKqZAFpAI8qLKurq3/+85+roqh6rlviRGfBt6nEnntom9ecVbSHZKjuKdF+5coVPHrRzbJ0c1Rzv4dwuxDe09PT2dm5efNmxPDly5cD4MrKSpnx3v/khFFVVWUPwgkD2w0BJNqg4HeeIsb5GIS7dH6uzNI5xho2Ef7pp5/a5Vx3vo3aPUu/detWT09PR0cHEV5eXr5KFmDGUvatIicIv3z5sl5ZOkFohcEDO08BNDblDGzT7tGMQ0tLC6bZ3CCGr1q1Cne8aFBNVV5eXr6+vjExMWvXrvWMw/Xsi0D4pk2bYmNj4+Lili1btnLlSuJ51apVKyXBw6uqqqp+9rOfOQnhhAoMJfCEPYHNVyHnIBrYH/cYhOMZL6tWraIHuRDJqgam1o1Go4dwPdnGtkD4xo0bifAKMwLqtKysrPzZz3526dIlQE4IcXKc2aZeoN/LYI7B/urVq5cvX3aDK+GUpfdLOF0z8xCuP9i0RRC+YcMGgfAVfaWkftWqVT/96U8Fwi/LIn64wYF3htye9od2kjyWGPqSf/XqVbcZhFsYwwXCkaWvW7fOk6UTnjoYSsKXL1++YsUKJdIc+YqKipUrV/70pz/lAZw4sdywBCTnaUNIY5eoqItx9epVXAl3g2k2SwgX8Pby8jIajbGxsR7CdaCabwKEr1+/HjF86dKlnGSyCXjyqBJ+9epVJd5yXO+dkyM55wBeuzehnadmurCNjVy5csXVvxPO+6YPP/xQI0tX4u0hnFOppw3Ca2pq8MOypaWlyyWBZCXYAuGXLl2i8946g/iHQRtBZ0FdBkHlbAbfYdo3QEtF7aE+mrnTINxcDAfYoyQpIff19Y2Nja2pqfFk6XYhPCYmJjY2trS0tFwSODe3RBqPcTid4jYaAuFCUXXjHCEXsoXIjz1vbW3lMdDVbWUMVyIteJClewjXE2+6Hr5u3ToQXlJSsmzZMkCuukQtxuo/+clPbByHq3LLnUKEF17OhahW3VUe6t3gG6O8VxIIF2BWLRqNxri4OA/hdiF87dq1MZKWLFlSXl4OjJepiWqXL19OhFsSbzm3etlK/i9fvgyWhLl65SuqIjdYTrpZlUPi0jYRTjCPGjWKbFUDhG/YsMGTpesJOcbha9asUcbwpWoqKyuDu7y8HIQPFt5KaOER4ryA+mAxrP267nSdDB2TknBVqsk5atQoD+F6gk3b6unpaW9vX7NmTXR0dExMzJIlS9S4XkrhnGo54eZgG0S/wDlFe9Vd0sbPAbUXLlxw9dtUhYyDCNcO3agdJclDOFGpp4Hvlq1evTpaUnFxcZmaCGwyysvLf/zjH+OOF+KHDA6SqpM3GBTbir2yE+rul6JjLn3lypV4ThMFasEgvEdKMhqN8fHxnixdT7zp++EgPCYmhhNeqqaysrLS0tKysrJly5b95Cc/uSSJaFE1BgVg615Uuf88yadt6oU6Nn758mUhALpB8cMPP9QmfNSoUSNHjkT0hg3CN27c6BmH6wY5EV5dXY0svaioiLjmsZycZCxduvTHP/7xxYsXAbnboy6k/brQjo24wZNVlV2SBuGg2svLi/CG4SFcN7D5hnp6etra2qqqqqKiomJiYjjhBHOJQqWlpUuXLv33f//3ixcvKuMePJx8l+OfvymCmZzk4RHeusB+5cqV8+fPu8GD2QTI+yUcmTmH3EM4B1M3GzNtFMMLCwtLS0uJaG6XlJTwYllZ2Y9+9CNz43CCYaAGh8dpbdU3pbq32thfuXLFzW5lI85VCQfPSrYpho8ePdqTpevGNjaEq2WVlZVRUVHR0dEFBQVLJJWUlMDgS5APT2lpqT0IV4XHXIasCpUzOPEuVPeEM3/lyhU3u5WtWZZAOI/V5myj0fjAEX7bzgLkHR0dq1atAuGLFy8uNq8lS5ZQZUlJif0IpwzfHPCCX5Ulp3LSDgt75X7XycC4KuF8ak3JOQjftGnTzZs37XziO8vmhzhgR27dusUJz8/PB8NFRUVkFMkqLi6GWVxcvGTJkh/96EeYaaPT196GMJ7XHiMILKaaRhMAACAASURBVDlh8fLly/RQlyZJcgh0+f+4Hu7t7a0kWdUzcuRID+F24R2Er1y5EjE8Pz9fxln8X1hYWFBQUCipqKhoUAgXehABeKFWteg8nF++fJl+/AB4u9NNL9YRPmbMGE8M15lzEF5RUREZGRkdHZ2XlweGiWSAzp2FhYWI8D/84Q815tJVAdPXqRrDzWX4zsM2JtguX76M5y66fLxWewPI0pWXxJQBHBNviOEJCQmbN2/2ZOl6Qs4Jj4qKys3NpUAtUM2LIBxZur7Q2mNr5pjXeC17dwd4aXyfzJ1CN8HuIdwSSh03Dl+xYkVkZCQIB8kFZoRaHsOJHytyZg3G7F01oN3WHXhK0d3vSjgg//DDDysqKjRiOIVuMoxGoyeGW9IvDKwNrocvX748IiKCYjjoXqwmVCFR/8EPfnBREtEiFF2IeXoLSoP6Gr04x8U/t7yVjcdwD+H9ouiIGK5BOI/iStgLCwv/7d/+rbW1FVTzpQAJEeJChvZb4KjTm+JOS2xcJ3PLFJ2+eeKJ4dqQO4JwjMPLy8sRw7Ozs/P7Ssn24sWL8/PzCwsLf/CDH4BwgQfrioSKixpENd9/cnIDDSjcuaVB43DhGjhy8hEjRlByTgay9C1btnhm2rT7hYHVIoaD8MjIyEWLFuX1VV/e75Xy8vIKCgpA+IB45qFeNaXH1jgkTm7T21fdTw42bDS7ePGiW4JNb0qVcIJZ1fAQPjB0LWwNwpctWxYREaFBOKjPlQS7oKAAWTqd4tYZSuaF76ths6r8uK7TXW9l0yBclWru9BBuIbMDa4YsfenSpSB84cKFwDg3N5fHcnKSkZ+fb0UMt64XMLcWJ1y4Ni4UecvBsuld4Nsm7joCB+Q8hgNj1cycCB8xYoTRaBw7duzWrVs9WfrAGNZufevWrfb29rKyMiXhgDmnrzjhusRwOu+1jYtqIlZV16Va5zGwn5hFd3vCMZc+cuRIbbaJfw/h2qhaWQvCS0tLMdOWlZXFic7Nzc3JycnOzlY68/LyHEk4Z1gN9l4fb8NtZyPczR6cTJk5N+h6uCV4oxfwEG4lw9qrYRwOwiMjI7OysrKZFi1axEp9TMcTTmBzelVttORVTgU5fr3oQYjho0aN8hCuAaAjrpaB8JKSkvDwcCJ8kaQ+QLMCsM/NzR2sGM7RtdrmMV/JPzar9NvuwSy6e+ON6+EVFRV4ABsNts0ZIyQhhm/bts0zDtfoFAZcBcKXLFkCwufPn094w6AiGKeonpub+6//+q+tra1WMzboKypDPe2S7SSrbuHSpUt0o4t7Q44sXZtwgD1ixIjhw4fTTJuH8AEzrL0CntO2ZMmSsLCwiIiIefPmLZTE8Saqs7OzyZ+Tk+PShPMYTmCTwUcEqqxa4cTG8YVwPmR1S9tCwodLAuRGozExMdFDuDawA65FDC8uLg4PD4+IiJg/f/7ChQuBMVBXFuHPzs7+/ve/z+9aJTxgKBFSeoRVnK1oLshzvGmfuVPVvnTpUmtr67lz59wSaeFN9Us4BXAy/Pz8EhMTt2/f7snSB4yxxgpEuBDDKZIT54IBwltaWi5evMg5p+hnziAkXM6gd9TvnisJx/V5N/5CuIWEE89Kw0O4BqfWV4HwoqIiEJ6ZmblgwYKsrKyFCxdmKcQh54TTqS8YrZIEp8tF8n55xhsUmgFywYlZdAEGtyyqxnBQTZm5ALmHcOsx1liTCA8NDY2IiMjMzJwvaQHT/PnzWemeuWjRon/5l39BDFcyrOoB8MKSWnIYyOnq3QF/I25/LzrvqohwXC0TYFYt+vn5JSUlPVhZOp6Far/l7du3QXhBQQHF8CxZCxYsAO3CEohnZWUNlHDhdEeRgFetFZy8F3At++LFiy0tLe49f26OcFWelU5OuP3Oeafast2vh9+5cwf3tBUUFISGhoaHh8+dO1eVZ4rh8+fPnzdv3vz58/UiXGDYHPY01L906RKt4kKQX7x48QGZRQfnPIYrYVb1cMI1sk53qrI74bdv3wbhixcvVhI+TxYxD7YB+YIFC3SJ4YSrhsHjvGsRzt+Uuz6wiYdusjnhuNytSjV3Go3GBy5Lv2N/ccIjIiIyMjJkru/953jDlZmZOW/ePEcSzjkxZ6MXUB2381UGJew/aCk67mlbsWLFyJEjLcQbd7wkJSXt2LHj5s2b9j/xneIVhjhgL0B4fn4+Ynh6enpmXxHw3O2EhHOMLbEdgzp6nActRR8Q4cNlIUv3EK4z9bdv325vb8/LywsJCQkPD58zZ85chTIzMwUfpty/973vtbS08LTZErQc1oZye27QqzuG8MuXL+N+gSZJlMS6vfHhhx9aGMNlwIcjS/cQrjPhiOEC4QjXnGoK4OScN28eCKc5MILHmQ1OO9mW7LB1PQK27PZPdFF2WEQ4H2kLNtgeJstDuM5sY3MgPDc318IYTqjPmzfvzTffbGlpcS3CVWEm1MlQbUZOy2nHKg/ULDpo75dwwptiOLL02tpazzhcN9Rx4aG9vT0nJ4cIz+grBO2MjAyK3jCIcGShYIMYcFGDCFc1hDdlCec4OA/ULHq/hBPSguHn55ecnOwhXDe8saHbt293dHRkZ2cHBwdjHJ6eng7G05mIevgyMjIyMzPffPPNCxcuEAwAwD1QF2AWisJbRq0SeEyzXbhwASf9A7VUjeEUt4cNGybgPXz4cH9//6SkJA/h+hPe3t4OwsPCwmbPnk0ME9VkpKenz5GUnp4+d+7c7373uyC8RVJraysZxADP4VWdAjyuW+Tvjr/rBzBF53PpNPbmSCsJHzZsmIdwndnG5jAOX7RoUXBwcFhY2MyZM+fMmcOC9z0zIyMDFgifM2dORkYGJ5yf3+CcllTluvRased41wjgD87NqpSnCDGcojfnnNsewu2CN+5abWtrA+GhoaEgnCAnnmHMnj2bPBqEE9KCQcxjfk6o5UUriHLOVdz410UJZlVDSfgwWRxssj2E24twXA9fuHBhcHCwknBKy2crxAnncA7U5tjDNrcF52TY3F7hXZw7d+4BDOA8SyeGtQ0Qnpyc7LkerjPqAuEzZsyYNWuWAufZs5hQm56e/p3vfIfPtJkj0zq/QLtq2DdH16D78ZYfkEeyacTwESNGIHJr4z18+HAQnpKS4plp05nwW7dutbW1ZWVlYRw+ffp0xvKsmbLIOXt2L+1I13UkXAmwMrYr26j2HU6Cd2trKz0X/QEM48jSQTjwVs6uceyHDRvm5+eXkpKyc+dOz/VwPSHHTNuCBQuCgoLCwsIQw4lnMmTS7/+fM2eOjoSrsmqdc9AJpxsEHsDL4BTPiXCOsaqNID906FBcD9+1a5eHcP0Jnz9/PgifPn36jBkz7nMsW7Nm9YnnM2bMmD17tlMRTjGf+oXBQh2XyihFp5P+gTIsJBx4Dxs2zEO4nlTzbSGGE+HTpk1TEj6DaebMmSg5G+EENhnEvLn03q5dAC6DP4D5OToySwgnvGF4YjgHUzcbhM+bNy8oKCg0NDQtLQ1hnEHdx5wua9asWYjh5vgh0lzI0Gae3oh2M36nqodw1cwcU2uqhHvG4bqxjQ2pEk6Qyzj3pu6CZs6c+Z3vfAdxkk59FzUo2tP+c4ZVnbyB0qYU3UO4knABbCr6+/snJyd7CNef8La2tnnz5gUGBoaGhk6dOhVUE88EOTeQybsN4cQwoc4NqiVDiTT3tLa20p2qHsI54QSzquEhXGe279y5g2ettrW1ZWZmKgkH0tPUNH36dMTwCxcuuFOWTgxzg9MOm9eSTZDjZw/wyAcP4UrChw4dqkE45tJv376t/+nufFt03FOc5s6dC8LT0tKmTZvGw7Ua4L2+mTNnfutb3zp//jx94UQggU597ien+xnU09Fl8OYHWDTThsvgqkgLTlwP37VrV1tbm4dwfbojetZqRkaGQDiBPVUSFcmYMWMGCEcYB8YXmDjYSttdCafvij4gv09mrhPjhAskmysS4fx3y/Q50Z11K0Pu2llI1Nvb2zMyMkwmU0hISFpa2tSpU6dNmyaAjeLUqVPRAMP1b37zm+fPn1fSK3gY9fdM3sBtUMebOn/+PE76B+3BbALqnPChksyBjVpcD09JSdklxXBC8q5byxFZOu5LT09PB+GTJ08GxmmyiG1iHg2mTZumjOEcXW2bsKdmA0WdsuKBrmin9ngjbvDLZHzu4OzZs8KdeTS/oGoQ53he+vDhwwlgc8NvaoDr4bt3725ra7sri1C3wrAl1affXcDr3r59++7du1bsg/Yqdo/hd+/eBeFz5swhwmW0e/8LtKNqypQpGK6DcELUkYadKLVls3j7dIq7tEFgn5WlyrOG84MPPli+fDnuSyeGtcO4v7//+PHjd0l3rcqA3/+vjYqNtcQzGdgg+giwDcjv75Ae1iAQnpqaSoRPkYQiRx2ET5061cIsvWXguiBLdVWa27MFSN3XbWlpcY85NnD7xz/+8d133/3v//7vX1ulX/7yl5WVlbGSYixQdHR0YmJienr6jh073nvvvQ+t1Qdq4htTq1f3vf/+++fOnfvrX//a1dWF8aweUPfZxuAQTmCD5LS0NHgmS4I9ZcoUuxKuCra2U3dirdigS38bHMl5U1PTn/70p1/96lcvvPDCunXr8vLyFi9eXFpaWjZw5efnL7RYWVlZixYtys7OXrx48TJJ5ZKWLVsGQ1iiDV+Wl5fzIlYsLS3Ny8ubrdAsWaiRS33+z549u7CwsLa29jvf+U5zczPP+e/qJMcRPnv2bJPJFBwcnJqaKpDM8Z48eTI1SEtLs18Mb7FMcqTv859WbWVSdbJ6HUxXf2AT8vH33nvvpZdeWrx4cUpKSllZ2e7duw8ePHiEqa6v6uvr6+rqsIRRr9BRWaiRS/f+k/MJhY4xPcl0/PhxVuo1j0t68sknsQZqjx8/Xl9fjyeFhzKFSAqWBDskJARFWgYFBQUHBwcFBQUGBsbHx69cufKHP/whJgju3LlzVyc5iPC2trZZs2ZhHD5p0iQQjmWqQlTrDIS3mNcFJvOtxBpbQKf72JpdU01NTY2NjfX19bGxsfPnzz969OiJEyeOHTt2vK9OyHqKSfadYL575tNMVMt898xn+urZZ5+F41lJz5nR8331D5Lge+6555599tmnnnoqIyMjJCSEAR5KVJNBYMMgvGEEBgYajcbJkye/+OKLn376qUsSPnPmTIHwKZImT548adIkBea9DicnXGTXsrIthLv0BfCmpqbTp08fPXo0Li6usrLy+PHjxDbFw76k95ZArAbehDQ3lHhzD8AmDwcftPOlAP7zzz9PHnD+1FNPpaWlAW/wHBp6j3AylJwHqcnX13fq1KmvvvrqzZs37+okB8Xwjo6OmTNnBgQEBAcHT5w40Vz0FjifMmXKoGfpLXaT5ajjoh3d6OJa8bupqens2bNNTU1//OMfX3/99WnTpq1YseIJScdkgfBjx47B4Ckx2cdl8e6AyNc2OPzcfvrpp7HVp5566umnn0YVyCfseZGTT/axY8fGjBljeQBH0KaQjiw9UFZAQEB2dvZvf/vb7u7uO7Lu2iAHEd7e3j5jxgwQPmHChElmlJqayuO5uxJ+QVKLpoh/tGptbXXRAN4k66233qqoqMjJyTly5AjGx+BcWIJzmf37/5+UBZdcuvf/uHnxPkLoCHbv3r18+fLq6upDhw6hivMv2BTzn376ac7/vn37IiMjNQgHzBSzOdtwynT3/jeZTGFhYXv37v3kk0/oCvldGzQ4hE9U06RJkyZOnIgl6lNTU//5n//5/PnzF6Qvn7S4ry70lfBGW1tbXTSAN0tCGP/GN74xc+bMbdu21UmqZwLw5pbKLoA89zsANQv089QAnuOSDh8+vGjRogULFmRmZi5duvSJJ56AX7kU+gVO/okTJzZs2BAREaGakAuzawQ54jYVA/vK398/MzPzvffe0+X6mYMI7+jooBg+fvx4NcDv+ybISk1N/cY3vgHC+yLQp9TivsL7bGlpcfU5trNnz+7evXvevHkHDhwA4UrOaZ4cBgFPXQF5lAYxr2ocO3aM+8H8nj170tPT58+fn5eXl5+ff+TIEfBvbknknzhxguynnnpq6dKlSrxDJAVL4mk5p5psIVE3mUxRUVFvvvnmHVl3bZCDCG9vb58+fTqy9HHjxgHhiRMnyiz3+U+sqxJ+numCQi3uJXp/zc3NuAms2dWEAP6HP/yhqqqqpKTk8OHDhw4dwqUxjnpdXR056cLYkSNHhDYaV86U2HNPfX09Lz7xxBNHjhwpLCycO3fuokWLqqurqQugYQJdGEN+8KSaTpw4kZOTExwcDKQ52LgSRngTz4GBgdzuG78DAwICTCZTYGDgF7/4xTuSbKC7d1XHET5t2jR/f/+goCAivA/WrGAh4RcslqtT7+q/anL27Nn33nuvuLh42bJlhw4dAuQwDjORB6ijBjZfcubRBSDIcz/ZqDp69CgRTp6jR4/u379/3bp1W7duxdQAID969OgTTzwhdAc8CwDwtJw9ezZitcaSI022ELoxCMfSZDLt27fv1q1btkPuUML9/PwCAwPHjRs3XhbjeoIypE+aNMmSLJ2TzgL8fdPVCcd9bE1NTc2uqaampvfee6+goKC8vPzgwYMHDhw4KOmQmg4ePMiov29y/u97Dx8m+FV7BEJdaQD1+vp6yhTIozQE4KkXqK+vT0lJMce2ADMVA83IJAlhfM+ePbdu3bL9TnXHET516lQQnpKSwsGGPX78+AkTJgB8qgXhH330EWfYfrYTdgQXLlw4f/48ZtFdnXDcK3pAIQn2+wvUo3zo0CFzxsGDB9X6h94EATkCjMNSFwCb+gJzhmovQE4l9hhZREZGqhKO/BxUa2fm4B14m0wmgfA7tt3f5lDCeZYOmGk5gYmcEydO/Kd/+ic7EU4hXrvLGFzsL1y4QHNsbkB4eXn5fgsEyPfv33/gwAE0hwE/pQCAX1hSLecfbWpqavgt6MuXL1/RVxUVFSslVVVV7dq168iRI9RNoKegrgFsHz58eM+ePUFBQSEhITTeBu0ENmdbmZZTLAfeAbJMJtOuXbt6enrom2d3rZUjCMezVtPS0vz9/YODg1NSUsDwOIWIbRh2JZzA1kZ9sAjHBcILFy7QZXCXJvzdd9/Nz89funTp4321TxJ8sPfv3w9j3759+2UR6rJD/E/wo1+gIozDhw/v2rUrKysLjx6ZLgmP+sTvcMyWNEf+0eu5c+dWVFQIaQKnHcDX1dVVVlbi2xZAmoI5wUyZOXlM0kQasU0Db5nu3pk2k8m0c+fOnp4eGwO4Q2faQHhQUFBKSsq4/oQ2EyZM+PrXv/7RRx/1e8GMcNXRIPJh0JY58+S00xV7epxLsysL4/Dc3NzS0tI9kvYy9UW+T2nfvn1UJuxhCJ0C9Qv7ZQkdxN69e6urqwslFUkqZloiqURSaWnp0qVLt2zZQukAUgCeFMA+cuTIokWLAiVxkgGz0iOR2ztPToKHL4nz2tpaxPC7tskRMRxPgCDCk5OTU5gI9vHjx5PtDIRzegdkt+ghvCIF8GZXVlNT07vvvssJlzDvZ7F3717eYq8sYv7xxx+H7/HHHyfsYVCRqtBZ7N27l69O3QQZtDo6CiEXIObhP3ToUGpqKl0VUyJNcZuQpogNqsEztwMCAvz9/QMCAnbs2OF6hPv5+QUFBSUnJ3OSU/oK/GM5fvz4QYzhYMzypRDqbYzqeN0mSa5Md+++g/CcnJySkpLdatolS6jkhAs22CanjL/Z/2BYIJx4VjWQFwB11eXevXvHjh3LZ9QoemP4zcGGDZgxnYYZNe7xlxUQELB9+3aXIRy/LkwxPCkpiaAm1MeNG0dO4I3huv1m2oCQXZeqeX6LLNWXlit7/2OOzXWH39QxgfDs7OwlS5bslFRbWwvD3FJGXvwvdAG7du0SPLzI+SebjL0KUS9AHQGawM+X6BG2b98eFRUVEhJCJAcxIVxTFRmENBmUmcNADN+2bRuuh9+1TY7I0vlMW1BQUFJSEoFNVKekpCQzwT9+/HiXJpwzLNBuycwC2HYPwk+fPg3CayUBbNi03LlzZ21t7Y4dO/rln/oFsQNQlDnwShu0w0/k79mzh7MPP/cQ/+vXrzcpps0oM+dVBLNgCGzzomsTzli+Z/LAnpSURFm62xDOaSdbmdhTFT1Q1W0IX7RoUXFx8fbt23fs2IHlDjVpVFFfQAahrmHs2rWLahU9QG8KIDipIwDbWCp7gccff7ykpMTf3181IQfJwqgbTo4xbARt8qO4detWF4vhU6dOxeFITEwUCE9iSk5OBuEYrmMcTue9SxuWxG3c4uIeU+jNTKdPn164cGFRUdG2bdu2b9++bdu2rVu3bpOEImzUbpfFewAl+cS50kAioPTDQ8DD4IQLHs4/kU8GHhBOQTtIUmBfgWphSTDTvJo8AO/97+fn5+/vv3nzZhcmPCkpKVEhhnlvDEdUdyfCLeyeENgxQdXsLjp9+nRWVlZhYeGWLVu2bt1Ky82bN2/ZsgXLLbK2ypIdvf9lXz//qafghtxj3P+ProT3IP3atUzoQRITEylKc2jJBrcgVmDYr6+EWn9//02bNrkM4bhaNm3atICAgKCgoLFjxwLmxMRETrXSmZKS8rWvfW2wrodbCKS+zYC3q9+IzvsljDJOnz69YMGCgoICsLp58+atW7fu3bv3a1/72rckffvb34bR75K3/LbF+o6k7373uzC0l8pm31XoW9/61u7duykBud95SBkK71/QJ5FH6KK2bNmyePHioKAgf39/o9FIMXzjxo2uRHhHRwe+PRoYGJiQkJCYmDhWkgA54jqqxo4dm5yc/KARjv4CAdwNRuCUiZw+fXr+/PkFBQUI15s2bdq8efPRo0ebmppu3Lhx/fr1GzdufKzQDYXQhNwff/wx2TB4A9oeVfFX4fafJX388ccw+JI2wo0///nP165dwz3FHymEbrrfJdZrbm7+6le/GhYWhqCuP+F/t7/u3LlDT4AwmUwJCQnEMDc43rA54TheNEy1cEyrb4B1zNboRvRmdxGewTh//vzFixdv2rRpo6RNmzbV19f/6U9/uibpKhM8fHn9+nVetJ993WJdunSJOmJb+uIzZ858+ctfJsKJ8w0bNty6devu3bs2AjrExvUtWZ0IN0kaM2YMgU2DcXgS+iopKYliOPWIjsFssF7lo48+co/72HjvBMLnzZuXl5e3fv36DbLq6uo44arcXr16VfATg9xPTlsMvkGysUFkAbS8fv36xYsXbQGbjo9AuFGSv7//+vXrXZhwgKxKNWc8KSnpH//xH8+dO0d5EHHerzFYiFr3uvR23C+AI9CdPn06MzMzNze3pqZmw4YN6yUdOXIEhF+/fp2FcBFpgs12Q4N/bFzZgPv5DrS0tOhC+NmzZymGA2+Mxmtqanp6elwmhre3t+N56YGBgWPGjCHCYYxRU0JCAsVwTLYRBpYb1vHm+LXoDbr0jxZRXBIMxPC5c+eC8JqamnWSDh8+DMKVgZqzpJetpNc6z7Vr165evapXX3zmzJlXXnklNDTUz8+PE75u3TrXIzxQeljs6NGjeaAmurkzISFhzJgxiYmJyizdcryVLR2ProWviGkFustFIMSli02S3nnnnYyMjNzcXLBNhP/xj3+8evXqlStXHAM57ywIb3KSR9u4du3alStX9BpMuQnhHR0ds2bNUiVcABtsI84nJiYiS1eyaqGH0nsYfC0L2XNMM+yY2xOenZ29Zs2atWvXYnnw4EFVwnnGTjZxaJ2B7aiuq82zsvbatWuYZtOl5yXCjUajr68vwrifn9+aNWsQw21M1B0009be3s4JH60QRXLK4TEhZyPhHGmrbQdAfv78ebf5nonyvG9qanr77bfT09PxVNPVktasWXPgwIEPP/yQYvgVWUQ1N1ThtMKpRJ1eRXVrnPBr165hVl+vabbm5mZzhK9evdrFsnT89qjJZIqPj1cAruKIj49PSEh44403MNNmNZ/WrUjBn68O1O1xoQ4PY9Nl5qbZ+QTC58yZA8KrqqpWr15dXV29f/9+HsOJNFUD+AtVqkxa7eQbp42oDh/0mmbTIPzz4+N6hCNLj4uLi5cErGErlxiuDxbhBDahTnm+Pa7J40Z0dyW8ubn57bffnj17dlZWVmVlZZWsffv28RjOAVPaGKuTX4739/6TnwxC1GoDm8Lq4ByeK1eu6JhwIYaHhITQNJvRaPTz86uqqnI9woOCgkwmU1xcHA/ZSrbhcRLCgTrhjXSapr6pI1A1LE/v9ZqYdb743fv4BxA+a9YsEF4pa0CEE10wLFlazTZl48IWaB8wzaZLj+w+hM+ZM4diuCWE8yxdlR+ncvJQr7FjnHnK9jHBpsvp4oSENzf3Qv7OO+/MnDlzwYIFK5n27t2LGH758mUhJgsR2xKeNdqoZvjK9gLPyiJW0XGajbJ0xHDMtBkMBj8/v8rKSheL4ZzweHkobi6Aw0/jcA1mnKeKQ85jvrCHBDkIR1LgnGTqtVcYh8+YMWPBggUV8hOLV65cuWfPHsrSlYSTR4niQD1EOBnmtqCkmnuQq7e2turYHVMM95VlMBiMRuOqVatcifCOjo709HTK0kG4ObwxUI+Li/v8Z5kxDhcgcZUiknkl+cQ//eABzhgdzxu94NRlOyB8+vTp8+fPX7FiRYWsPXv2fPDBB1euXLncV+CQfPrGc4Ft6kc4/LinBS2JcCrq+zuwnHCDweDr6wvCV65c2d3dbeOlsr///e+OuFp29+7d9vb2jIyMoKCggICA2NhYYjtOofj4eJqKGzNmjDNcLbNThwL+dRzR6UKjnTby9ttvT5s2LTMzczn7HYLdu3d/8MEHuFomkKYscuA5jQBP2d5O/cK1a9f0utcF9y+eOXPm5ZdfDg4OBttEeEVFhcsQfufOHYHwWDUR2MQ/CG9ubrYTY4O+WXzPpEmSndByks02NjaCvAZVEQAAIABJREFU8PLy8mXLlpVL2rlzp+WEE8OEujB6F4KzXkV6XRiXL1/W65AS4a+88kpwcLBBEhG+YsUK1yD87t27RHhwcHBAQEBMTIwa4Pd9FNdHjx79xhtvuDHhFMDdNT8HDE1NTY2NjVOnTp07d+4ySUsl1dbWvv/++xbGcCVp3APshYQfDfj2rcCev8qVK1d0HIRzwkNCQkC4wWDw8fHx9fVdvny5axD+97//HYTPnTs3JCQkICAgOjpagJyQvk+5ZMXHx7s34ZhndvsYzglfunRpWVkZCN+xY8f7778vINRvUQjdGu0Je2pjBeHCKhcuXNCrO1Yl3EeS6xHe0dFBhHO8Y2RxtmVfDAg/d+7coKfT9tgBugau1xmjV/Zoj+00NjampaVlZGSUSSotLS0rK9u+ffv777/Ps27BJjIdbKiGfeyDXoPw5uZmTjiydB8fH8rVy8vLXSmGc8Kjo6NVeY6NjQXbCPLR0dFxcXGvv/66WxJOI3CEcXtA5STbRP/V2Ng4ZcqUjIyM0tLSEkmlpaXbt2//wx/+cPny5UuSBLyFov0gpxeiJF94LYRx1OrYHZsjHFn6smXLXIzwzMzMkJAQf39/TjiFazhjYmKAN/zuSjiulhHbOp40TkI13w0ifPLkyenp6cC7uLi4pKRk27ZtRDhxDtotYZ7ItDxvF9BFkbbDCScnDLTEF070+rxUCUeWbjAYli5d6jKE42pZZmZmcHAwCKcoTYRzgyB3Y8J1TPY4Tk5rNzY2pqamzp49u1hSUVHRkiVLtm7dCsIFnCwvErG0Cnl0Ny5fvoxBuO6E42oZ8nMivKysrLu7+86dO3+3TY64Ho6Ztnnz5iGGR0VFEeHRsuBEiezY2NjXX3+9ubmZbhGxx3jYwdukAO60NOq7YxTDJ02aNGvWrEJZRUVFW7ZssYJw7SDPwdYX+8uXL9PUiS6HSIjhYJsILy0tdSXCOzo6NAiPkiTDHo1iVFRUbGzsa6+9RoSDDb50MJy6vBwfgetyojj5RkB4Q0PDxIkTQXhBQUFhYaHVhBO33CDsudNCm3cKGra+t6PzmbaXX345KCjI29ubIDcYDCUlJcjSbbytzUExvKOjY/78+bhaRiGaSKbQTR60USX8nCxV1LmTbF3ItH0j2B98FdzJsdR99xobGydMmECEA/JNmzbxGG4Lpdowq26ZYFauS1U0Mr98+fLFixdp6kSv49PU1IR72gIDA318fAhyg8GwZMkSF4vhRHhkZCRIjmTibJOtSjhxa4kBLIWWtrNq3RZoN/Q6P1xoOw0NDRMmTJg5c+ZiSfn5+QUFBRs3bvx//+//EX6XLl0CbEqPEkIdPfS6fJsEOTl1vBJOH5wbEu7v7x8REQG0iWQl8GgQExPz6quvamTpxIw5A/FeqLWOT9vXwm7oHgfodHFmo6GhYfz48TNnzszPz1+8eHFeXt7ixYs3btz4+9//nvN8URL3wOYz7YScjQa9CrZDRXpFYfv6DsLxYSkJ95bk4+NTXFzskjHc398/PDw8QhIL4b1mVFQUPFQLwpuamgREbS/SgxwsfJaD7XhjC/Y4S5wZbNo3ED59+vTc3Nw8Sfn5+Rs2bBAIFzC7dOnSxYsXEWOFKgE/7SKtq91MtRbrXrx4kS5/6DWXjr4eWXpQUBCydCK8qKjI9QgPDQ0F4SCZlkBauYyOjtaeabMFdXk4f/8/35qdugA6S+jUf0CMhoaGcePGTZs2LTc3NycnJ1fS+vXrf//731+URBD2a6A9yKfGPMjDqYqrdc5Lly61tLTY45PiMdzb29vLy4sILyws1Ifwu/YXftUoKyuLCI/oK6AeERERLgmV4eHhUVFRr732mj1iOIeZ7PusSxb5NYwBxfYHNoA3Nzc3NDSkpKRMmzYtR1J2dnZOTk5NTY0VhBPVhDoM8msYAyKcbwffCdcxeqO/AOEvvfSSyWTykqQk3EZAh9yxv/DrwgsWLAgLC+NZOg3ICWkQTml8VFTUq6++6jDCNUjmv6zEm1lOuFs+C93ysHbq1Knk5ORp06ZlS1q0aFFOTs66detsIZwTyG2BfB7tB0o4jRHOnz9vjy8IccLBNjj38fEpKCjo7u6+ffu2jYAOsbGHsGR13PGycOFCTjgwJqTDwsLIJgOE48oh58q1bCT8D2x+jtEmCE9LS1skKzs7e+3atRiHcwg5qw62Of/CS9vv4ztz5sxLL70UGBgIwpGrGwyGgoKCrq6uO3fuWIKYRptBIBwwU05OPIcpFBkZaeNcuiP7AorzPLDTDlge7tyy5alTp5KSktLS0hZKysrKWrhw4Zo1a/7v//4P02kagVeATa+i6isS5PxVWltb7fehgHCTyQTCEcMNBkNhYWFXV9ft27c16LWkyqGEh4eH+/v7h4WFEd4ENXEeHh6OLiAsLMy1CCeYyeAD+wfzIhmBcerUqcTExClTpmRlZS2QlJWVtXr1alXCW1tbgR/HzJE2h//SpUv2uBJOR8Yc4UVFRS5G+KJFi0B4aGgoga1tREREuFAMJ7AFw34JHp0lzm+cOnVq7NixkydPXrBgwXxZ1dXV5ghvlcRJU9qOYR7XyXSfY6OPjAhH9Pby8ho1ahSuh7tYlg7C/fz8QiUR2ygKS9R6CKfzwNWNU6dOJSQkpKamzpM1f/78qqoqVcKVMF+8eBHM86VqM3Lqxb89blblnyYIDwgI4IR7e3sXFxe7GOHZ2dnh4eF+fn4hISGqYZwgR4PQ0NDw8PCvfvWrzjCXLoTlARUf8PwcZzMInzx5cmZm5rx587AcEOGELkFOHlVDL8LtdCWcIFcl3MfHh+5Lt2SwrdHGceNwVcKJas58iCw3INyTouNUPnny5JgxYyZNmjR37txMSfPmzausrHzvvffMzbSpcsuDOW+gir0ukNv7MqdA+ChJLkY4rodzwnmKDptQpwDuHjHcQzhdLRs9ejQInyspMzPTOsI52Nq2KvYWXpnDli9duoRvcVPI1d0gwkeNGoVB+MiRI318fEpKSlxmpu327dsdHR05OTmUpctBuvc/sU0G1bp6DPfgDR6amppOnTo1evToiRMnZkgC5KtWrXrvvfcQlrVZ1asWzJvbGo/5aINnJ9tvmg2/W/bSSy8FBARIwbt3AcJLS0tdlfDg4GBimAgPCQkJlkW1YWFhLj0O172/d9ENNjU1nTx5Mj4+fuLEiXPmzElPT8/IyEhPT1+5cuW7775LhJsLueaAtNyvvWWq5QY2fuHChbNnz9r1sPMYPlKWwWAoKytzJcLb29vNxXBim8CmLiAsLOwrX/mKLd8eHdCUmL6N7XpauNzGT506FR8fP2HChNmzZ8+ZMwfLFStWvPvuu62trS0tLUq6+JBbtdZywq1oiVd0QBbGCUcYRwx3McI7Ojpyc3MjIiL8/PyCgoIIZlXDDQh3wJnhWpBTDJ/NJBAucE5Um0OdboyxAuB+V0G/44CDbI5wPGvVNe5pwzicE458PEiSnJv3+Q/yXTeG23t6xgFnnr4vcfLkybi4uPHjx8+SNXv27OXLl1OWTjwrjZa+Ehr0y6rVDfBtE32Pg3JrRPhIJh8fHyLcxlvTHXG1DITn5eUhhgcHB4NtVcK5MzQ01BWzdARwu07PKE8UJ/ecPHkyNjZ23LhxM2XNmjXLQsIFpLWLxDNvRk7LjdbWVsd821cgfIQkVyU8MjISWTqP10FBQUIRHiTzX/nKV1zujhdPii50N5hpi4uLS0lJmTFjxsyZM7EsLy+3JIZzVq2zLQebWra0tDjmcxQIHzly5IgRI3x8fPCbJ/jqqMYNLf1WDbltZ925cwcxPD8/H4QH9hUFbcFwXcKF89tTbG5uRpaekpIyffr0GZJmzpxZXl5++vRpjWG2FTz3zejFkuoGiWpu4JEPDvjszpw58+KLL/r7+7Mkvfd6OAi3nU4HPQGio6MDhBuNxr6A95YoaANyLAMDA0NCQlwuhmME7knRBTYw04bHvEyXNGPGjGXLlulOuCrDVjjPnz/vmNuNifARI0YA8hEjRhgMBvwyoQ5PgLDxCRKWrH7r1q329nZOOCeZeA4KCgoMDDRJQi/w+fPVv/zlLw8oS6cvaet76cvCrTkmrxPgcYniyZMnR48ejce8TJNVVlZ2+vRpzFqbm0i3Ak7bV0GK7phuGoT7+fkR3sjSly9fjuvhliCm0cYRMVxJOOI25xxIm0wmQI7i579z9sorr5w9e5Z/0doS20IgdW/mIdxcdwPCk5KSpjKVlZW98847ra2tFy5cEPNpuWw7rgPagvyydnnuourBoRiOEfgIST4+Pi5POEEOmAlsHsODg4MRwznVqoeJnNRSd3r73SDwdkzHT+/XVYxTp06NGTMGj3lJk1VaWgrCiauWlpYLTNxP9oCIHVBjegnHXCfDZycQPnz4cMTwFStW6POcNo34rlcVvnlCWToCdaB5UQNVwolhbihPdJ6u85Zk90vsQBt4RuDKT4E8J0+eTEhISExMTEtLmyIpLS2tpKTknXfeIa5sNAYEs7nGGCw4MhcjwkeMGAG8QXhFRYXLZOkgfPHixZGRkUajkQAONCNqYDnhxC03mhUyhz1+LXCgSPP2FMCbmpoUL+txNOP74XjMy2RJU6ZMWbJkiRWEsxh/30TvQEN6obMwx7PSjyTCkR8YjcOHS6IsvaKiwsViuOMJJ9pVPzCqJYMTO1CbCFd9LY8ThOMxL6mSJk+ebB3hAr0oaozkeXsl0tyDlvb+QrhwMhDhYNsdCA/sT8oYjgcqE4qONLRRR1LgyKROOD9cpYjntCUkJEySlJqaOnny5OLi4rfffhthk3PoAJuDzW1HzqLjsxMIR6JuMBhWrlzpMjEcc+kFBQVRUVHI0vl0Gmy+RA9gMpmCgoKUM22OxNuS13Jwl+8qSPP9xPfDx44dC8InSpo0aVJRUdFgEc47EU74hQsXHPydAiIcbCNXd1XCo6OjQXhAQABHmgNPl8QDAgJcgnBPAOcwq9pNTU0NDQ2JiYljxowB3uPHj584ceKgE45x/HlZFy5ccHx/zQkfPnz4MEkGg2HVqlWuFMM7OjoKCgo44aqQA/UASYjhr7zySlNTkyWx1JFt6Dz2DL/pUGgYRPjo0aMnyJo4cWJhYWFjY+OgZOk8hpPt+ACOZ7y8+OKLfn5+iN4S4MP0Jfz2nTv2+Lt/re3WrVsdHR2FhYWccGUMN5lMYNvf3x9GYGCgdXe8OJL2Jkka57enCvelJyUlxcfHj5c1YcKEgoICIvzChQtyKO39f3+WXLoZRigSkzoaeInm5mYHXw1BDDcajSCcsvTKykrEcOnGVesJHXLnzi37/N0j/Pbt26qEUwwHzLQkvAMCApyccA+6lh+BkydPgvBxkoC5QDjHmIAng/gXmlk4i95vX4AU3cF4Uww3Go3Dhg1Dlj58+HCDwVBVVdXd3X3r1i2JcOshHXL79i37/N0m9fT0IIbHxMTQOJyQJsNfFnmcmXCc3I4/ISyHyqla4nfL4uPjU2SNGzdu8eLFPIYr0VX1EOowdCTcwXNs+IAQw319fTnhvr6+RLgEufWQ2v3bo7dv3+7p6Wlra6MsPSAgACyT4e/v7+fnJwN+/z8Id8JxOEYBHrwt7ETw/fDk5OS4uLhkWSkpKfn5+Y2NjaoYD9RJ2KuuSAGc1/I7ZDEuGJRJ0zNnznzpS19CDCfIDQZDdXV1V1cXYjgFSysMRxCOq2VFRUUYh3Ow79MsQQ7O/WQ5M+GOH7BZiJNzNsOvC8fGxiYnJydJ0pdwji7ZSuwJdTKQAgzKLDrFcE74MEk+Pj4Uw62gmq8yyITLLPcJ4OQ0mUxOO5fumWAbUFdy6tSplJQUTnhycnJeXp5eMZyo1jaIeWEyD7PoA3pHejUWYvhjjz02dOhQxHAah3NiB2o7gvCenp729nYhhgNjIYajyAl/+eWXnTBL9wTwgZ7fIDwmJgYBPDExMSkpKTc318GEE/9AnU/jDfQd6dUehGMcPmzYsKFDhw4b1nu1bPXq1a5EeFtbGwj39fXFqJswVho0LDeZTE5IuF4f7QO1nVOnTo0bNy4mJiZR0tixYxMTE4lwZUQlFO1tAHXHPHRR9RPnM21DJbkk4e3t7cXFxTExMQaDwc/PzyhLiTcNxY1GY0BAgLMRrvoheZz9HgEQHh0dnSBr7NixOTk5DQ0NCKT2Jtnc9kH4oMyx4aC5IeH+/v4y4EZOODmNRqOvr68TEk7nsWcWnQ6FhcapU6fGjx8fHR09ZswYMD527Njs7GxnIBwPXRysz9R9CF+yZAmP4ZxtsgG5rySj0fh5uu5UMdwz/LaQZ6EZ7lodP358VFTU6NGjx0hKSEgA4YiifGku3trDf/78eaTozkA4H4evWbPGlcbh7e3tGoTz6E0B3NkIF85aT3FAR6ChoWH8+PGRkZGjJY0ZM2b06NELFy48deoUGOOE0zd2udMeeGOAMCg3utDR4zEchGMufe3ata5HeGxsrK+vL8bhyrgtcO4hnE4CNzAaGxsnTJiAGC4x3rswRziBrYo61aoaA+0IHPbUZHMfIiccM22PPfaYwWDQjfBbdhbd01ZcXAzCQTIIV1LtieHmTgXX9SNLnzBhQmRkZDzTwoULGxoaVEHVcKpi/9FHHw10Qh7tHf91UeFzxNUyg8Hw2GOPPfroo3Q9nAi3EdAhNq5vyeq4a3XJkiWccLCNIbfq0nliuPCReIoDPQIgfOLEiZGRkXFxcWAcMdwKwlXhB/aqVdzJIzz8A30vurfnhD8mScjSLUFMo40jCO/u7m5ra+OEY6rc19fXIItDbjAYUHSSmTbdP9QHaoOYwWpoaJg4cWJEREScrPj4+KysLIzDOYTW2YjhWFdJOwebbJpjG9yPgwgfOnSoQHhXV1dPT48GvZZUOY7wkpISxHCCmUjmHiAPz+eZvDPMpQ/uGeAGr97U1NTY2Dhx4sTw8PBYpgULFlhHuJJh7X4B7XkvgPaDO8eGT1YgHENxjMP1Irzn1i17/N3vX5ClKwknsFUN3Bvz0ksvDeJdq25AlzO8BSI8LCwsRlZsbOz8+fOtI1yb535rCXhnuPw5QMIHjOqQW7e67fNnlnBl6BYIRxj38fH5fKzuIdwZELVxHzjh0bJiYmKsjuH9MqzdgBNu41uzfXWBcCTqBoNh3bp13d3diix9wLQ6IksXYrg24QaDwUeSJ4bbfvY4yRYEwqOioqKjo2NiYgY3hjtDAMczXr70pS8ZDAYah+NqmRnC7wdOCy0HEd7e3o4sHXjL82v3ZtQohpMfxudXzj0x3EkotWU3QPikSZPCwsKAd3R0dFRUVGZm5smTJ5Xxln/lS1mri2fQL5LR8VTG8EcffdR8DLeQ6/vNBoFwAWMqInRTAB/0GE6fgcew8QiA8NTU1NDQ0ChZkZGRc+fOBeEfMekCsPZG8CNWg3WbqnAwz5w588ILL/j4+ND1cHcjnMD2lkTFQR+HO0kWJ5wQLlp8++23QXhkZGRUVFSEJIFwXL4C7NqI2ljrhIR7e3tjBN7fOPx+cLbQclwMLy0tjY2NpYgNAzwLbHt7e8P/+f1tL7744qDMpbsoSE67242NjZMnTw4JCYmMjATeiOFvvfUWeOM/Gski+j2TI0213Gm5jdWdJIBjHP7CCy+AcNzThhheU1OjNtN2a6ByKOFxcXEcbGBMkFNx0Al3Wk5cd8eIcOCN5dy5c4lw4lz5rHswaTnD2i2dKoBrEO56M22lpaVxcXG4j00JM3m4MSgx3HUpcuY9B+HBwcFhYWHhkiIiIjIyMkA4GKalKuTkpGbc0Kaa1zrPHBs+L4zDlTFcR8IHfA3dsjtkbpG6u7vb29s54UjLacmp5rbjr4c7MyQuvW+NjY2pqalBQUFEeHh4eHp6Oidcm2Hi2VwzjjFsWoWq4HGeFL3fGC4n6tZDOqSnp9s+fz0k3JcOwnG5W5VtcvIs3cFXy1yaIqfdecylT548OSgoKDw8PEzWnDlz3nrrLT7BRkwO1AD2QqpPG+GEO8OdqvyTohj+KJPBYMATIEC4LYQOIQ7tZHR3d3d1dbW1takSrqTax8eHnBTDm5ub8RHadcmPu8fW8QhwwkMlhYSEhIaGIobrQjjBrGrw06ZJko7vzsZNccIfkYSZtjVr1nR1dcmEW0/nIMRwb29vL1kEs6rx+Z0wmEvnB5F/Wvra/FU8tl5HAERhHB4YGAi2wbmOMRxgm5uQp/NErzel43Y44Q8//PAjjzwCwlevXs0Itz7RtnsM7+npoSw9Pj7eYDCAcFWk4RwlycvLiwjv91GY9BFabej4mXk2xY8ABr2NjY1TpkwxmUzBksD57Nmz+Vy6avjVy4kTg++Yk9gg3MvL69FHH0UMf+SRR3x8fKqrq7sl9dgmpyPcy8tLIPzs2bP93nxiNdhO+8E7yfln+26YIzwkJMSRhDvbFDodWA3CWQy3nnLnIhzJuyrhdERgIPejJZzWhXphy56ivkfAHOHBwcGzZs1yTAxHP4490ffd2b41c4RXVVW5DOGYaSsrK9PI0uWBeZ//yNIRw60+lDy88414ojc/GvazaRyelpZmMpmCZHHC9UrFzW3HmT9rgXDk6vhlQvchHJl5H7ilgo2E49zSOHed+YPX2G3XquKEBwQEBEoC6jNnzuTXw83xabu/3+RuEA+pQDhm2nx8fCorK12ecI70qFGjeBG2jYTTx0bJvKpBzTyGPY6AQLjJZAqUFBQURFm67QxrbwGENzU12eMN2rhNJeGPPPKIt7f3qlWrXI9w3JfOr5bRkFuJN82l25ila38Azvmpa++za9Vywv39/U2yAgMDZ8yY4bAYjt1wwkOnJPzhhx/29vZeuXKlaxBOd7yUlZXFxcX5+PggJx/JJHBO8fzzx0W8+OKLZ86cccIPxrNLlh+Bpqamt99+Oy0tzRzh5q5ja0dmy2v7vRZj+XvRvSUR/sgjj+B6+MMPP+zj41NRUaEP4bjmZtcln2nz8fEZNWoU6AbYjPT7Jqo8hOt+Pg3WBhsbGznhAQEBJpNp+vTp//u//4sUmk+Ikm05w+ZaOv9Uiyrh3t7eIByQ24LnkC77q7Oz8+bNmzSXLhAOmPly5MiRHsIHC0U7vS7uePHz8wuQFRgYOH369N/97nf2JtyZAzh988TLywsx/NFHH0WWXlFR0dnZCcJtYXSILd2Dhet2dna2t7eDcIrhHGnBFgg/e/YsBlFNTjlTYick3GmzyNInT54Mwk0mEybVZ8yYoRrD6b1TMDdnmAvd5KdNOa3BYzjuaUOWvnz5ciLcQtBUmw3p7u60819XZ2cnvnkSHx9vCeEAfuTIkT4+Pi+++KKHcKc9Oy3cMfrmCX6pClEcWbp2DOdgq74WbwCb2Mb3zFTXciqnOcLLy8tlwrtsIXRId3eXnf+6LST8/ihctjjhTvWpeHZmoEcA3w8H4f6SAgIC+s3SlQALV7apAe0PeWA4eYouZOk8hi9btkwmvHe22uo/B2XpbW1tJSUluKcN43AhM6e4PXLkyBEjRoBxD+F04rq0Qc9aJcKRrk+bNs3yGC6gq1F0rWMlxPCHJXl7exPhNk62OY7wJUuW4Hq4knA5Zt/77yHctc5RS/a2oaEhNTXVTxZQnzp1qj0IF+K8Jbs3iG044cAbM21EuOro2nKnUxDOA7gnhg/i2Wa/l8ZvjxqNxs9/5eLzB3vYm3AXgpwIB94PSfL29l66dCnL0i0nWmw5yITz6E2hmwxPlm4/5By2ZVwBAeH4VWkP4fzgc8KB90MPPeSShBcXF+OeNk41bEJaKHoI56eCi9q40tnQ0DBhwoTPv2hAPx3v5+eXlpbmydJB+KhRox5++OGHHnoIkdzb27usrMzFYnhRUVFsbKyPjw/y8BHmNXz4cDDvIdxFqea7zQn//PHYPIzbiXD+6s5vc8KBN8bhpaWlrkT4zZs3iXCgPVwStwE2+YXr4c7/UXn2UPUIUJY+fvx4xHCK5PYjHN2K6v44m/PMmTNf/OIXEcM54SUlJSDc1rn0Trurq6Ojo62trbCwEL9qZD5436sB6iNGjPDEcGc7Ha3bn6ampoaGhnHjxoFtPFHb19d3ypQp9sjSnf8aOD+MSsIxDgfhHR0dNgI6pKuz265/nZ29hN+8ebOgoMBCwqkL8BDOTwXXtYlw+tW6zz9ZuxLuQsfKHOHFxcUdknpvTrcB0iFdXb0bsOffgAmndN3b25vuWnWhz8yzq8IRaGpqOnXq1Lhx4xC97RrDhZd2/qI24XKibj2hdv9uWWdXJ4/hPj4+FKLNGRiKDx8+nAh3/s/Js4faR6ChoSElJQU/d0HLyZMnI0vXuEFtoFXau+GEtZzwhyRhpq24uLi9vV0mvMtq2Z3wrq57MXzx4sWYSzcHNvzDhw8fNmwYIPcQ7oRn5EB3iWbakpOTiW38Oh0RjkcdDxRm1fYD3b1Bb68kHOPwoqIi1yM8JiZGO4YDbA/hg37a6b4Dp06dUhKempr6P//zP3jAiy4/XKX7bjtggwLhX/jCFx566CEvL6/CwkIXIzw/Px+Em7seTsk5GZ4Y7oAzzDEv4QDCHfNGdH8VJeFf+MIXvLy8CgoK2tvbMZdudYre1dXluCw9Ly/PXAwnpAUDhJ85cwaZnu4H17NBXDfWcal6SJuamk6ePIkY7uXlRT9olZqainG4Llm66ks7vxOEjxw5EoPwL0gC4ZhLtwVvhxKem5urSrhANS96e3u//PLLzc3N/Gv9D7JNv5Jri+GAA8ifrIifFn377bcTExO9vb3pW8NeXl46Eu78JJvbQ4Hwhx56SIjhLkB4e3v7Z599pko451mwhw0bNnLkyJycnO3bt9cy7Ri4tuukbe6irXbWli1bhFeoqamJjY3lD9L29vb2EI4nQHzxi1+kGE6EL168GFm6sxPe2XnvahknXIBZozhMoaFMj8kaOnQozEc19cgAhY0NcKX7zekmRHypAGmY1UvkbzYueSrgZIx4AAAgAElEQVQ4RG+p7hte5NFHHw0PD0cAp2fjewhXEo5j6OXllZ+fr884vKOj0x5/dKtdR0fvYxg/++yznJz7WTouidGcuSWE0yoK5Ps4GP73TbkfsOa/Zo9hthKU29hBYCO8m9DF5pBb3d3wFan/0iD8kUceIcLpefgewjUIz8vLa2trkyC3idAhnZ3ddv3r6Ohqb+/87LO2nJy86OhoHx8f8AwuNdjmzdAYyPYBWi4QzQLEYExwWljkv+dsFmW1Ck7m/YBumSUwDJAEp9VFYpvzqYutyjaciOGPPPJIWFiY8CDtiRMn4mqZxgOVVS96c2ezi0sYh1MMz8tb3Hazo72to6OjyxZCh3R2dtj5r7OjveOzz27m5ORER0d7e3v3G4059jLCw4hh8nCDasmwEGNzzdTItdRnGctaraxmWGNFXUgWNqIBtlAlEI4HAUycOPG3v/2tNqGqT2txY8JpHJ6Xl9feK3zzxHpIh3R2ttv5rwNZenZ2Ngg3Ryb3w6a+gLgdOnSo0IxXwTYHrYV+SzlWtNNCdiB1GpRaV4WTRoDTxqIAcL/FRx55JDQ0lGK4knB+QbSpr5r7Cnj39blwSYjhRHhubq48Du+whdAhNGC2nwHCFy1ahCx9mBkRq8OG3Y/YcCo95vyE8aOPPkq2hYaC2YE5QDF+emogRN9rax29GmtxhnGnFPfYYvfLs7IBEY57k7UJF3jty/u9ktDGdYvmCM/JyWlr683RbQTTiQgn8Al1TiY5tQ2sAjT56pbYWAvADQxuqTV+lcZGwgGeBreWV2FTgM0WnoV1sUGMrpUkq3qGDBnCCQfeI0eOpCz93LlzPIZr42p5S+3tOEmtOcKzs7NBuI2QO47whQsXasdwgfDHHntMG2bUAl26WmYJydSGOgIreKZVrAjXylXALWeJJqjp2V1KD2+vtHVkm15aFWBLnJxwCuPWEe4kZOq1G0Q48qwvfOELQ4YM8fLyysnJkbN0m6K4ExFuCc/KNoSr1QaxaoWhZNUKD+H96KOP+vn5/f/2zjsuiuP//8AZSziiUUSwobHFJMYSTUyixkSjMRo7RrGCFWyABZBqAUFERAQEC9JFFAUpIkVBFFBARMEO0o96d4Cf77+/x77ft8Pc3h3cUfLJ9/vz+ZjH7OzszO7e3r7e75nZub3Bgwfr6enp6uoOGjRIBxgIaGtr46uIPwfwV9b4ay38w2Y+n9+rVy8idSI8ktPJBNmhqgk1NTUejzd48GA+n0//snDSpEk40qaSD+8qaf1L9kMUrqamRi4sn89fsGDB/02Fo+tW0oET192BXnfPnj1R0j169OiAtrEKirMDqiZVSKtbS0trypQpkydP/uqrr8YDX3755fjx479kGSfNWJYxY8aMHTsW43HjxvXv35/H45F7BRP/LW3j0VHhenp6ROH4ko+JEyd+VDitcNL34fP5f/zxR9e00nF2e7fGONI2b948ua10WbesfA5RaQcceIdVTZ6Td7jLjT12jFF7ffr0mTZtmr6+Po/Hw6+ZjmXlSuwCbWI++eSTzz//fPz48X379iVVOqNtspNOJrAfjgon0xz69OnzUeH0jBf04fi98/n8+fPnszNeOqVOtU7VVq4yUfiIESP69u3bWxrih5UXNqnSAdfdGWETbRMP3LEER588Hm/o0KFff/21hoYGLewOpHk8nra29siRI3v06NEl4+fYLey8wnk8nq6uLp/P/6jw19LQPhyvtpqaGp/PnzdvXhcpvOU/H7ojfPifDxBaWv7T3PRBLGr6/XdmpK1fv360wFHV6IGVVziWR62q6r3/6wpHedPjZzweb9y4cUOGDOmkwvH+0NTUHDFiRO/evVGWnfHh+Gy2k/LGs0KFa2pqkm//ow9HpXMUjlebz+f//vv8pqYW5nlZy/90RqFqqMNujZubP4jFzcuWLR81atTnn3/ep08fnLiivKRpQ0Ba5h1w4HRdlaTeMV/NqUW0jaqjPfmXX345dOhQVDgx5Kr6cHJzjBw5slevXmRstgMi77yq6T1gP1xXV/fTTz/9qHAUNonlKlxLS+v3ufMkCmedZcdE2u0KBx/e0tTUsnGj0ejRowcMGIDTV5QfS+PIW1WnTcqrJGm6MEeoHV6lJc1J6+npTZgw4ZNPPkF5d0zkKGkdHZ3hw4djKx1lppLCiTLpoV2S2bEEKnzQoEFE4WjiP/bDZfvheIW1tLTmgsKZeekt/+mYtrFWt/fDYW4tE9na2o4dO1ZXVxd9+D+pcFquSqY7LGNFFTmS5qz27Nlz0qRJ48eP7927NxEklsEd0g0WMnUX+7Q4Lq2pqamlpaWnpzd27FhNTU0cscPbheyw3UTHBNx2LWyJ8Hg8HR0donD05N9+++3HsXRFPnzu3LnYD8dnZsoNeckp1e0Kxz88aWlpCQwMnDhx4uDBg7W0tPB+VamVTvrexCe3m+CIWaWnYoqE2rF8jp5lV3v06NGrV6+vvvpq6tSpkyZN+vbbbydOnPjtt99OmDDhm2++wfgb4GsW8lANH62NHz9+7Nixw4cP5/P5nP5zu8LGAihUFGTbolVpK1H4wIEDicLxq/+ocEU+nM/n/3sVjk77w4cPmEA71Nzc/PTp0xkzZowYMUJbW5uIs22Rk2K0ByOZ7SY4CldpFZXcmedhZBIr6kdW1ZwcHHvT1NTsz/7J9udAv3798N3D+Hoz8uMNnDpChqbx+QJqG4+oUqySaFUtjK10VDj5xnv37j1hwoSPPpzjw7FzxOfz58yZ00Vj6XIce0eySGu8paWFqLqZpampSSAQ7Ny5c9y4cTi3CfVJvm/ZBBZAWbYrZk4BlcTMKdwxL82pxVFvu6ttq5FMGiXOmZSnH4kR4ZGt7SZIlW5NoMK1tbU//fRT8kV/VDgOtilS+G+//dbU1NTJJvqHDx863konkkZ3zWpZatnEIhKJGhsbIyMjp02bNnz4cB0dHfymFfXGibw5CY6S5a5yFKvSKnHdnfHeRM8oMLLaRgIdOJErKcmRKOqQk0lkr2irbHmSg1W6vGXOsRe0wvErw2//ow+XbaUTH95lCidCVT5BBgBIFVrWrKiZpRgQsZSWlhoZGX311VdDhgzp27cvmbiCCaJ5ubpVMlMlPcsW5rhi5VfpyTBEn8oniOQwwanI2dpVqxwddusqTsXp06cP+R579er1UeGyCsfHKHw+/9dff21qapLVGhGdkgk1JctxijU3N+PhUduyqhaLxYyuhSIhSyNw586d6dOnjxo1Cofc0IfTnpzcAR1IyCpWpRzl9Sy3JEeWHVvlzITpKjHL7gfvpG5VNb1zHo83YMAAVDgx6B8VrozCyZAWR4NKrqo1N39QNTQ1Mc+3JUHc3NTUIhY3kyASNYmEYmGjWNgoamwQNjKxqKFe2FDfWF9fLxAIvL29J06cqK+vr6urq6WlRXvyXr16dWZQTaXRco74yVxxuepVJrNjkpZbS1aQXZhDhNeFT7zJPuUm1NTUNDQ0iMLRdn/04XL74cSHz549WywW034UvKnKalVraflP+4FYAZhG16ptcYtYJNE2I2wIQqFYKBQzwm4UNTQIMdQz8m6oq6urra0tKys7ceLEpEmT9PX19fT0cKY68diocOV1jkIlCuTott2tWJGWGdlVGwm6l07qEhGSnI4lyH6IWkhOJxNkh7IJ7Ip3LJbdGyenbYX/f/vTUXxbTVFREb4vHa8SrXBsGre0MG9cBT60L1UZOSuncGZuOeO00duzCm9pYhTeJBY109pmXDclb9B2Y11dAwRG4TU1NZWVle7u7lOmTPniiy+GDBmC1l2uOIny6YTckm1kEq3SZUgm6pA83KLVS8pwEm1LtwM6pHeI1VEkHdiV3CpEcv+Y3yZHxFtWQ0Ojf//+ffr0QduNjbUJEybcv3+/uLgY/4ZF9o9ciilkt/4bcqgTVDmJ5//mzRtPT09NTU1yxfCXJ7/88gvbD29mRa6EM5ancNZAKF42N7c0NTVDt59pKUBa0vUWicTiVu/N9Lqxvy3x3ozrlsi7tra+pqZGAFRXV1dVVV25cmXWrFljxoxBZ66tra2pqYnfvfLtbY72VFqldUUrnM4naXrPJJNOEGnRmUqmSV3OwDiOrpPvvpOJjrnoLqlFK5w00wYMGLBo0SIDA4NVq1ZhvKoTGHSIlZ1gRVewfPnyH374gTNhmc/nK1C4YpUq2KLUSBunM0DG1STDaSKxSMS0zIVC5pFYY2NjA4OQ9t61tfW1tXU1ABF5dXX148ePraysJk6cOH78eH19/SFDhgwaNGjAgAF9+/bV0tLCSR1txH06QW/FkHe8coooyucUw4cCGHM24SqZdkqXlJuWW11RJtktp4DcPXMy6SaSqmnOrjirZG/Eh3/yySc8Hg9/BYQtJh6PRz+MIMZUSftIitGGUpl0Zyxmlxg+shNs6ZBVPp8/a9YssVgMY+m0D1egY8XZSimcjJyjtnEAgDwJE4vFQqEQn3hTCmdUXg9g97sGoOVdVVVVCWRkZNjZ2aEx++abb0aPHj1ixAh9ff3hFMOGDRs+fPiwYcOGAsOUgJTExBAWXOVkshulloOVQ49i8ODBuhTUFkmS2si8p6lj4Due6Lo6OjoDBw7UUQC9aSAF1qK34g6wCL2VU4bah8KDcs4Ff1bIUTLdbyJponBlEkTeSibwaYUy+pct0xmL0EZdImySQIWzrXTF8lViS0cUTnTO+nCmcc48GmOb6KwbZxRex4I98BpAIBBgQx0VXlFRUVZWVlBQkJKSEhgYePr0aQcHB1tbWxsbm0OAtbW1FWBpaXkQOHDgwH5gH4uFhYW5ubmZmdnevXv3ALuBXbt27dy509TU1ATYsWPH9u3bt23bthXYDBgbGxsZGW0CNm7cuGHDhvXr169bt27t2rWGhoYYr1mzZvXq1X///beBgcHKlStXrFixfPnyZcDSpUuXLFmyePHiv4CFCxf++eefCxYs+AOYP3/+77//Pnfu3Dlz5vwG/Prrr7/88susWbNmzpw5Y8aMn3/++aeffvrxxx+nT5/+ww8/fA9MmzZt6tSp3wFTgMmTJ09imcyCm7DY1KlTp02bhtV/+OGH6cCPP/74E/Dzzz/PmDFj5syZs4DZs2f/yvLbb7/NmTNn7ty5vwPz5s2bD/zxxx8LFiz4E1i4cOGiRYv++uuvxcBSAD/+cmAFsHLlStLe/vvvv1evXr1mzRpDQ8Nly5bp6Oj06dMH+189WD6hYPN68FhIjtwEW0q1pYaGBopNQxWIPtUAstr5BO6QE0v7cCV0rLhIBxWODhwVjjERuVAolKvwujpJK72mpkYAEJFXVFSUA2VlZaWlpSUlJTj0Qt59/xJ48eJFUVFRYWHh8+fPnz17VlBQ8PTp0/z8/CdAbm5uTk7Oo0ePsrOzMzMzHz58+ODBg4yMjPv376elpd27dy81NTUlJSU5OTkJSExMvH37djwQGxsbExMTHR198+bNqKioa9euRUZGXr16NSIiIiwsLDQ0NCQkJDg4OCgoKCAg4OLFixcuXPD39/fz8/Px8fH29vby8jpz5oynp6eHh4e7u/vJkyddXV1dXFycnZ2dnJyOHj16+PBhR0dHe3t7Ozs7Gxsba2trS0vLgwcPHjhwYN++fRYWFmZmZnv27Nm9e/fOnTtNTU13ANu3b9/KsmXLFmNj4y3SbN26ddu2bdu3b9+xY4eJiYmpqeku+NPPvXv3mpmZWVhY7Nu3b//+/QcPHrS0tLS2traxsbGzs7O3t3dwcDhy5MjRo0ednJyOHz/u4uLi6urq5ubm7u7u4eHh6enp5eV19uxZb29vX1/fc+fO+fn5nT9//uLFiwEBAZcvXw4KCgoJCQkNDQ0PD79y5UpERMTVq1evXbsWFRV148aN6OjomJiYW7duxcXFJSQk3L59OzExMSwsTE9Pr22FKzPGSaSukqw1WGhBsnntL+laagCd05k07k025vP5M2fOFIlEXTDjBaestBs3yYAiF4lEJCFkaWxsZNroAO3GUeRE3gKBoIqlvLy8qKgoIyMjOjo6JCTE19f3LEDE4wmcPn3aAzh16hRqyc3N7QSLK+Di4nL8+HFU17Fjx44CR44cOQw4ODig0uzs7GxtbW2AQ4cOEdXRwrOwsDA3N98LjYLdALYIZJsDqEAjYNOmTaQVsG7dOkNgzZo1f//99yoAWwHLAXSDdCtgEbCQ5U+WBQrA7Wzxhehp/wIWL168ZMmSpcCyZcuWL19Oe1oDAwN0s6tXr14DrF27dt26deuBDcDGjRuNjIyMgc2bN6OFkbUspqamO3fuRPuyB0ArY25ubgGYmJgMHDiwd+/esmOoPQAegGlFMZZRKdZgoXWIeZgjmyZOnq7SVWlZMcvNQYXLex7erlK5BZT14aQeGXVDYZNYBAiFwkZpGhoa6ilIW10gENTU1FRXV1dUVDx69Cg8PNzf3/8MC1Gyh4fHKRaU9MmTJ92AEwB6SxcAhU20jfI+AqAXdXR0JAq3BWxYrAErKytL4MCBA/sB9LHm5uZmLLTgdwKmpqYmJibbWbZu3bply5bNFEZGRij7DRSkI7B27VpDQ0PU2Jo1a1YDfwNgENqJsDzG2CQ2BGTlumHDho0bN27atAlFizHqdivAaREQ0e7evVtWt9hAOHDgwEHA0tLSysoKL+OhQ4dsbGzwCtva2trb25ubm+vo6HAUTitZGQfOU502BIybSKzOwslBBbIbO7WUK2a5mRyFt3QCNRnfLCcDR9roDbKDbUThKHLWhTeguusoUOQCgaCysjI/Pz8yMvI8cO7cOR8fHy8vL5S3O8tJoA1fjZJ2cnLieGz0246ArLDRb1tbWxNV450qV9t7gT3A7t270ZOjsE1MTHYA21jQ0W3evBldH8p706ZNGwGicVrhKHKic5Tr6tVMt79dSGF0xShvQ0PDtcA6YD0LHh11jlJHnRPnLNc/ExdNvDRx0eil9wEHWPBKWgHWwO7du4kPJ26cVni7adXVzSNaJUf8BGj7WHggrKvO0vl5BHKVrCiTz+fPmDEDG8i07jqQVmtualYYmlua6QAlmafiEMTiJjqIRGKRkDkleHImEjYKG9nQ0NDYUN9QD6Gurr6utq62tq6srDwtLS08PDwwMPDSpUv+/v6+vr4+Pj5nWbygc4tO3dPT8zQL8epoAU4CbsAJgHj144AzQPSPsj8M0OK3h04yttsPAXhrov7xlsUbeP/+/fug82wBbXh07bRj3wXsBDhWYDuA43wYo7S2gM83NjYmdsHY2NgIIDrEVbkxmhJj482wg9bmA61bjpfGrruJiYkpQLtr9Nho1MzMzMwBC+jVE7+NrtsSsJJ23ei9scNvD31+R0fHffv2aWtrEx9Oa6wN783rBBoAj8fr37//6NGjxwFjgTFjxowePXrUqFFfsIwcOXLEiBH6+vrDhzPPa/CRja6ubt++fen3YbF6V3mpSMmK8mmFK5Qnq8S2C3RkXjpnZptkRjozua1JLGbmtwmFYpEQZqeTGazU9NWGBmF1VU1yUsqVK1dCQkKIwv1h7MqP5RzgC/gA3ixnz571YuGYALn6J1bgxIkTsvp3Amj/j1bAEXAAiP5tARsbm0OANTQB0ApYsoNnpBXAsQWcpj7dLsBhNvSQu1h2KgFbFpeMNiHsRpXuAYhWzVjMAQsA3S8t3XbVa2traweggB0cHPBaHT58+Ahw9OjRYwBeW2dnZ2tra9qH0wpXlOaxaADsWjtLLEyqDBkyZNKkSXp6egMGDNCGP40ZQKFNMVAeX3zxxbBhw2T/YUJ5iSvScBv56urqROHQKZbMJVX19yNYvuMKZ+qT359I//gEJ6tzZqoLGyWT1Wtq6lJT7l6/fiMiIiI8PDw4ODgwMPAyEMBySZoLLOcBfxY/4Ny5c7KG4CzAaQh4QlvAg+UUcBJwA9AE0FbAmQVbAcQQHD16FO/mw4Aj28PHm55jEeimwSHAmsWKxZLiIIx+E5NxUAbS+5XZwgybI+yOmSV7NGaJJ0C6ynYURLGyosWxd9TtsWPHnABnZ+fjLC4uLq7ACcDNze3kyZPuwKlTpxwdHYnC23DaRO08QAPAtDKxhoaGOouGhoampubUqVM//fRTko87xJgtqHCpoaHRo0ePUaNGaWtrkz0oLC2zoQ0Nt73p36Rw+EVK6+/Mmlqa4EdmUr82Y+e0ouAbGoSZmdkxMbE3om5eu3YtPDw8LCwM47CwsFAgRIZgIAgIpKDtAtqEixcvojU4z0I3Dc5J2wIfHx9v4CzgBeBzL08ARwTQIKA5cHd3PwmgRXCDkXxXFhcXl+PHj2N8/PhxJ2mOsRylQDPBidFqENvhKANRoKOjY2thxyOHMUAWvU88IHt8ydLJyclZGlSrC4Cf6QQLKhZFi5cCL8tpFrhgntik8gLOnj2Ll9fb29vZ2Rlf+9GjRw/lFY6qRkGqpHCsoqenN2bMGHV15r/+ONCZdJoUI5n9+vUbMWKEjH7bySD76UCiyxUubm7uWCDj660JMhKAWeQlEGRuzOvXr+/cuYPPn/HJ87Vr1yJluApEAPjE9QoQLk0YEBoaGkIRHBwcxEJZA6aZEABcunTp4sWLGF+4cOE8iz/gB5xj8WXxAby9vdEckJ4C3tNoF9i7nVl6eHigEkgM/kwSoVTIcwE3ihMq4urqijWofXCTJ2XA82hDq0SxKFcveEJOixYvDDGaeMHg4jGRP3D+/PkLgLu7O46ltyFvHoAmANPKxxrSqANDhw7V19fHNA6VqaQ3rNi3b9/hw4drUK0DzFcUq3QIuYXV1dW1tLRmzJghBlBKONrdAamqKR5na7cjTw6tMEEEj1Kvqal5+PDhnTt3EhISYmNjoylu3ryJazeBGyxRFNeBazJEAldZIliuAOEUYQA0FBijEMwSxEIsAjEHAcAl4CKAtyzG58+fx1sZYz+Wcyy+MhBLQfwbMRl0wosFM9k1hUu6Lp0mR8HjYsw5KfZkmZktCPk4mDgP4EfGi4AxXha8RJdZyDUMAoKBM2fOkDltikTOAzQ0NDDRdqwB8HitA+aYg7E68Nlnn02ePJn8qEOunBRl4h40NDSGDh2qq6uLq+3Givamar6WltasWbNEImayCRERiFzc1CRWSbNqCtXZ1RvEYvHbt2/v3buXnJyMIo+XRxwQGxtLErHALZYYimgKYhpI4saNG2gfwDK0RtcAMAtMxFoGZhkBgGVgItJ9CGN7ELLtBbyD8W4OCgoi9zd7w7cuUQkBAQEoDDqmZaMojQKTG3OqXLhwAXPoQ5Cjk0TrmUGKnDkmyCfCDxgChFKEAeHSkEuHCbyeERERly5d0tHR0dLSIj1tOtG2mGW3akijrq4unSHpjfN4vFGjRn399df4opFeLL0p+lB8CmgCfD5fS0tLX1//iy++6Nmzp7oSqCpjReXV1dU///zzZcuWNTY2iljQn9OCp5XfrBilnoeTfXUmIRKJ8vLy0tPTU1NTk4A7d+5gghPfoUiU4TZLQkJCvDziKGIB1jgwS2IfKOMQjUYBY2w9RFFcB6KiojBxjSWShbYR0mYiAm70cLAVjLmAEI6ESYPWJFQa1BWJpTdy10JgJinuNTQ0VHr3krXwsCvh4YzlCg9nJpwSiBQxwflE+EHZz80sr1+/Tq4QXhaSw1nF63bjxo1Ro0b169ePNMJJgvhhWSXLzdFQGnV19R49euBw+nfffTcF/rx50qRJEydO/BaYMGHCN9988xX8nfOXX345bty4sWPHkmdpI0eO1NbWppsA6tIokmhn8tXV1fFv5M3MzBqAxsaGRmGDEECvLqv2ZsX8EwpHwyMQCLKzsjMyMtLupaUqy93U1HsYUliS5ZGSkoLZSdLcuXMHTQRrFuQsEyjiKeIoYllusRBLQScUWY2bN2/euHGTsR3MtHcJpInBZjDLmJgY9gi3YmNjJemYW7cgkGOhMaIPFx0djTskAiOSw/2D5bp540a05ExwnbZtkCb7jImJiYYZ5uSg9LndusWcHgdy5rKWNCoqysDAoF+/fr169SKDbd2nbQ2220wSHeiHkyrSupasdUbGbdRVV1fX1NTU1dUNDg6ura2tq6urr2cCiF3YyCBERCxyHTtxxmrk/WrdnSgpKc3OfvzwYVZ6eka68qTdT8fAVklrJT0t7T6GezLclYG2KinSEKOB9iE5OZk2FFSTQpLkNCzkmA3IYkxHfEJC/O34+NvxcQnxcZT9oJJoSW7fvn337t3U1FRyMuxpJCclpWBITkqRBLYQMW3JyckpKSlJSUmJiYlxcXGkm0OZqbi4uHg4jQQmjr+dkJBIjBv9EfDnInQOpjmfmqziVrIrTODnw6PjmMuJEycGDRqEc0iIc9YAyGrbCSysUowqxWa8RJqqLEh12UptqLQzm3g83sCBA6dNm1ZYWFjNUsNQV1tTX1dbX1fXUF/X2FDf2NjAvEyJeSEiTj+B2SiyKlaTetZFPd/uqnzmkHDsV6/ePH6cm5316OHDrAedIgNqP3zw4GFGBgkPMjKY8AB+T5Yhzf37GfdlYC2GZNlqN6RTtOmQMRqSDNp20GkwI3dTku+mJN+DOFXasEjWkpOTU1NTmdZNWhqratrCyFF4UhJKXLLAlZSUlNTU1PT09Lt372KOTJySnJyakpyaDCEl5S7nfCQnz+xGMSmpKWxITb3LpJNTkpNTkpKSITBnzmk6xQORkZHz5s3Dfy9D703rud0BNpWETVw3SeDTL1mhdiCnMwJuu666unq/fv2GDRvm6ur67t278vLyiorKysqqqqrq6uoaQXWdQFBbW1NfizqHFyg1wlwyRupCMT6QRrk1iZsxdLvCmSfkouYmccuLF6/y8vIfP859lP04u0NkSZGdlfVINnB2LKmRmZ2VmS1VOysrM5OE7MzMrIcPszLl8ZCCtktoQ0iOtElpXQPj8uD+/daQnp7OsTbp6emZmZlZWVnp6enS5gXX0tPTMtrZp8MAAA+CSURBVDgBWi5paWn3IEgqoa3KyMjIzMzk2C9qNQPaUEx8P502fMxZwXk/yLj/IAOTsA5nm8FkZjCbmFoQ0rEBde9+2r30e/fS795Nu3v3HjZDsGWBVioxMRGdfFxcnLe399ixY1HkqFjSUJercFrV6ix0pqI0W5ZZtuGH6WLtptsWZ2e24qHxRVd6enpLly7Nzc0tKX7//n1ZaWl5WVlFeXllRUVVVZWgukogENTWCGrRpdfWMu33+vrGBnipsRBcuoi4dPCsavgCtu6LsdkgEjUVFb7Izy/IzX2Sk5OX8zi3UyFHIY+lkZTDw+XkUBtzyAk8fpzLBqbAI+VgTcnjbMZgcQK7EZasZcnOysLAZjCrEiOFlyWTsTLZqgS0SVSVh1nZWY9yc3Kzs7kWjT3qI/Y0JCeD55qVlQUJ8kFaPwJUZI0pc3qZDx8yAZpLDzIYmBgbSunp6ffuMTqnpZ4I3L59Oy4u7vTp0/iuLmyuE53T/pxOK9Jw2/moGaI6XEW1y2aSrXITpHw3JfCgPXv21NPTGzhw4PTp09PS0l6/fv3mzbt3b4vfvSt5XyLReUVFVWVFVVWloLqqRiCoqampramprWO66ozIpXTO+nORqKn7R9pglptI2PTq1Ztnzwrz8wvy8vI7Fp7k5T958pQNT548yXvSJnl5kgJwuCdklVMpj4WTr2iVLY5LuZ9FukheTl5eLicrl3lfRR4JBQXP8/MLcnLyWFsjtZUUa008BkPJ7CGHZD5+nJub+yQ390nB04K8vLxc+TzJzWU2ERtJlWLq5ubmQ9yaTUpS9pGxg2gUspjWUCY2dLBFc//+fWyMkLduEGeOXXR/f//x48d/9tln2C3H17bRzpyjXrnCUyYT9yPXh3MOoeSqMgdVqYyGhkbPnj21tbUHDx782WefrVq1Kicnp7Cw8OXLl69eMiJ/+7b43dsSxp+XlEmceXlVVWV1dXW1AKipqWUa7bUST97qzFmRd7/CmxjEYvGbN28KCwufPXtW8C/g6b+MZ8+eFRUVPX36ND8/H2NMcE4zXx6kDFZ5DpDMziTI0dDYoZEi0s+BNtGjR49IK4DoPCODGUxlehHsq3Wwc47N9fj4+OjoaHNz8ylTpgwBdHR08D1wA9tEGxg4cCAmZH9Jgj8vobdiGbpk//79BwwY0B8YIA2pKJsgB+WcoA7FoEGDcG0QQKcxh8S6gJ6e3rBhw/CR+6JFiy5dulRQUPDs2bPnz58XFRUxIn/16vXr12/fvi0uZprspaWlZWVl0DlnmuwocsaVw5A7jLrX19fXNwJCln9C4fj47u3bty9fviwsLHz+/HlhF4F3cyfjZ6pDjqh6Veb7k6WwsPDVq1cvX74sKipq49qQrUUKePHiBe5E9hBt55APQhfDTGKQ0fTQaseWAkr98WNmeCUrK4voHJ05NtrxGcEdAJvrcXFxkZGR3t7ednZ2JiYmW9jfzxoZGW3atGnjxo3r169fC6wB8A15K4Bly5YtXbp08eLFf/3116JFi/78888//viDvA/vt99+mz179i+//DJz5swZM2b89NNP06dP//7776dNm/b999/jg/Fp06ZNnToVn5BPnjx5ypQp3333HRb48ccff/rppxkzZsyaNWv27Nlz5syZO3fuvHnz5s+fv2DBgkWLFv31119LlixZunTp8uXLV65cuWrVqtWrVxsaGq5du3b9+vUbNmzYtGmTsbHx5s2bt2zZgi/VMDExMTU13bVr1+7du/fu3WtmZmZhYWFubu7g4ODl5RUbG5uVlfXkyZP8/PyCggJUOH6VROElJSUoclQ4jr8JAI7CGxoaGskjNaHwn1N4cXHx69ev8f570RUouMmVzSanoGyF7iyHJ/Pq1as3bfL27ds3b968VsyrV69wV0VFRS9evOiSU0ajjMonmicNDaazxJKTk/MIXHoW8PDhwwcPHtCN9hQgKSnp9u3biYmJ8fHxMTExUVFRofDLAvyVYUBAwKVLly5cuODn5+fr64svBTlz5szp06fd3d3d3NxcXV2dnZ2dnJyOHDni4OBAXn138ODB/fv3m5ub7927d9euXaampviiO2Nj403wXi1UoKGh4erVqzds2LB+/fp169ahEVm3bt369evxlVWbN2/eunXr9u3bUZOoxgMHDlhZWdnY2Njb2zs6Oh49etTZ2dnFxcXNze3UqVOenp5eXl7e3t7nzp3z9/e/ePFiQEAAvs0uLCwsIiIiMjLy+vXrN2/ejImJiY2NjY+PT0hISExMTEpKyszMfPz4MXYhUd6FhYXEh79584b48DKgDR/eAHB9uPif4v3792/fvsWb89U/gmIhdMsW8pk6s3dsm5FdySZeKoYu3LXX+eXLl8RwYDviOfsyzIKCgqdAfn4+qh07+ThmmZ2NI3MPM5ihOEn//C4QExPj6+vr6Oh44ADzwqx9+/ahWzMzM9u7d++ePXvwvZQmwPbt28kLMzZv3mxkZLRx40ZU6dq1aw0NDclr8AwMDFasWLF8+XKOn1+4cOGff/65cOHCBcDixYuXLFmyGFjCgplLly5dBqxYsWLlypUG8Da7NWvW0F6atgXbtm3bsWMHeund8LqrvXv3mpub7wMOHDhw8OBBKysra2trGxsbW1tbOzs7e3t7fBnmkSNHjh07dvbs2Vu3buXm5mLzDa0zmnsi71KqiV5ZWUma6DXSrXR04MSHi0QitW4SuIhCKBSKRKLS0tJ379616aL+F29E7/ov/ACdMTekLrEdaIDQyBCpc9QuK/XsbKb1npmJw+/MY//Lly9bW1vb2tra2NhYWVm1oXBTU1MTE5MdO3agyOnGPBE5umJ0zqtXM6++WrVqlYGBwcqVK4naly1bhk1rlDNK1wBYyWJgYLAK+BvA3oEhsHbtWvTzGzZsQHkbGxtv2bJlK7B9+3YU+c6dO+mmOOp8//79BwFLS0srK6tDhw6h1O0BZ2fnEydOODs7nzp1Ki0tDRvnKO93794VFxeXlJQQeVcC1YAAxtOJwuvr69GHCym6UeFkbo3klS+iprKyipKS0uJ379+9K1E6FL/rKMWd5W1xsTJBcph374rxQzGDn53gbSdoPezb4rddE1rPhjZedAOBdu/ognA89VnB84Knz57mP8t/8jQvD8bnc/IePXqUnp7u4+Nz7NgxZ2dnR0dH9Gm2traHAGtraysrK0tLS2xyo2O3gLdNc3w7R/nbtm3bAhgDRmxnfgMLtsnRFqxbt87IyMjY2NhIGqy7GaDVux1ADaOvRhnv2bNnL2AO7Nu3b//+/ei0OWImftvR0fHw4cPouvEiYGvf3d39zJkzHh4e8XEJr16+wcE1Rtrvy8vKKirgeTh47hpm6ouglnkqXlMHfyVUj0/L8H/EyCw3MgFGjX7XWhemyQteSKKioqq0tKykpLSkpPS9suG9qpR0GcUlJcoEyfGKi0v+VaGk+D2Gzp0VY79KSuiPVgy2jLFiqH5U/uvXr2k/D7J/WVT0orCQGTiE3vvzgoKC7OzswMBAd+D48ePYnT4G4DtzDh8+7Ag4ODjY29vb2dmhnz906BARv6WlJTbsOZ6fNgG7d+/etWvXzp07TQETYMeOHWgXTE1N98JwF+qTxGYUKFpzc3MLCwuULlHvwYMHUcDWAGl7y5WxE+Ds7Hz8+HEXFxdXwM3N7eTJk+7u7qdOnfJgOXPmjJ+fn7//heTk1HfvSshEl8rKamauCzOnraampg7mujDa5jwGB20zM9uItnFyW7fPS0eFC4Xiqqrq8vLyUpr3ZaVth9IyurhS6dYdlpeW/pOBPtV/8rhyj0WfjFKXrb1CrUd5/76MCYylZpC0YYolLRfSW3kNvHr16iXDi5cvXxQWPo+Li/Pz8/P29vb09Dx9+rSHh8cplpMnT7oBJwBXV1cXwBlwgj+WQCtwBHB0dHQAiCFAW2BjY0M3B7BFgI0CVCaK0x6wA7AdgfrEfHvoJ+P+HYHDAB6afgsdSpeoF08ePwgt4NPAGcDLy+ss4O3t7ePj4+vre+7cOT/g/PnzwcHBYWFhBQUFlRWV1dUCQTVqm/HYNTV1OC9d4rSZqenCxgYRM5WNmccGAV6phNrGdnS3K1zyz6RCcXV1TUVFVXl5RTkzCw8og3Q3xeWV5R9DN10B+MrAyVSUlVWUlZaXouyZmGmjMd2x4vfFxdgdY7z969evnz59Ghoaiu/V9fPzOwcwt7evn6+vn4+Pr4+Pj7e399mzZ728vFAMOIRO2wJ3d/eTLDiu7sri4uJyHCBGwcnJCRsInNjJyQlF6ObmRmuSZGKCPQ6zdAfQHHl4eKBiPVnOnDnjBZw9e9YbQOkS9fozXDh//uKFC8xjgosXL14CAoDLlwMDLwcFXg4KCgwODQ29evVqUlJSVRXMUGWedVPuul4IqmZiFDZou4l58Sn7ujR8SyLpJv9TChc1CQS1VZXVMPOuupKhqrKy+mP433sFcBJlRUUVJ6BhlSgfmlHv35cVF79/8OBhWFhYSEhIMBAUFBQYGHj5cuDly0GXLwcFBFwOgOdkly5dushy4cKF84C/vz96Oco0SCwCKgrtAsoMY7QRrAaZJcry9OnTnp6eqD3WyvgSMIfE5KDQfmZkiueDMWqVPVlGtAEBAZdZAgMDgwD4uCEhwaGhIWGhoeGhoaFhYWHhLFcYIiKuREZEMOHq1av4I+Li4pLGRpFkLiqjZ6b5TRrh2BQnMm4j0V1j6WSIXsRSU1MjEAiqq6urqqpA4f/VqKqysqpCqaD6acp+wCoK1ff3L6pBfQ6pL5Hkyz3X8vLyysrKxMTEqKioqywRwJWI8CtXwq5cCcN3Y4QBoRRoEYKCgoKDg1EwaBrAOjBGgQYdI20j8NF0cDDjG0OA4ODgkJCQiIiIq1evSs4BREYiVnrMMjQ0FMtj3ZCQEOrUmCQpTKrjawXxU0YC16S5fv16VFTUDZabQDRLDJCQkFBQUCAUChsbG4VCoUgxRGiKEt2ucPIOxtraWlR4NdO9+N8D9IUE7cXVTH+pNWD51krVANOrkgAXoUogwFAtu39qb9XVgiqZgHtUEDMnwq1CDkHtGU6o9SxlVqmzbT0SW4raIX46ZscCPC78Bgprw+EYs56QcDs2Ni46OiYm5lZMTAxzS9+MvskECTdu3IiScCMqCkPU9etR169fv3btGsbXgEiAtRXMErUqq9hr165FR0dHRUVhRYyvX78eHR19C8ApKJim49jY2Li4uPj4+Fu3brFnJZEle75SS1ahzBJVSu/t1q1bsSxxQLw0CdIkJSXl5uairlFBKGCidEV6ls3/f/O7Sf6DFzAnAAAAAElFTkSuQmCC;" vertex="1" parent="1">
          <mxGeometry x="650" y="956.39" width="101" height="103.75" as="geometry" />
        </mxCell>
        <mxCell id="VVVXWn_tdc937dLlu_xc-8" value="" style="shape=doubleArrow;whiteSpace=wrap;html=1;direction=north;" vertex="1" parent="1">
          <mxGeometry x="130.5" y="896.39" width="20" height="60" as="geometry" />
        </mxCell>
        <mxCell id="VVVXWn_tdc937dLlu_xc-18" value="" style="shape=datastore;whiteSpace=wrap;html=1;fillColor=#ffe6cc;strokeColor=#d79b00;" vertex="1" parent="1">
          <mxGeometry x="370" y="830" width="60" height="60" as="geometry" />
        </mxCell>
        <mxCell id="VVVXWn_tdc937dLlu_xc-19" value="" style="shape=datastore;whiteSpace=wrap;html=1;fillColor=#d5e8d4;strokeColor=#82b366;" vertex="1" parent="1">
          <mxGeometry x="660" y="830" width="60" height="60" as="geometry" />
        </mxCell>
        <mxCell id="VVVXWn_tdc937dLlu_xc-20" value="" style="shape=datastore;whiteSpace=wrap;html=1;fillColor=#f8cecc;strokeColor=#b85450;" vertex="1" parent="1">
          <mxGeometry x="110.5" y="830" width="60" height="60" as="geometry" />
        </mxCell>
      </root>
    </mxGraphModel>
  </diagram>
</mxfile>
